<svg width="45" height="44" viewBox="0 0 45 44" fill="none" xmlns="http://www.w3.org/2000/svg">
<mask id="path-1-inside-1_1154_129875" fill="white">
<path d="M29.288 4.05255C28.5363 3.30088 27.2346 3.81422 27.2346 4.85922V11.2575C27.2346 13.9342 29.508 16.1525 32.2763 16.1525C34.018 16.1709 36.438 16.1709 38.5096 16.1709C39.5546 16.1709 40.1046 14.9425 39.3713 14.2092C36.7313 11.5509 32.0013 6.76588 29.288 4.05255Z"/>
</mask>
<path d="M29.288 4.05255C28.5363 3.30088 27.2346 3.81422 27.2346 4.85922V11.2575C27.2346 13.9342 29.508 16.1525 32.2763 16.1525C34.018 16.1709 36.438 16.1709 38.5096 16.1709C39.5546 16.1709 40.1046 14.9425 39.3713 14.2092C36.7313 11.5509 32.0013 6.76588 29.288 4.05255Z" fill="#D3C7FF" stroke="url(#paint0_linear_1154_129875)" stroke-width="2" mask="url(#path-1-inside-1_1154_129875)"/>
<mask id="path-2-inside-2_1154_129875" fill="white">
<path d="M37.9065 18.683H32.6082C28.2632 18.683 24.7248 15.1446 24.7248 10.7996V5.5013C24.7248 4.49297 23.8998 3.66797 22.8915 3.66797H15.1182C9.47149 3.66797 4.90649 7.33464 4.90649 13.8796V30.123C4.90649 36.668 9.47149 40.3346 15.1182 40.3346H29.5282C35.1748 40.3346 39.7398 36.668 39.7398 30.123V20.5163C39.7398 19.508 38.9148 18.683 37.9065 18.683ZM21.4065 32.543H14.0732C13.3215 32.543 12.6982 31.9196 12.6982 31.168C12.6982 30.4163 13.3215 29.793 14.0732 29.793H21.4065C22.1582 29.793 22.7815 30.4163 22.7815 31.168C22.7815 31.9196 22.1582 32.543 21.4065 32.543ZM25.0732 25.2096H14.0732C13.3215 25.2096 12.6982 24.5863 12.6982 23.8346C12.6982 23.083 13.3215 22.4596 14.0732 22.4596H25.0732C25.8248 22.4596 26.4482 23.083 26.4482 23.8346C26.4482 24.5863 25.8248 25.2096 25.0732 25.2096Z"/>
</mask>
<path d="M37.9065 18.683H32.6082C28.2632 18.683 24.7248 15.1446 24.7248 10.7996V5.5013C24.7248 4.49297 23.8998 3.66797 22.8915 3.66797H15.1182C9.47149 3.66797 4.90649 7.33464 4.90649 13.8796V30.123C4.90649 36.668 9.47149 40.3346 15.1182 40.3346H29.5282C35.1748 40.3346 39.7398 36.668 39.7398 30.123V20.5163C39.7398 19.508 38.9148 18.683 37.9065 18.683ZM21.4065 32.543H14.0732C13.3215 32.543 12.6982 31.9196 12.6982 31.168C12.6982 30.4163 13.3215 29.793 14.0732 29.793H21.4065C22.1582 29.793 22.7815 30.4163 22.7815 31.168C22.7815 31.9196 22.1582 32.543 21.4065 32.543ZM25.0732 25.2096H14.0732C13.3215 25.2096 12.6982 24.5863 12.6982 23.8346C12.6982 23.083 13.3215 22.4596 14.0732 22.4596H25.0732C25.8248 22.4596 26.4482 23.083 26.4482 23.8346C26.4482 24.5863 25.8248 25.2096 25.0732 25.2096Z" fill="url(#paint1_linear_1154_129875)" stroke="url(#paint2_linear_1154_129875)" stroke-width="2" mask="url(#path-2-inside-2_1154_129875)"/>
<defs>
<linearGradient id="paint0_linear_1154_129875" x1="27.2346" y1="2.81281" x2="36.8028" y2="12.3467" gradientUnits="userSpaceOnUse">
<stop stop-color="white"/>
<stop offset="1" stop-color="white" stop-opacity="0"/>
</linearGradient>
<linearGradient id="paint1_linear_1154_129875" x1="22.3232" y1="30.5" x2="29.7531" y2="10.1362" gradientUnits="userSpaceOnUse">
<stop stop-color="white"/>
<stop offset="1" stop-color="#B6A3FF"/>
</linearGradient>
<linearGradient id="paint2_linear_1154_129875" x1="4.90649" y1="1.07421" x2="32.9864" y2="27.6615" gradientUnits="userSpaceOnUse">
<stop stop-color="white"/>
<stop offset="1" stop-color="white" stop-opacity="0"/>
</linearGradient>
</defs>
</svg>
