<svg width="68" height="68" viewBox="0 0 68 68" fill="none" xmlns="http://www.w3.org/2000/svg">
<g clip-path="url(#clip0_1709_99381)">
<mask id="path-1-inside-1_1709_99381" fill="white">
<path d="M34.489 25.6533H23.6596C18.9556 25.6533 16.1514 28.4576 16.1514 33.1616V43.9781C16.1514 48.6949 18.9556 51.4992 23.6596 51.4992H34.4761C39.1801 51.4992 41.9843 48.6949 41.9843 43.991V33.1616C41.9973 28.4576 39.193 25.6533 34.489 25.6533ZM35.2515 35.604L27.9242 42.9313C27.7432 43.1122 27.4977 43.2156 27.2393 43.2156C26.9808 43.2156 26.7353 43.1122 26.5543 42.9313L22.8971 39.2741C22.5224 38.8993 22.5224 38.279 22.8971 37.9043C23.2719 37.5295 23.8922 37.5295 24.267 37.9043L26.5321 40.1694C26.9227 40.56 27.5558 40.56 27.9464 40.1694L33.8816 34.2342C34.2564 33.8594 34.8767 33.8594 35.2515 34.2342C35.6262 34.6089 35.6262 35.2163 35.2515 35.604Z"/>
</mask>
<path d="M34.489 25.6533H23.6596C18.9556 25.6533 16.1514 28.4576 16.1514 33.1616V43.9781C16.1514 48.6949 18.9556 51.4992 23.6596 51.4992H34.4761C39.1801 51.4992 41.9843 48.6949 41.9843 43.991V33.1616C41.9973 28.4576 39.193 25.6533 34.489 25.6533ZM35.2515 35.604L27.9242 42.9313C27.7432 43.1122 27.4977 43.2156 27.2393 43.2156C26.9808 43.2156 26.7353 43.1122 26.5543 42.9313L22.8971 39.2741C22.5224 38.8993 22.5224 38.279 22.8971 37.9043C23.2719 37.5295 23.8922 37.5295 24.267 37.9043L26.5321 40.1694C26.9227 40.56 27.5558 40.56 27.9464 40.1694L33.8816 34.2342C34.2564 33.8594 34.8767 33.8594 35.2515 34.2342C35.6262 34.6089 35.6262 35.2163 35.2515 35.604Z" fill="url(#paint0_linear_1709_99381)" stroke="url(#paint1_linear_1709_99381)" stroke-width="2" mask="url(#path-1-inside-1_1709_99381)"/>
<mask id="path-2-inside-2_1709_99381" fill="white">
<path d="M44.1851 16.5H40.7376H38.8301H32.1276C28.1726 16.5 24.9701 19.02 24.8301 23.5175C24.9351 23.5175 25.0226 23.5 25.1276 23.5H30.0801H31.9876H37.1851C40.375 23.5175 44.4826 27 44.5001 30.815V34.2625V39.005V42.4525C44.5001 42.5575 44.4826 42.645 44.4826 42.7325C48.3851 42.61 51.5001 40.02 51.5001 35.4525V32.005V27.2625V23.815C51.5001 19.125 48.2276 16.5 44.1851 16.5Z"/>
</mask>
<path d="M44.1851 16.5H40.7376H38.8301H32.1276C28.1726 16.5 24.9701 19.02 24.8301 23.5175C24.9351 23.5175 25.0226 23.5 25.1276 23.5H30.0801H31.9876H37.1851C40.375 23.5175 44.4826 27 44.5001 30.815V34.2625V39.005V42.4525C44.5001 42.5575 44.4826 42.645 44.4826 42.7325C48.3851 42.61 51.5001 40.02 51.5001 35.4525V32.005V27.2625V23.815C51.5001 19.125 48.2276 16.5 44.1851 16.5Z" fill="url(#paint2_linear_1709_99381)" stroke="url(#paint3_linear_1709_99381)" stroke-opacity="0.8" stroke-width="2" mask="url(#path-2-inside-2_1709_99381)"/>
</g>
<defs>
<linearGradient id="paint0_linear_1709_99381" x1="27.9187" y1="37.7719" x2="43.8266" y2="14.0876" gradientUnits="userSpaceOnUse">
<stop stop-color="white"/>
<stop offset="1" stop-color="#4A42FB"/>
</linearGradient>
<linearGradient id="paint1_linear_1709_99381" x1="16.1514" y1="23.825" x2="35.9739" y2="43.5719" gradientUnits="userSpaceOnUse">
<stop stop-color="white"/>
<stop offset="1" stop-color="white" stop-opacity="0"/>
</linearGradient>
<linearGradient id="paint2_linear_1709_99381" x1="36.629" y1="19.293" x2="58.5819" y2="35.0345" gradientUnits="userSpaceOnUse">
<stop stop-color="#9378FF"/>
<stop offset="1" stop-color="#4B2CCA"/>
</linearGradient>
<linearGradient id="paint3_linear_1709_99381" x1="38.2987" y1="15.6922" x2="66.6741" y2="40.3113" gradientUnits="userSpaceOnUse">
<stop stop-color="white"/>
<stop offset="1" stop-color="#3A227D" stop-opacity="0"/>
</linearGradient>
<clipPath id="clip0_1709_99381">
<rect width="42" height="42" fill="white" transform="translate(13 13)"/>
</clipPath>
</defs>
</svg>
