<svg width="42" height="42" viewBox="0 0 42 42" fill="none" xmlns="http://www.w3.org/2000/svg">
<mask id="path-1-inside-1_1155_77527" fill="white">
<path d="M30.0829 8.68C30.0829 8.6975 30.0829 8.6975 30.0829 8.715C29.6454 8.6975 29.2079 8.68 28.7354 8.68H15.2604L17.1329 6.825C18.8479 5.0925 20.7379 3.5 22.9254 3.5C25.1304 3.5 27.0204 5.0925 28.7354 6.825L29.7154 7.805C29.9604 8.0325 30.0829 8.3475 30.0829 8.68Z"/>
</mask>
<path d="M30.0829 8.68C30.0829 8.6975 30.0829 8.6975 30.0829 8.715C29.6454 8.6975 29.2079 8.68 28.7354 8.68H15.2604L17.1329 6.825C18.8479 5.0925 20.7379 3.5 22.9254 3.5C25.1304 3.5 27.0204 5.0925 28.7354 6.825L29.7154 7.805C29.9604 8.0325 30.0829 8.3475 30.0829 8.68Z" fill="url(#paint0_linear_1155_77527)" stroke="url(#paint1_linear_1155_77527)" stroke-opacity="0.8" stroke-width="2" mask="url(#path-1-inside-1_1155_77527)"/>
<mask id="path-2-inside-2_1155_77527" fill="white">
<path d="M36.4697 23.0452C37.1522 23.0452 37.6947 22.4852 37.6947 21.7852V20.2452C37.6947 13.3677 35.5947 11.2852 28.7347 11.2852H17.7097H13.2647C6.40469 11.2852 4.30469 13.3852 4.30469 20.2452V20.9977C4.30469 21.6977 4.84719 22.2402 5.52969 22.2402C6.99969 22.2402 8.17219 23.4302 8.17219 24.8827C8.17219 26.3352 6.99969 27.5427 5.52969 27.5427C4.84719 27.5427 4.30469 28.0852 4.30469 28.7852V29.5377C4.30469 36.4152 6.40469 38.4977 13.2647 38.4977H17.6922H28.7172C35.5772 38.4977 37.6772 36.3977 37.6772 29.5377C37.6772 28.8552 37.1347 28.2952 36.4522 28.2952C34.9822 28.2952 33.8097 27.1227 33.8097 25.6702C33.8272 24.2177 34.9997 23.0452 36.4697 23.0452ZM18.9347 33.0027C18.9347 33.6852 18.3747 34.2452 17.6922 34.2452C17.0097 34.2452 16.4497 33.6852 16.4497 33.0027V28.3127C16.4497 27.6302 17.0097 27.0702 17.6922 27.0702C18.3747 27.0702 18.9347 27.6302 18.9347 28.3127V33.0027ZM18.9347 21.4702C18.9347 22.1527 18.3747 22.7127 17.6922 22.7127C17.0097 22.7127 16.4497 22.1527 16.4497 21.4702V16.7802C16.4497 16.0977 17.0097 15.5377 17.6922 15.5377C18.3747 15.5377 18.9347 16.0977 18.9347 16.7802V21.4702Z"/>
</mask>
<path d="M36.4697 23.0452C37.1522 23.0452 37.6947 22.4852 37.6947 21.7852V20.2452C37.6947 13.3677 35.5947 11.2852 28.7347 11.2852H17.7097H13.2647C6.40469 11.2852 4.30469 13.3852 4.30469 20.2452V20.9977C4.30469 21.6977 4.84719 22.2402 5.52969 22.2402C6.99969 22.2402 8.17219 23.4302 8.17219 24.8827C8.17219 26.3352 6.99969 27.5427 5.52969 27.5427C4.84719 27.5427 4.30469 28.0852 4.30469 28.7852V29.5377C4.30469 36.4152 6.40469 38.4977 13.2647 38.4977H17.6922H28.7172C35.5772 38.4977 37.6772 36.3977 37.6772 29.5377C37.6772 28.8552 37.1347 28.2952 36.4522 28.2952C34.9822 28.2952 33.8097 27.1227 33.8097 25.6702C33.8272 24.2177 34.9997 23.0452 36.4697 23.0452ZM18.9347 33.0027C18.9347 33.6852 18.3747 34.2452 17.6922 34.2452C17.0097 34.2452 16.4497 33.6852 16.4497 33.0027V28.3127C16.4497 27.6302 17.0097 27.0702 17.6922 27.0702C18.3747 27.0702 18.9347 27.6302 18.9347 28.3127V33.0027ZM18.9347 21.4702C18.9347 22.1527 18.3747 22.7127 17.6922 22.7127C17.0097 22.7127 16.4497 22.1527 16.4497 21.4702V16.7802C16.4497 16.0977 17.0097 15.5377 17.6922 15.5377C18.3747 15.5377 18.9347 16.0977 18.9347 16.7802V21.4702Z" fill="url(#paint2_linear_1155_77527)" stroke="url(#paint3_linear_1155_77527)" stroke-width="2" mask="url(#path-2-inside-2_1155_77527)"/>
<defs>
<linearGradient id="paint0_linear_1155_77527" x1="21.8179" y1="4.05524" x2="25.499" y2="11.4346" gradientUnits="userSpaceOnUse">
<stop stop-color="#9378FF"/>
<stop offset="1" stop-color="#4B2CCA"/>
</linearGradient>
<linearGradient id="paint1_linear_1155_77527" x1="22.7459" y1="3.33942" x2="26.7616" y2="13.0798" gradientUnits="userSpaceOnUse">
<stop stop-color="white"/>
<stop offset="1" stop-color="#3A227D" stop-opacity="0"/>
</linearGradient>
<linearGradient id="paint2_linear_1155_77527" x1="19.5144" y1="24.0446" x2="34.7516" y2="-3.80513" gradientUnits="userSpaceOnUse">
<stop stop-color="white"/>
<stop offset="1" stop-color="#4A42FB"/>
</linearGradient>
<linearGradient id="paint3_linear_1155_77527" x1="4.30469" y1="9.36018" x2="24.7599" y2="34.3755" gradientUnits="userSpaceOnUse">
<stop stop-color="white"/>
<stop offset="1" stop-color="white" stop-opacity="0"/>
</linearGradient>
</defs>
</svg>
