<svg width="68" height="68" viewBox="0 0 68 68" fill="none" xmlns="http://www.w3.org/2000/svg">
<path d="M43.0823 21.68C43.0823 21.6975 43.0823 21.6975 43.0823 21.715C42.6448 21.6975 42.2073 21.68 41.7348 21.68H28.2598L30.1323 19.825C31.8473 18.0925 33.7373 16.5 35.9248 16.5C38.1298 16.5 40.0198 18.0925 41.7348 19.825L42.7148 20.805C42.9598 21.0325 43.0823 21.3475 43.0823 21.68Z" fill="url(#paint0_linear_2367_167420)"/>
<path d="M42.3745 21.1714C42.3811 21.1774 42.3874 21.1836 42.3937 21.1899C42.1803 21.1839 41.9616 21.18 41.7348 21.18H29.4749L30.4842 20.1802L30.4842 20.1802L30.4876 20.1768C32.2152 18.4316 33.9697 17 35.9248 17C37.8977 17 39.6526 18.4323 41.3794 20.1768L41.3812 20.1786L42.3612 21.1586L42.3678 21.1651L42.3745 21.1714Z" stroke="url(#paint1_linear_2367_167420)" stroke-opacity="0.8"/>
<path d="M46.3097 38.6641L46.3097 38.6641V38.6702C46.3097 40.401 47.7082 41.7952 49.4522 41.7952C49.8493 41.7952 50.1772 42.122 50.1772 42.5377C50.1772 45.9496 49.6468 48.0059 48.4161 49.2366C47.1854 50.4673 45.1291 50.9977 41.7172 50.9977H30.6922H26.2647C22.8519 50.9977 20.7959 50.4714 19.5655 49.2429C18.3352 48.0146 17.8047 45.9588 17.8047 42.5377V41.7852C17.8047 41.3566 18.128 41.0427 18.5297 41.0427C20.2823 41.0427 21.6722 39.6048 21.6722 37.8827C21.6722 36.1562 20.278 34.7402 18.5297 34.7402C18.128 34.7402 17.8047 34.4262 17.8047 33.9977V33.2452C17.8047 29.8332 18.335 27.7769 19.5657 26.5462C20.7964 25.3155 22.8527 24.7852 26.2647 24.7852H30.7097H41.7347C45.1475 24.7852 47.2035 25.3114 48.4339 26.5399C49.6642 27.7682 50.1947 29.824 50.1947 33.2452V34.7852C50.1947 35.2229 49.8624 35.5452 49.4697 35.5452C47.7246 35.5452 46.3305 36.9392 46.3097 38.6641ZM30.6922 47.7452C31.6508 47.7452 32.4347 46.9613 32.4347 46.0027V41.3127C32.4347 40.354 31.6508 39.5702 30.6922 39.5702C29.7335 39.5702 28.9497 40.354 28.9497 41.3127V46.0027C28.9497 46.9613 29.7335 47.7452 30.6922 47.7452ZM30.6922 36.2127C31.6508 36.2127 32.4347 35.4288 32.4347 34.4702V29.7802C32.4347 28.8215 31.6508 28.0377 30.6922 28.0377C29.7335 28.0377 28.9497 28.8215 28.9497 29.7802V34.4702C28.9497 35.4288 29.7335 36.2127 30.6922 36.2127Z" fill="url(#paint2_linear_2367_167420)" stroke="url(#paint3_linear_2367_167420)"/>
<defs>
<linearGradient id="paint0_linear_2367_167420" x1="34.8173" y1="17.0552" x2="38.4984" y2="24.4346" gradientUnits="userSpaceOnUse">
<stop stop-color="#9378FF"/>
<stop offset="1" stop-color="#4B2CCA"/>
</linearGradient>
<linearGradient id="paint1_linear_2367_167420" x1="35.7453" y1="16.3394" x2="39.761" y2="26.0798" gradientUnits="userSpaceOnUse">
<stop stop-color="white"/>
<stop offset="1" stop-color="#3A227D" stop-opacity="0"/>
</linearGradient>
<linearGradient id="paint2_linear_2367_167420" x1="32.5144" y1="37.0446" x2="47.7516" y2="9.19487" gradientUnits="userSpaceOnUse">
<stop stop-color="white"/>
<stop offset="1" stop-color="#4A42FB"/>
</linearGradient>
<linearGradient id="paint3_linear_2367_167420" x1="17.3047" y1="22.3602" x2="37.7599" y2="47.3755" gradientUnits="userSpaceOnUse">
<stop stop-color="white"/>
<stop offset="1" stop-color="white" stop-opacity="0"/>
</linearGradient>
</defs>
</svg>
