<svg width="24" height="16" viewBox="0 0 24 16" fill="none" xmlns="http://www.w3.org/2000/svg">
<path d="M21.0275 2.02667C19.3762 0.746649 17.3945 0.106674 15.3028 0L14.9725 0.320023C16.844 0.746648 18.4954 1.59997 20.0367 2.77332C18.1651 1.81332 16.0734 1.17335 13.8715 0.959997C13.211 0.853323 12.6605 0.853323 12 0.853323C11.3395 0.853323 10.789 0.853323 10.1285 0.959997C7.9266 1.17335 5.83485 1.81332 3.9633 2.77332C5.50455 1.59997 7.15597 0.746648 9.02752 0.320023L8.69723 0C6.60547 0.106674 4.62383 0.746649 2.97247 2.02667C1.10092 5.44003 0.110092 9.28002 0 13.2266C1.65135 14.9333 3.9633 16 6.38535 16C6.38535 16 7.15597 15.1467 7.7064 14.4C6.27525 14.08 4.95412 13.3333 4.0734 12.16C4.84403 12.5866 5.61465 13.0133 6.38535 13.3333C7.37617 13.76 8.367 13.9733 9.35783 14.1867C10.2386 14.2933 11.1193 14.4 12 14.4C12.8807 14.4 13.7614 14.2933 14.6422 14.1867C15.633 13.9733 16.6238 13.76 17.6147 13.3333C18.3854 13.0133 19.156 12.5866 19.9266 12.16C19.0459 13.3333 17.7248 14.08 16.2936 14.4C16.844 15.1467 17.6147 16 17.6147 16C20.0367 16 22.3486 14.9333 24 13.2266C23.8899 9.28002 22.8991 5.44003 21.0275 2.02667ZM8.367 11.3066C7.26608 11.3066 6.27525 10.3466 6.27525 9.17335C6.27525 8 7.26608 7.04 8.367 7.04C9.46793 7.04 10.4587 8 10.4587 9.17335C10.4587 10.3466 9.46793 11.3066 8.367 11.3066ZM15.633 11.3066C14.5321 11.3066 13.5413 10.3466 13.5413 9.17335C13.5413 8 14.5321 7.04 15.633 7.04C16.7339 7.04 17.7248 8 17.7248 9.17335C17.7248 10.3466 16.7339 11.3066 15.633 11.3066Z" fill="white"/>
</svg>
