<svg width="42" height="42" viewBox="0 0 42 42" fill="none" xmlns="http://www.w3.org/2000/svg">
<g clip-path="url(#clip0_1003_105581)">
<path d="M33.0567 11.7173L33.0582 11.725L33.06 11.7326C33.207 12.3698 33.2747 13.0657 33.2747 13.8602V22.8727C33.2747 25.4724 32.5344 27.247 31.317 28.3775C30.0928 29.5142 28.308 30.0727 26.0747 30.0727H10.6922C9.93345 30.0727 9.21874 30.0051 8.56194 29.8574L8.54666 29.8539L8.53118 29.8514C8.13398 29.7879 7.74623 29.6756 7.38257 29.5435C6.16406 29.0882 5.2037 28.3416 4.54207 27.2695C3.87667 26.1912 3.49219 24.7486 3.49219 22.8727V13.8602C3.49219 11.2605 4.23244 9.48581 5.44991 8.3553C6.67409 7.21857 8.45883 6.66016 10.6922 6.66016H26.0572C27.9516 6.66016 29.5262 7.06238 30.7058 7.87744C31.8744 8.68499 32.7026 9.93002 33.0567 11.7173ZM8.36469 22.8127C9.35833 22.8127 10.1772 21.9938 10.1772 21.0002V15.7502C10.1772 14.7565 9.35833 13.9377 8.36469 13.9377C7.37105 13.9377 6.55219 14.7565 6.55219 15.7502V21.0002C6.55219 21.9938 7.37104 22.8127 8.36469 22.8127ZM13.2547 18.3752C13.2547 21.2063 15.5435 23.4952 18.3747 23.4952C21.2058 23.4952 23.4947 21.2063 23.4947 18.3752C23.4947 15.544 21.2058 13.2552 18.3747 13.2552C15.5435 13.2552 13.2547 15.544 13.2547 18.3752ZM28.3672 22.8127C29.3608 22.8127 30.1797 21.9938 30.1797 21.0002V15.7502C30.1797 14.7565 29.3608 13.9377 28.3672 13.9377C27.3735 13.9377 26.5547 14.7565 26.5547 15.7502V21.0002C26.5547 21.9938 27.3735 22.8127 28.3672 22.8127Z" fill="url(#paint0_linear_1003_105581)" stroke="url(#paint1_linear_1003_105581)"/>
<path d="M39.0241 19.108V28.1205C39.0241 33.5105 35.9441 35.838 31.3066 35.838H15.9416C14.6291 35.838 13.4566 35.6455 12.4416 35.2605C11.6191 34.963 10.9016 34.5255 10.3241 33.9655C10.0091 33.668 10.2541 33.1955 10.6916 33.1955H26.0566C32.5316 33.1955 36.3816 29.3455 36.3816 22.888V13.858C36.3816 13.438 36.8541 13.1755 37.1516 13.4905C38.3416 14.7505 39.0241 16.588 39.0241 19.108Z" fill="url(#paint2_linear_1003_105581)"/>
<path d="M12.6189 34.793L12.619 34.793L12.6117 34.7904C11.8944 34.5309 11.2722 34.1599 10.7664 33.6955H26.0566C29.3932 33.6955 32.1137 32.7017 34.0006 30.8171C35.8875 28.9325 36.8816 26.2162 36.8816 22.888V13.9354C37.9059 15.0774 38.5241 16.7499 38.5241 19.108V28.1205C38.5241 30.7203 37.7838 32.4995 36.5639 33.6345C35.3374 34.7755 33.5483 35.338 31.3066 35.338H15.9416C14.6769 35.338 13.5665 35.1525 12.6189 34.793Z" stroke="url(#paint3_linear_1003_105581)" stroke-opacity="0.8"/>
</g>
<defs>
<linearGradient id="paint0_linear_1003_105581" x1="17.0141" y1="17.6067" x2="30.4805" y2="-7.68674" gradientUnits="userSpaceOnUse">
<stop stop-color="white"/>
<stop offset="1" stop-color="#4A42FB"/>
</linearGradient>
<linearGradient id="paint1_linear_1003_105581" x1="22.9465" y1="3.74571" x2="14.3999" y2="20.659" gradientUnits="userSpaceOnUse">
<stop stop-color="white"/>
<stop offset="1" stop-color="white" stop-opacity="0"/>
</linearGradient>
<linearGradient id="paint2_linear_1003_105581" x1="22.9416" y1="15.7457" x2="42.7108" y2="33.6299" gradientUnits="userSpaceOnUse">
<stop stop-color="#9378FF"/>
<stop offset="1" stop-color="#4B2CCA"/>
</linearGradient>
<linearGradient id="paint3_linear_1003_105581" x1="24.7474" y1="12.6592" x2="49.2163" y2="39.443" gradientUnits="userSpaceOnUse">
<stop stop-color="white"/>
<stop offset="1" stop-color="#3A227D" stop-opacity="0"/>
</linearGradient>
<clipPath id="clip0_1003_105581">
<rect width="42" height="42" fill="white"/>
</clipPath>
</defs>
</svg>
