<svg width="125" height="126" viewBox="0 0 125 126" fill="none" xmlns="http://www.w3.org/2000/svg">
<g filter="url(#filter0_d_2617_51067)">
<g filter="url(#filter1_d_2617_51067)">
<path d="M67.4262 63.8556L67.425 63.8654L67.4242 63.8752C67.2306 66.1471 66.4731 67.7752 65.2145 68.8433C63.9491 69.9171 62.1036 70.4877 59.6098 70.4877H58.9098C58.315 70.4877 57.7468 70.7718 57.3898 71.2477L55.2898 74.0477L55.2892 74.0486C54.9047 74.5635 54.4366 74.7795 54.0098 74.7795C53.5831 74.7795 53.1149 74.5635 52.7305 74.0486L52.7298 74.0477L50.6298 71.2477L50.6299 71.2476L50.627 71.2439C50.4549 71.0188 50.2036 70.8358 49.9544 70.7098C49.7055 70.5841 49.4041 70.4877 49.1098 70.4877H48.4098C45.6268 70.4877 43.7017 70.1343 42.454 69.0448C41.2232 67.97 40.5273 66.0622 40.5273 62.6052V55.6052C40.5273 53.1122 41.1019 51.2666 42.178 50.0009C43.2485 48.7416 44.8771 47.9843 47.1399 47.7908L47.1497 47.79L47.1594 47.7888C47.5515 47.7398 47.9666 47.7227 48.4098 47.7227H59.6098C62.3236 47.7227 64.2698 48.4029 65.541 49.674C66.8121 50.9452 67.4923 52.8914 67.4923 55.6052V62.6052C67.4923 63.0484 67.4752 63.4635 67.4262 63.8556ZM56.4889 60.6856L56.492 60.6835L56.5021 60.6767C57.056 60.3015 58.7241 59.1718 58.7241 56.9095C58.7241 54.3059 56.6102 52.192 54.0066 52.192C51.4029 52.192 49.2891 54.3059 49.2891 56.9095C49.2891 57.9032 50.1079 58.722 51.1016 58.722C52.0952 58.722 52.9141 57.9032 52.9141 56.9095C52.9141 56.3107 53.4077 55.817 54.0066 55.817C54.6054 55.817 55.0991 56.3107 55.0991 56.9095C55.0991 57.0454 55.0722 57.1286 55.0069 57.2196C54.9262 57.3321 54.7715 57.4759 54.4616 57.6852L54.4616 57.6852L54.4584 57.6875L54.4381 57.7014L54.4381 57.7014L54.4264 57.7095C53.8397 58.1124 52.1941 59.2426 52.1941 61.512V61.8795C52.1941 62.8732 53.0129 63.692 54.0066 63.692C55.0002 63.692 55.8191 62.8732 55.8191 61.8795V61.512C55.8191 61.3521 55.8492 61.2619 55.9159 61.1687C55.9993 61.0523 56.1599 60.9049 56.4889 60.6856ZM52.1941 66.2195C52.1941 67.2088 52.9911 68.032 54.0066 68.032C55.022 68.032 55.8191 67.2088 55.8191 66.2195C55.8191 65.2303 55.022 64.407 54.0066 64.407C52.9911 64.407 52.1941 65.2303 52.1941 66.2195Z" fill="url(#paint0_linear_2617_51067)" stroke="url(#paint1_linear_2617_51067)"/>
<path d="M74.9923 48.6052V55.6052C74.9923 59.1052 73.9073 61.4852 71.7373 62.7977C71.2123 63.1127 70.5998 62.6927 70.5998 62.0802L70.6173 55.6052C70.6173 48.6052 66.6098 44.5977 59.6098 44.5977L48.9523 44.6152C48.3398 44.6152 47.9198 44.0027 48.2348 43.4777C49.5473 41.3077 51.9273 40.2227 55.4098 40.2227H66.6098C72.1923 40.2227 74.9923 43.0227 74.9923 48.6052Z" fill="url(#paint2_linear_2617_51067)"/>
<path d="M71.1173 55.6065V55.6052C71.1173 52.0109 70.0867 49.1175 68.0921 47.1229C66.0974 45.1282 63.2041 44.0977 59.6098 44.0977L59.609 44.0977L48.9523 44.1152C48.9522 44.1152 48.9521 44.1152 48.952 44.1152C48.816 44.1151 48.7154 44.0483 48.6649 43.9708C48.6195 43.9008 48.6114 43.8223 48.6632 43.7355C49.8535 41.7684 52.0311 40.7227 55.4098 40.7227H66.6098C69.3236 40.7227 71.2698 41.4029 72.5409 42.674C73.8121 43.9452 74.4923 45.8914 74.4923 48.6052V55.6052C74.4923 59.0019 73.4462 61.1792 71.4794 62.3693C71.3926 62.4211 71.3141 62.413 71.2442 62.3675C71.1666 62.3171 71.1 62.2165 71.0998 62.0807C71.0998 62.0805 71.0998 62.0803 71.0998 62.0802L71.1173 55.6065Z" stroke="url(#paint3_linear_2617_51067)" stroke-opacity="0.8"/>
</g>
</g>
<defs>
<filter id="filter0_d_2617_51067" x="0.0273438" y="0.222656" width="124.965" height="125.059" filterUnits="userSpaceOnUse" color-interpolation-filters="sRGB">
<feFlood flood-opacity="0" result="BackgroundImageFix"/>
<feColorMatrix in="SourceAlpha" type="matrix" values="0 0 0 0 0 0 0 0 0 0 0 0 0 0 0 0 0 0 127 0" result="hardAlpha"/>
<feOffset dx="5" dy="5"/>
<feGaussianBlur stdDeviation="22.5"/>
<feComposite in2="hardAlpha" operator="out"/>
<feColorMatrix type="matrix" values="0 0 0 0 0.486275 0 0 0 0 0.388235 0 0 0 0 0.890196 0 0 0 0.4 0"/>
<feBlend mode="normal" in2="BackgroundImageFix" result="effect1_dropShadow_2617_51067"/>
<feBlend mode="normal" in="SourceGraphic" in2="effect1_dropShadow_2617_51067" result="shape"/>
</filter>
<filter id="filter1_d_2617_51067" x="0.0273438" y="0.222656" width="124.965" height="125.059" filterUnits="userSpaceOnUse" color-interpolation-filters="sRGB">
<feFlood flood-opacity="0" result="BackgroundImageFix"/>
<feColorMatrix in="SourceAlpha" type="matrix" values="0 0 0 0 0 0 0 0 0 0 0 0 0 0 0 0 0 0 127 0" result="hardAlpha"/>
<feOffset dx="5" dy="5"/>
<feGaussianBlur stdDeviation="22.5"/>
<feComposite in2="hardAlpha" operator="out"/>
<feColorMatrix type="matrix" values="0 0 0 0 0.486275 0 0 0 0 0.388235 0 0 0 0 0.890196 0 0 0 0.4 0"/>
<feBlend mode="normal" in2="BackgroundImageFix" result="effect1_dropShadow_2617_51067"/>
<feBlend mode="normal" in="SourceGraphic" in2="effect1_dropShadow_2617_51067" result="shape"/>
</filter>
<linearGradient id="paint0_linear_2617_51067" x1="52.7659" y1="60.378" x2="70.0527" y2="34.712" gradientUnits="userSpaceOnUse">
<stop stop-color="white"/>
<stop offset="1" stop-color="#4A42FB"/>
</linearGradient>
<linearGradient id="paint1_linear_2617_51067" x1="58.1553" y1="44.4478" x2="47.0815" y2="61.7703" gradientUnits="userSpaceOnUse">
<stop stop-color="white"/>
<stop offset="1" stop-color="white" stop-opacity="0"/>
</linearGradient>
<linearGradient id="paint2_linear_2617_51067" x1="60.0125" y1="42.6376" x2="79.7341" y2="59.112" gradientUnits="userSpaceOnUse">
<stop stop-color="#9378FF"/>
<stop offset="1" stop-color="#4B2CCA"/>
</linearGradient>
<linearGradient id="paint3_linear_2617_51067" x1="61.6944" y1="39.5242" x2="86.476" y2="64.5721" gradientUnits="userSpaceOnUse">
<stop stop-color="white"/>
<stop offset="1" stop-color="#3A227D" stop-opacity="0"/>
</linearGradient>
</defs>
</svg>
