<svg width="43" height="43" viewBox="0 0 43 43" fill="none" xmlns="http://www.w3.org/2000/svg">
<path d="M31.3188 27.6525L31.3176 27.6623L31.3167 27.6721C31.1232 29.944 30.3657 31.5721 29.107 32.6402C27.8417 33.7139 25.9962 34.2845 23.5024 34.2845H22.8024C22.2075 34.2845 21.6393 34.5686 21.2824 35.0445L19.1824 37.8445L19.1817 37.8454C18.7973 38.3604 18.3292 38.5764 17.9024 38.5764C17.4757 38.5764 17.0075 38.3604 16.6231 37.8454L16.6224 37.8445L14.5224 35.0445L14.5224 35.0445L14.5196 35.0408C14.3475 34.8157 14.0962 34.6327 13.847 34.5067C13.5981 34.3809 13.2967 34.2845 13.0024 34.2845H12.3024C9.51938 34.2845 7.59428 33.9312 6.34661 32.8417C5.11575 31.7668 4.41992 29.859 4.41992 26.402V19.402C4.41992 16.9091 4.99451 15.0635 6.07055 13.7978C7.14112 12.5385 8.76971 11.7812 11.0325 11.5877L11.0422 11.5869L11.0519 11.5857C11.4441 11.5367 11.8592 11.5195 12.3024 11.5195H23.5024C26.2162 11.5195 28.1624 12.1997 29.4336 13.4709C30.7047 14.7421 31.3849 16.6883 31.3849 19.402V26.402C31.3849 26.8453 31.3678 27.2604 31.3188 27.6525ZM20.3815 24.4825L20.3846 24.4804L20.3947 24.4736C20.9486 24.0984 22.6166 22.9687 22.6166 20.7064C22.6166 18.1028 20.5028 15.9889 17.8991 15.9889C15.2955 15.9889 13.1817 18.1028 13.1817 20.7064C13.1817 21.7001 14.0005 22.5189 14.9942 22.5189C15.9878 22.5189 16.8067 21.7001 16.8067 20.7064C16.8067 20.1076 17.3003 19.6139 17.8991 19.6139C18.498 19.6139 18.9916 20.1076 18.9916 20.7064C18.9916 20.8423 18.9648 20.9254 18.8995 21.0165C18.8188 21.129 18.6641 21.2728 18.3542 21.4821L18.3542 21.4821L18.351 21.4843L18.3307 21.4983L18.3307 21.4983L18.3189 21.5063C17.7322 21.9093 16.0866 23.0395 16.0866 25.3089V25.6764C16.0866 26.6701 16.9055 27.4889 17.8991 27.4889C18.8928 27.4889 19.7116 26.6701 19.7116 25.6764V25.3089C19.7116 25.149 19.7418 25.0588 19.8085 24.9656C19.8919 24.8492 20.0525 24.7018 20.3815 24.4825ZM16.0866 30.0164C16.0866 31.0057 16.8837 31.8289 17.8991 31.8289C18.9146 31.8289 19.7116 31.0057 19.7116 30.0164C19.7116 29.0271 18.9146 28.2039 17.8991 28.2039C16.8837 28.2039 16.0866 29.0271 16.0866 30.0164Z" fill="url(#paint0_linear_1003_105594)" stroke="url(#paint1_linear_1003_105594)"/>
<path d="M38.8844 12.402V19.402C38.8844 22.902 37.7994 25.282 35.6294 26.5945C35.1044 26.9095 34.4919 26.4895 34.4919 25.877L34.5094 19.402C34.5094 12.402 30.5019 8.39453 23.5019 8.39453L12.8444 8.41203C12.2319 8.41203 11.8119 7.79953 12.1269 7.27453C13.4394 5.10453 15.8194 4.01953 19.3019 4.01953H30.5019C36.0844 4.01953 38.8844 6.81953 38.8844 12.402Z" fill="url(#paint2_linear_1003_105594)"/>
<path d="M35.0094 19.4034V19.402C35.0094 15.8078 33.9788 12.9144 31.9842 10.9197C29.9895 8.92507 27.0962 7.89453 23.5019 7.89453L23.5011 7.89453L12.8444 7.91203C12.8443 7.91203 12.8442 7.91203 12.8441 7.91203C12.7081 7.91193 12.6074 7.84521 12.557 7.76766C12.5115 7.69767 12.5034 7.61917 12.5553 7.53237C13.7455 5.56525 15.9232 4.51953 19.3019 4.51953H30.5019C33.2157 4.51953 35.1618 5.19973 36.433 6.4709C37.7042 7.74207 38.3844 9.68825 38.3844 12.402V19.402C38.3844 22.7988 37.3383 24.9761 35.3715 26.1662C35.2847 26.218 35.2062 26.2099 35.1362 26.1644C35.0587 26.114 34.992 26.0134 34.9919 25.8776C34.9919 25.8774 34.9919 25.8772 34.9919 25.877L35.0094 19.4034Z" stroke="url(#paint3_linear_1003_105594)" stroke-opacity="0.8"/>
<defs>
<linearGradient id="paint0_linear_1003_105594" x1="16.6585" y1="24.1748" x2="33.9453" y2="-1.4911" gradientUnits="userSpaceOnUse">
<stop stop-color="white"/>
<stop offset="1" stop-color="#7242FB"/>
</linearGradient>
<linearGradient id="paint1_linear_1003_105594" x1="22.0478" y1="8.24464" x2="10.974" y2="25.5672" gradientUnits="userSpaceOnUse">
<stop stop-color="white"/>
<stop offset="1" stop-color="white" stop-opacity="0"/>
</linearGradient>
<linearGradient id="paint2_linear_1003_105594" x1="23.9046" y1="6.43452" x2="43.6262" y2="22.9089" gradientUnits="userSpaceOnUse">
<stop stop-color="#9378FF"/>
<stop offset="1" stop-color="#4B2CCA"/>
</linearGradient>
<linearGradient id="paint3_linear_1003_105594" x1="25.5865" y1="3.3211" x2="50.3681" y2="28.369" gradientUnits="userSpaceOnUse">
<stop stop-color="white"/>
<stop offset="1" stop-color="#3A227D" stop-opacity="0"/>
</linearGradient>
</defs>
</svg>
