<svg width="20" height="21" viewBox="0 0 20 21" fill="none" xmlns="http://www.w3.org/2000/svg">
<path fill-rule="evenodd" clip-rule="evenodd" d="M9.96942 0.441406C4.46483 0.441406 0 4.90624 0 10.4108C0 14.8145 2.87462 18.5454 6.78899 19.8909C7.27829 19.9521 7.46177 19.6463 7.46177 19.4017C7.46177 19.157 7.46177 18.5454 7.46177 17.6891C4.70948 18.3007 4.09786 16.3435 4.09786 16.3435C3.66972 15.1815 2.99694 14.8757 2.99694 14.8757C2.07951 14.264 3.0581 14.264 3.0581 14.264C4.0367 14.3252 4.58716 15.3038 4.58716 15.3038C5.50459 16.8328 6.91131 16.4047 7.46177 16.1601C7.52294 15.4873 7.82875 15.0591 8.07339 14.8145C5.87156 14.5698 3.5474 13.7136 3.5474 9.86037C3.5474 8.75945 3.91437 7.90318 4.58716 7.16923C4.52599 6.98575 4.15902 5.94599 4.70948 4.60043C4.70948 4.60043 5.56575 4.35578 7.46177 5.64018C8.25688 5.39553 9.11315 5.33437 9.96942 5.33437C10.8257 5.33437 11.682 5.4567 12.4771 5.64018C14.3731 4.35578 15.2294 4.60043 15.2294 4.60043C15.7798 5.94599 15.4128 6.98575 15.3517 7.2304C15.9633 7.90318 16.3914 8.82061 16.3914 9.92153C16.3914 13.7747 14.0673 14.5698 11.8654 14.8145C12.2324 15.1203 12.5382 15.7319 12.5382 16.6494C12.5382 17.9949 12.5382 19.0347 12.5382 19.4017C12.5382 19.6463 12.7217 19.9521 13.211 19.8909C17.1865 18.5454 20 14.8145 20 10.4108C19.9388 4.90624 15.474 0.441406 9.96942 0.441406Z" fill="black"/>
</svg>
