<svg width="21" height="20" viewBox="0 0 21 20" fill="none" xmlns="http://www.w3.org/2000/svg">
<path fill-rule="evenodd" clip-rule="evenodd" d="M10.5987 0.238281C5.0941 0.238281 0.629272 4.70311 0.629272 10.2077C0.629272 14.6114 3.50389 18.3423 7.41826 19.6878C7.90756 19.749 8.09105 19.4432 8.09105 19.1985C8.09105 18.9539 8.09105 18.3423 8.09105 17.486C5.33875 18.0976 4.72713 16.1404 4.72713 16.1404C4.299 14.9783 3.62621 14.6725 3.62621 14.6725C2.70878 14.0609 3.68738 14.0609 3.68738 14.0609C4.66597 14.1221 5.21643 15.1007 5.21643 15.1007C6.13386 16.6297 7.54059 16.2016 8.09105 15.9569C8.15221 15.2842 8.45802 14.856 8.70267 14.6114C6.50083 14.3667 4.17667 13.5105 4.17667 9.65724C4.17667 8.55632 4.54365 7.70006 5.21643 6.96611C5.15527 6.78262 4.78829 5.74287 5.33875 4.3973C5.33875 4.3973 6.19502 4.15265 8.09105 5.43706C8.88615 5.19241 9.74242 5.13125 10.5987 5.13125C11.455 5.13125 12.3112 5.25357 13.1063 5.43706C15.0024 4.15265 15.8586 4.3973 15.8586 4.3973C16.4091 5.74287 16.0421 6.78262 15.981 7.02727C16.5926 7.70006 17.0207 8.61749 17.0207 9.7184C17.0207 13.5716 14.6966 14.3667 12.4947 14.6114C12.8617 14.9172 13.1675 15.5288 13.1675 16.4462C13.1675 17.7918 13.1675 18.8316 13.1675 19.1985C13.1675 19.4432 13.351 19.749 13.8403 19.6878C17.8158 18.3423 20.6293 14.6114 20.6293 10.2077C20.5681 4.70311 16.1033 0.238281 10.5987 0.238281Z" fill="white"/>
</svg>
