<svg width="74" height="25" viewBox="0 0 74 25" fill="none" xmlns="http://www.w3.org/2000/svg">
<path d="M24.8557 6.60466C25.1085 6.35182 25.2064 6.05005 25.1248 5.78905C25.0433 5.52806 24.7904 5.34046 24.4316 5.28337L23.6486 5.15287C23.6159 5.15287 23.5425 5.09578 23.5262 5.06316L23.0939 4.19861C22.7677 3.53796 22.0255 3.53796 21.6993 4.19861L21.267 5.06316C21.2588 5.09578 21.1854 5.15287 21.1528 5.15287L20.3698 5.28337C20.0109 5.34046 19.7663 5.52806 19.6765 5.78905C19.595 6.05005 19.6928 6.35182 19.9457 6.60466L20.5492 7.21637C20.5819 7.24084 20.6063 7.33871 20.5982 7.37134L20.4269 8.1217C20.2964 8.68447 20.5085 8.93731 20.6471 9.03518C20.7858 9.13306 21.0875 9.26356 21.5851 8.96994L22.3191 8.53766C22.3517 8.51319 22.4578 8.51319 22.4904 8.53766L23.2163 8.96994C23.4447 9.10859 23.6323 9.14937 23.7791 9.14937C23.9503 9.14937 24.0727 9.08412 24.1461 9.03518C24.2847 8.93731 24.4968 8.68447 24.3663 8.1217L24.195 7.37134C24.1869 7.33056 24.2113 7.24084 24.244 7.21637L24.8557 6.60466Z" fill="url(#paint0_linear_2437_87085)"/>
<path d="M18.8319 2.71929C19.0089 2.54224 19.0775 2.33092 19.0204 2.14816C18.9632 1.9654 18.7862 1.83404 18.5349 1.79406L17.9866 1.70268C17.9638 1.70268 17.9124 1.6627 17.9009 1.63986L17.5982 1.03446C17.3698 0.571847 16.8501 0.571847 16.6216 1.03446L16.3189 1.63986C16.3132 1.6627 16.2618 1.70268 16.239 1.70268L15.6907 1.79406C15.4394 1.83404 15.268 1.9654 15.2052 2.14816C15.1481 2.33092 15.2166 2.54224 15.3937 2.71929L15.8163 3.14763C15.8392 3.16477 15.8563 3.2333 15.8506 3.25615L15.7307 3.78158C15.6393 4.17566 15.7878 4.35271 15.8849 4.42125C15.982 4.48978 16.1933 4.58116 16.5417 4.37556L17.0557 4.07286C17.0785 4.05573 17.1528 4.05573 17.1756 4.07286L17.6839 4.37556C17.8438 4.47265 17.9752 4.50121 18.078 4.50121C18.1979 4.50121 18.2836 4.45552 18.335 4.42125C18.4321 4.35271 18.5806 4.17566 18.4892 3.78158L18.3693 3.25615C18.3636 3.22759 18.3807 3.16477 18.4035 3.14763L18.8319 2.71929Z" fill="url(#paint1_linear_2437_87085)"/>
<path d="M10.1659 20.8478L10.1583 20.8759L10.159 20.905L10.2196 23.506C10.1277 23.795 9.82988 23.9498 9.56142 23.8534C7.746 23.2016 6.1798 21.983 5.10088 20.3683C3.8826 18.545 3.3687 16.341 3.65492 14.1669C3.94115 11.9928 5.00798 9.99691 6.65664 8.55107C8.30531 7.10523 10.4234 6.30804 12.6162 6.30804C14.8091 6.30804 16.9271 7.10523 18.5758 8.55107C20.2245 9.99691 21.2913 11.9928 21.5775 14.1669C21.8637 16.341 21.3498 18.545 20.1316 20.3683C19.0526 21.983 17.4864 23.2016 15.671 23.8534C15.4026 23.9498 15.1047 23.795 15.0129 23.506L15.0734 20.905L15.0741 20.8759L15.0666 20.8478C15.0319 20.7183 14.9672 20.5964 14.907 20.4938C14.8784 20.4451 14.8528 20.4036 14.8291 20.3653C14.7969 20.3132 14.7685 20.2671 14.7414 20.2171C14.7203 20.1781 14.7061 20.1471 14.6978 20.1224C14.6946 20.1129 14.6926 20.1055 14.6914 20.1C14.6959 20.0974 14.7019 20.0942 14.71 20.0906C15.6063 19.6951 16.3775 19.0511 16.9278 18.2276C17.6267 17.1815 17.9215 15.9171 17.7573 14.6698C17.5931 13.4226 16.9811 12.2775 16.0352 11.448C15.0894 10.6185 13.8743 10.1612 12.6162 10.1612C11.3582 10.1612 10.143 10.6185 9.19721 11.448C8.25136 12.2775 7.63932 13.4226 7.47512 14.6698C7.31091 15.9171 7.60574 17.1815 8.30466 18.2276C8.85495 19.0511 9.62618 19.6951 10.5224 20.0906C10.5305 20.0942 10.5366 20.0974 10.541 20.1C10.5398 20.1055 10.5379 20.1129 10.5347 20.1224C10.5263 20.1471 10.5122 20.1781 10.4911 20.2171C10.464 20.2671 10.4355 20.3132 10.4033 20.3653C10.3797 20.4036 10.354 20.4451 10.3254 20.4938C10.2652 20.5964 10.2006 20.7183 10.1659 20.8478Z" fill="url(#paint2_linear_2437_87085)" style="mix-blend-mode:lighten"/>
<path d="M10.1659 20.8478L10.1583 20.8759L10.159 20.905L10.2196 23.506C10.1277 23.795 9.82988 23.9498 9.56142 23.8534C7.746 23.2016 6.1798 21.983 5.10088 20.3683C3.8826 18.545 3.3687 16.341 3.65492 14.1669C3.94115 11.9928 5.00798 9.99691 6.65664 8.55107C8.30531 7.10523 10.4234 6.30804 12.6162 6.30804C14.8091 6.30804 16.9271 7.10523 18.5758 8.55107C20.2245 9.99691 21.2913 11.9928 21.5775 14.1669C21.8637 16.341 21.3498 18.545 20.1316 20.3683C19.0526 21.983 17.4864 23.2016 15.671 23.8534C15.4026 23.9498 15.1047 23.795 15.0129 23.506L15.0734 20.905L15.0741 20.8759L15.0666 20.8478C15.0319 20.7183 14.9672 20.5964 14.907 20.4938C14.8784 20.4451 14.8528 20.4036 14.8291 20.3653C14.7969 20.3132 14.7685 20.2671 14.7414 20.2171C14.7203 20.1781 14.7061 20.1471 14.6978 20.1224C14.6946 20.1129 14.6926 20.1055 14.6914 20.1C14.6959 20.0974 14.7019 20.0942 14.71 20.0906C15.6063 19.6951 16.3775 19.0511 16.9278 18.2276C17.6267 17.1815 17.9215 15.9171 17.7573 14.6698C17.5931 13.4226 16.9811 12.2775 16.0352 11.448C15.0894 10.6185 13.8743 10.1612 12.6162 10.1612C11.3582 10.1612 10.143 10.6185 9.19721 11.448C8.25136 12.2775 7.63932 13.4226 7.47512 14.6698C7.31091 15.9171 7.60574 17.1815 8.30466 18.2276C8.85495 19.0511 9.62618 19.6951 10.5224 20.0906C10.5305 20.0942 10.5366 20.0974 10.541 20.1C10.5398 20.1055 10.5379 20.1129 10.5347 20.1224C10.5263 20.1471 10.5122 20.1781 10.4911 20.2171C10.464 20.2671 10.4355 20.3132 10.4033 20.3653C10.3797 20.4036 10.354 20.4451 10.3254 20.4938C10.2652 20.5964 10.2006 20.7183 10.1659 20.8478Z" stroke="url(#paint3_radial_2437_87085)" stroke-width="0.405151"/>
<path d="M28.5975 17.7567V12.1167L29.9775 10.7367H34.1535L35.5095 12.0927V13.3767H33.8775V12.6927L33.3135 12.1287H30.8415L30.2295 12.7407V17.1327L30.8415 17.7447H33.3375L33.9255 17.1567V15.8487H32.1255V14.4567H35.5095V17.7567L34.1295 19.1367H29.9775L28.5975 17.7567ZM36.7069 11.9127V11.1447L37.2589 10.5927H38.0989L38.6509 11.1447V11.9127L38.0989 12.4647H37.2589L36.7069 11.9127ZM36.8869 13.1607H38.4709V19.1367H36.8869V13.1607ZM40.5764 17.9127V14.4927H39.4964V13.1607H40.6004V11.2167H42.1604V13.1607H43.9844V14.5047H42.1604V17.3967L42.5684 17.7927H43.9844V19.1367H41.8124L40.5764 17.9127ZM45.0052 13.1607H46.4692V14.1567L47.4292 13.1607H49.1332V14.5047H47.7532L46.5892 15.7047V19.1367H45.0052V13.1607ZM49.4906 17.8887V14.4087L50.7266 13.1607H54.1586L55.3946 14.4087V17.8887L54.1586 19.1367H50.7266L49.4906 17.8887ZM53.3906 17.8167L53.8106 17.3967V14.9007L53.3906 14.4807H51.4946L51.0746 14.9007V17.3967L51.4946 17.8167H53.3906ZM56.5922 17.8887V14.4087L57.8282 13.1607H61.2602L62.4962 14.4087V17.8887L61.2602 19.1367H57.8282L56.5922 17.8887ZM60.4922 17.8167L60.9122 17.3967V14.9007L60.4922 14.4807H58.5962L58.1762 14.9007V17.3967L58.5962 17.8167H60.4922ZM63.8138 13.1607H65.2778V14.1447L66.2498 13.1607H67.7618L68.5778 13.9887L69.3938 13.1607H71.4818L72.7658 14.4567V19.1367H71.1818V14.9247L70.7738 14.5047H69.7658L69.1298 15.1407V19.1367H67.5938V14.9007L67.2098 14.5047H66.4898L65.3978 15.6087V19.1367H63.8138V13.1607Z" fill="white"/>
<defs>
<linearGradient id="paint0_linear_2437_87085" x1="20.8616" y1="5.16936" x2="28.0199" y2="9.57179" gradientUnits="userSpaceOnUse">
<stop stop-color="white"/>
<stop offset="1" stop-color="#9171ED"/>
</linearGradient>
<linearGradient id="paint1_linear_2437_87085" x1="16.0351" y1="1.71422" x2="21.0476" y2="4.797" gradientUnits="userSpaceOnUse">
<stop stop-color="white"/>
<stop offset="1" stop-color="#9171ED"/>
</linearGradient>
<linearGradient id="paint2_linear_2437_87085" x1="12.6162" y1="6.10547" x2="11.3628" y2="25.6939" gradientUnits="userSpaceOnUse">
<stop stop-color="white"/>
<stop offset="1" stop-color="#3B13D9"/>
</linearGradient>
<radialGradient id="paint3_radial_2437_87085" cx="0" cy="0" r="1" gradientUnits="userSpaceOnUse" gradientTransform="translate(16.036 6.10547) rotate(107.558) scale(24.3422 24.3122)">
<stop stop-color="#E5DDFF"/>
<stop offset="1" stop-color="#3A227D" stop-opacity="0"/>
</radialGradient>
</defs>
</svg>
