<svg width="43" height="42" viewBox="0 0 43 42" fill="none" xmlns="http://www.w3.org/2000/svg">
<path d="M36.1816 23.8128L36.1807 23.8125L29.3032 21.6775L29.301 21.6768C27.2385 21.0466 25.0152 21.5802 23.4989 23.0964C21.9682 24.6272 21.4119 26.868 22.0626 28.9365C22.0628 28.9369 22.0629 28.9373 22.063 28.9376L24.1799 35.7607L24.1802 35.7616C24.2547 36 24.0747 36.25 23.8174 36.25H13.5799C10.6608 36.25 8.38478 35.3804 6.83918 33.8368C5.29368 32.2934 4.41992 30.0176 4.41992 27.09V13.16C4.41992 10.2324 5.29368 7.95662 6.83918 6.41316C8.38478 4.86959 10.6608 4 13.5799 4H27.5099C30.4291 4 32.7051 4.86959 34.2507 6.41316C35.7962 7.95662 36.6699 10.2324 36.6699 13.16V23.45C36.6699 23.7073 36.4199 23.8873 36.1816 23.8128Z" fill="url(#paint0_linear_1003_105552)" stroke="url(#paint1_linear_1003_105552)"/>
<path d="M38.8503 32.9674L35.9978 33.9299C35.2103 34.1924 34.5803 34.8049 34.3178 35.6099L33.3553 38.4624C32.5328 40.9299 29.0678 40.8774 28.2978 38.4099L25.0603 27.9974C24.4303 25.9324 26.3378 24.0074 28.3853 24.6549L38.8153 27.8924C41.2653 28.6624 41.3003 32.1449 38.8503 32.9674Z" fill="url(#paint2_linear_1003_105552)"/>
<path d="M38.723 32.5882L38.7225 32.5884L35.8714 33.5504C35.8712 33.5505 35.871 33.5506 35.8708 33.5506C34.9679 33.8518 34.2417 34.5555 33.9382 35.4839L32.9763 38.3345L32.9759 38.3359C32.2777 40.4305 29.3356 40.392 28.6798 38.291C28.6797 38.2909 28.6797 38.2909 28.6797 38.2908L25.4429 27.8807C25.4428 27.8804 25.4427 27.88 25.4426 27.8797C24.9047 26.1139 26.5338 24.4889 28.2647 25.0363L28.2668 25.0369L38.6954 28.274C38.6956 28.2741 38.6959 28.2742 38.6961 28.2742C40.7733 28.9277 40.808 31.8883 38.723 32.5882Z" stroke="url(#paint3_linear_1003_105552)" stroke-opacity="0.8" stroke-width="0.8"/>
<defs>
<linearGradient id="paint0_linear_1003_105552" x1="9.91992" y1="24.5" x2="29.9825" y2="-30.6607" gradientUnits="userSpaceOnUse">
<stop stop-color="white"/>
<stop offset="1" stop-color="#5CD8FF"/>
</linearGradient>
<linearGradient id="paint1_linear_1003_105552" x1="25.4738" y1="0.211501" x2="12.3684" y2="20.7794" gradientUnits="userSpaceOnUse">
<stop stop-color="white"/>
<stop offset="1" stop-color="white" stop-opacity="0"/>
</linearGradient>
<linearGradient id="paint2_linear_1003_105552" x1="31.8981" y1="26.2053" x2="45.0077" y2="35.4354" gradientUnits="userSpaceOnUse">
<stop stop-color="#4CC9FF"/>
<stop offset="1" stop-color="#0D4CBA"/>
</linearGradient>
<linearGradient id="paint3_linear_1003_105552" x1="32.883" y1="24.0421" x2="49.8834" y2="38.5249" gradientUnits="userSpaceOnUse">
<stop stop-color="white"/>
<stop offset="1" stop-color="#3A227D" stop-opacity="0"/>
</linearGradient>
</defs>
</svg>
