<svg width="19" height="18" viewBox="0 0 19 18" fill="none" xmlns="http://www.w3.org/2000/svg">
<path d="M18.75 11.1211V17.9237H14.7679V11.5359C14.7679 9.95962 14.1872 8.88115 12.7769 8.88115C11.6984 8.88115 11.0348 9.62779 10.7859 10.2915C10.7029 10.5403 10.62 10.8722 10.62 11.287V17.9237H6.63789C6.63789 17.9237 6.72085 7.139 6.63789 6.06052H10.62V7.71972C11.1177 6.89012 12.1132 5.72868 14.1872 5.72868C16.759 5.72868 18.75 7.47083 18.75 11.1211ZM2.48991 0.336304C1.16255 0.336304 0.25 1.24886 0.25 2.4103C0.25 3.57173 1.0796 4.48429 2.40695 4.48429C3.81726 4.48429 4.64686 3.57173 4.64686 2.4103C4.72982 1.1659 3.90022 0.336304 2.48991 0.336304ZM0.498878 17.9237H4.48094V6.06052H0.498878V17.9237Z" fill="white"/>
</svg>
