<svg width="28" height="31" viewBox="0 0 28 31" fill="none" xmlns="http://www.w3.org/2000/svg">
<path d="M27.5968 8.17046C27.9138 7.85347 28.0365 7.47512 27.9343 7.14791C27.832 6.82069 27.515 6.5855 27.0651 6.51392L26.0834 6.35031C26.0425 6.35031 25.9505 6.27873 25.9301 6.23783L25.3881 5.15392C24.9791 4.32565 24.0486 4.32565 23.6395 5.15392L23.0976 6.23783C23.0874 6.27873 22.9953 6.35031 22.9544 6.35031L21.9728 6.51392C21.5228 6.5855 21.2161 6.82069 21.1036 7.14791C21.0013 7.47512 21.124 7.85347 21.441 8.17046L22.1977 8.93738C22.2386 8.96806 22.2693 9.09077 22.2591 9.13167L22.0443 10.0724C21.8807 10.778 22.1466 11.095 22.3204 11.2177C22.4943 11.3404 22.8726 11.504 23.4964 11.1359L24.4167 10.5939C24.4576 10.5632 24.5905 10.5632 24.6314 10.5939L25.5415 11.1359C25.8278 11.3097 26.063 11.3608 26.2471 11.3608C26.4618 11.3608 26.6152 11.279 26.7072 11.2177C26.881 11.095 27.1469 10.778 26.9833 10.0724L26.7686 9.13167C26.7583 9.08054 26.789 8.96806 26.8299 8.93738L27.5968 8.17046Z" fill="url(#paint0_linear_547_54666)"/>
<path d="M20.0461 3.30269C20.2681 3.08071 20.354 2.81578 20.2824 2.58665C20.2108 2.35751 19.9889 2.19282 19.6738 2.1427L18.9864 2.02813C18.9578 2.02813 18.8933 1.97801 18.879 1.94937L18.4995 1.19037C18.2131 0.610373 17.5615 0.610373 17.2751 1.19037L16.8956 1.94937C16.8884 1.97801 16.824 2.02813 16.7953 2.02813L16.1079 2.1427C15.7929 2.19282 15.578 2.35751 15.4993 2.58665C15.4277 2.81578 15.5136 3.08071 15.7356 3.30269L16.2654 3.83972C16.2941 3.8612 16.3156 3.94712 16.3084 3.97577L16.158 4.63452C16.0435 5.12859 16.2296 5.35056 16.3514 5.43649C16.4731 5.52241 16.738 5.63698 17.1748 5.37921L17.8193 4.9997C17.8479 4.97822 17.941 4.97822 17.9696 4.9997L18.6069 5.37921C18.8074 5.50093 18.9721 5.53674 19.101 5.53674C19.2513 5.53674 19.3587 5.47945 19.4232 5.43649C19.5449 5.35056 19.7311 5.12859 19.6165 4.63452L19.4661 3.97577C19.459 3.93996 19.4805 3.8612 19.5091 3.83972L20.0461 3.30269Z" fill="url(#paint1_linear_547_54666)"/>
<path d="M9.17994 26.0313L9.17051 26.0665L9.17136 26.1029L9.24728 29.3639C9.13208 29.7263 8.7587 29.9204 8.42213 29.7995C6.14608 28.9823 4.18248 27.4545 2.8298 25.43C1.30241 23.1441 0.658118 20.3809 1.01697 17.6552C1.37581 14.9295 2.71333 12.4272 4.78032 10.6145C6.8473 8.80177 9.50279 7.80231 12.252 7.80231C15.0013 7.80232 17.6568 8.80177 19.7237 10.6145C21.7907 12.4272 23.1282 14.9295 23.4871 17.6552C23.8459 20.3809 23.2016 23.1441 21.6742 25.43C20.3216 27.4545 18.358 28.9823 16.0819 29.7995C15.7453 29.9204 15.372 29.7263 15.2568 29.3639L15.3327 26.1029L15.3335 26.0665L15.3241 26.0313C15.2806 25.8689 15.1996 25.7161 15.124 25.5874C15.0882 25.5263 15.0561 25.4743 15.0264 25.4263C14.986 25.361 14.9504 25.3033 14.9164 25.2405C14.8899 25.1916 14.8722 25.1527 14.8617 25.1218C14.8577 25.1099 14.8552 25.1006 14.8538 25.0937C14.8594 25.0904 14.867 25.0864 14.8771 25.082C16.0007 24.586 16.9676 23.7787 17.6576 22.7462C18.5338 21.4348 18.9035 19.8495 18.6976 18.2857C18.4917 16.722 17.7244 15.2864 16.5386 14.2465C15.3527 13.2065 13.8293 12.6331 12.252 12.6331C10.6748 12.6331 9.15133 13.2065 7.9655 14.2465C6.77967 15.2864 6.01233 16.722 5.80646 18.2857C5.60059 19.8495 5.97022 21.4348 6.84649 22.7462C7.5364 23.7787 8.50332 24.586 9.62694 25.082C9.63708 25.0864 9.6447 25.0904 9.65029 25.0937C9.6488 25.1006 9.64635 25.1099 9.64232 25.1218C9.63183 25.1527 9.61412 25.1916 9.58763 25.2405C9.55369 25.3033 9.518 25.361 9.47763 25.4263C9.448 25.4743 9.41584 25.5263 9.38 25.5874C9.30449 25.7161 9.22347 25.8689 9.17994 26.0313Z" fill="url(#paint2_linear_547_54666)" style="mix-blend-mode:lighten"/>
<path d="M9.17994 26.0313L9.17051 26.0665L9.17136 26.1029L9.24728 29.3639C9.13208 29.7263 8.7587 29.9204 8.42213 29.7995C6.14608 28.9823 4.18248 27.4545 2.8298 25.43C1.30241 23.1441 0.658118 20.3809 1.01697 17.6552C1.37581 14.9295 2.71333 12.4272 4.78032 10.6145C6.8473 8.80177 9.50279 7.80231 12.252 7.80231C15.0013 7.80232 17.6568 8.80177 19.7237 10.6145C21.7907 12.4272 23.1282 14.9295 23.4871 17.6552C23.8459 20.3809 23.2016 23.1441 21.6742 25.43C20.3216 27.4545 18.358 28.9823 16.0819 29.7995C15.7453 29.9204 15.372 29.7263 15.2568 29.3639L15.3327 26.1029L15.3335 26.0665L15.3241 26.0313C15.2806 25.8689 15.1996 25.7161 15.124 25.5874C15.0882 25.5263 15.0561 25.4743 15.0264 25.4263C14.986 25.361 14.9504 25.3033 14.9164 25.2405C14.8899 25.1916 14.8722 25.1527 14.8617 25.1218C14.8577 25.1099 14.8552 25.1006 14.8538 25.0937C14.8594 25.0904 14.867 25.0864 14.8771 25.082C16.0007 24.586 16.9676 23.7787 17.6576 22.7462C18.5338 21.4348 18.9035 19.8495 18.6976 18.2857C18.4917 16.722 17.7244 15.2864 16.5386 14.2465C15.3527 13.2065 13.8293 12.6331 12.252 12.6331C10.6748 12.6331 9.15133 13.2065 7.9655 14.2465C6.77967 15.2864 6.01233 16.722 5.80646 18.2857C5.60059 19.8495 5.97022 21.4348 6.84649 22.7462C7.5364 23.7787 8.50332 24.586 9.62694 25.082C9.63708 25.0864 9.6447 25.0904 9.65029 25.0937C9.6488 25.1006 9.64635 25.1099 9.64232 25.1218C9.63183 25.1527 9.61412 25.1916 9.58763 25.2405C9.55369 25.3033 9.518 25.361 9.47763 25.4263C9.448 25.4743 9.41584 25.5263 9.38 25.5874C9.30449 25.7161 9.22347 25.8689 9.17994 26.0313Z" stroke="url(#paint3_radial_547_54666)" stroke-width="0.50795"/>
<defs>
<linearGradient id="paint0_linear_547_54666" x1="22.5893" y1="6.37098" x2="31.5639" y2="11.8904" gradientUnits="userSpaceOnUse">
<stop stop-color="white"/>
<stop offset="1" stop-color="#9171ED"/>
</linearGradient>
<linearGradient id="paint1_linear_547_54666" x1="16.5397" y1="2.04261" x2="22.824" y2="5.90759" gradientUnits="userSpaceOnUse">
<stop stop-color="white"/>
<stop offset="1" stop-color="#9171ED"/>
</linearGradient>
<linearGradient id="paint2_linear_547_54666" x1="12.252" y1="7.54834" x2="10.6806" y2="32.107" gradientUnits="userSpaceOnUse">
<stop stop-color="white"/>
<stop offset="1" stop-color="#3B13D9"/>
</linearGradient>
<radialGradient id="paint3_radial_547_54666" cx="0" cy="0" r="1" gradientUnits="userSpaceOnUse" gradientTransform="translate(16.5395 7.54834) rotate(107.558) scale(30.5186 30.4809)">
<stop stop-color="#E5DDFF"/>
<stop offset="1" stop-color="#3A227D" stop-opacity="0"/>
</radialGradient>
</defs>
</svg>
