<svg width="26" height="27" viewBox="0 0 26 27" fill="none" xmlns="http://www.w3.org/2000/svg">
<path d="M24.9385 6.82997C25.23 6.53844 25.3429 6.19048 25.2488 5.88954C25.1548 5.5886 24.8632 5.3723 24.4495 5.30647L23.5466 5.156C23.509 5.156 23.4244 5.09017 23.4056 5.05255L22.9071 4.05569C22.531 3.29394 21.6752 3.29394 21.299 4.05569L20.8006 5.05255C20.7912 5.09017 20.7065 5.156 20.6689 5.156L19.7661 5.30647C19.3523 5.3723 19.0702 5.5886 18.9667 5.88954C18.8727 6.19048 18.9855 6.53844 19.2771 6.82997L19.973 7.5353C20.0106 7.56351 20.0388 7.67636 20.0294 7.71398L19.8319 8.57918C19.6815 9.22808 19.926 9.51961 20.0858 9.63247C20.2457 9.74532 20.5937 9.89579 21.1673 9.55723L22.0137 9.0588C22.0514 9.03059 22.1736 9.03059 22.2112 9.0588L23.0482 9.55723C23.3115 9.7171 23.5278 9.76413 23.6971 9.76413C23.8946 9.76413 24.0357 9.68889 24.1203 9.63247C24.2802 9.51961 24.5247 9.22808 24.3742 8.57918L24.1767 7.71398C24.1673 7.66696 24.1955 7.56351 24.2332 7.5353L24.9385 6.82997Z" fill="url(#paint0_linear_547_55259)"/>
<path d="M17.9942 2.35055C18.1983 2.1464 18.2773 1.90275 18.2115 1.69201C18.1456 1.48128 17.9415 1.32982 17.6517 1.28372L17.0195 1.17836C16.9932 1.17836 16.9339 1.13226 16.9208 1.10592L16.5717 0.407872C16.3083 -0.125541 15.7091 -0.125541 15.4456 0.407872L15.0966 1.10592C15.09 1.13226 15.0308 1.17836 15.0044 1.17836L14.3722 1.28372C14.0825 1.32982 13.8849 1.48128 13.8125 1.69201C13.7466 1.90275 13.8257 2.1464 14.0298 2.35055L14.5171 2.84445C14.5435 2.86421 14.5632 2.94323 14.5566 2.96957L14.4183 3.57542C14.313 4.02981 14.4842 4.23396 14.5961 4.31298C14.7081 4.39201 14.9517 4.49737 15.3535 4.2603L15.9461 3.91128C15.9725 3.89152 16.0581 3.89152 16.0844 3.91128L16.6705 4.2603C16.8549 4.37225 17.0064 4.40518 17.1249 4.40518C17.2632 4.40518 17.362 4.35249 17.4213 4.31298C17.5332 4.23396 17.7044 4.02981 17.5991 3.57542L17.4608 2.96957C17.4542 2.93665 17.4739 2.86421 17.5003 2.84445L17.9942 2.35055Z" fill="url(#paint1_linear_547_55259)"/>
<path d="M8.00081 23.2564L7.99214 23.2887L7.99292 23.3222L8.06275 26.3213C7.9568 26.6546 7.6134 26.8331 7.30386 26.722C5.2106 25.9703 3.4047 24.5652 2.16067 22.7034C0.755939 20.6011 0.163391 18.0598 0.493419 15.553C0.823448 13.0462 2.05354 10.7448 3.95453 9.07769C5.85551 7.41058 8.29773 6.49139 10.8262 6.49139C13.3546 6.49139 15.7968 7.41058 17.6978 9.0777C19.5988 10.7448 20.8289 13.0462 21.1589 15.553C21.489 18.0598 20.8964 20.6011 19.4917 22.7034C18.2476 24.5652 16.4417 25.9703 14.3485 26.722C14.0389 26.8331 13.6955 26.6546 13.5896 26.3213L13.6594 23.3223L13.6602 23.2887L13.6515 23.2564C13.6115 23.107 13.537 22.9665 13.4675 22.8481C13.4346 22.792 13.405 22.7441 13.3778 22.7C13.3406 22.6399 13.3078 22.5868 13.2766 22.5291C13.2522 22.4841 13.2359 22.4484 13.2263 22.4199C13.2226 22.409 13.2203 22.4004 13.219 22.3941C13.2241 22.3911 13.2311 22.3874 13.2404 22.3833C14.2738 21.9272 15.1631 21.1847 15.7976 20.2351C16.6035 19.029 16.9434 17.571 16.7541 16.1329C16.5647 14.6947 15.859 13.3744 14.7684 12.418C13.6778 11.4616 12.2767 10.9342 10.8262 10.9342C9.3756 10.9342 7.9745 11.4616 6.8839 12.418C5.79331 13.3744 5.0876 14.6947 4.89826 16.1329C4.70893 17.571 5.04887 19.029 5.85476 20.2351C6.48927 21.1847 7.37853 21.9272 8.41191 22.3833C8.42124 22.3874 8.42824 22.3911 8.43339 22.3941C8.43202 22.4004 8.42977 22.409 8.42605 22.4199C8.41641 22.4484 8.40012 22.4841 8.37576 22.5291C8.34454 22.5868 8.31172 22.6399 8.27459 22.7C8.24734 22.7441 8.21776 22.792 8.1848 22.8481C8.11535 22.9665 8.04084 23.107 8.00081 23.2564Z" fill="url(#paint2_linear_547_55259)" style="mix-blend-mode:lighten"/>
<path d="M8.00081 23.2564L7.99214 23.2887L7.99292 23.3222L8.06275 26.3213C7.9568 26.6546 7.6134 26.8331 7.30386 26.722C5.2106 25.9703 3.4047 24.5652 2.16067 22.7034C0.755939 20.6011 0.163391 18.0598 0.493419 15.553C0.823448 13.0462 2.05354 10.7448 3.95453 9.07769C5.85551 7.41058 8.29773 6.49139 10.8262 6.49139C13.3546 6.49139 15.7968 7.41058 17.6978 9.0777C19.5988 10.7448 20.8289 13.0462 21.1589 15.553C21.489 18.0598 20.8964 20.6011 19.4917 22.7034C18.2476 24.5652 16.4417 25.9703 14.3485 26.722C14.0389 26.8331 13.6955 26.6546 13.5896 26.3213L13.6594 23.3223L13.6602 23.2887L13.6515 23.2564C13.6115 23.107 13.537 22.9665 13.4675 22.8481C13.4346 22.792 13.405 22.7441 13.3778 22.7C13.3406 22.6399 13.3078 22.5868 13.2766 22.5291C13.2522 22.4841 13.2359 22.4484 13.2263 22.4199C13.2226 22.409 13.2203 22.4004 13.219 22.3941C13.2241 22.3911 13.2311 22.3874 13.2404 22.3833C14.2738 21.9272 15.1631 21.1847 15.7976 20.2351C16.6035 19.029 16.9434 17.571 16.7541 16.1329C16.5647 14.6947 15.859 13.3744 14.7684 12.418C13.6778 11.4616 12.2767 10.9342 10.8262 10.9342C9.3756 10.9342 7.9745 11.4616 6.8839 12.418C5.79331 13.3744 5.0876 14.6947 4.89826 16.1329C4.70893 17.571 5.04887 19.029 5.85476 20.2351C6.48927 21.1847 7.37853 21.9272 8.41191 22.3833C8.42124 22.3874 8.42824 22.3911 8.43339 22.3941C8.43202 22.4004 8.42977 22.409 8.42605 22.4199C8.41641 22.4484 8.40012 22.4841 8.37576 22.5291C8.34454 22.5868 8.31172 22.6399 8.27459 22.7C8.24734 22.7441 8.21776 22.792 8.1848 22.8481C8.11535 22.9665 8.04084 23.107 8.00081 23.2564Z" stroke="url(#paint3_radial_547_55259)" stroke-width="0.467156"/>
<defs>
<linearGradient id="paint0_linear_547_55259" x1="20.3332" y1="5.17501" x2="28.5869" y2="10.2512" gradientUnits="userSpaceOnUse">
<stop stop-color="#ECEAF2"/>
<stop offset="1" stop-color="#430E65"/>
</linearGradient>
<linearGradient id="paint1_linear_547_55259" x1="14.7693" y1="1.19167" x2="20.549" y2="4.74624" gradientUnits="userSpaceOnUse">
<stop stop-color="#ECEAF2"/>
<stop offset="1" stop-color="#430E65"/>
</linearGradient>
<linearGradient id="paint2_linear_547_55259" x1="10.8262" y1="6.25781" x2="9.38091" y2="28.8441" gradientUnits="userSpaceOnUse">
<stop stop-color="white"/>
<stop offset="1" stop-color="#D1D1D1"/>
</linearGradient>
<radialGradient id="paint3_radial_547_55259" cx="0" cy="0" r="1" gradientUnits="userSpaceOnUse" gradientTransform="translate(14.7693 6.25781) rotate(107.558) scale(28.0676 28.033)">
<stop stop-color="#E5DDFF"/>
<stop offset="1" stop-color="#3A227D" stop-opacity="0"/>
</radialGradient>
</defs>
</svg>
