<svg width="29" height="30" viewBox="0 0 29 30" fill="none" xmlns="http://www.w3.org/2000/svg">
<path d="M27.7732 7.9494C28.0905 7.63214 28.2133 7.25348 28.1109 6.92598C28.0086 6.59849 27.6913 6.3631 27.241 6.29147L26.2586 6.12772C26.2176 6.12772 26.1255 6.05608 26.105 6.01514L25.5626 4.93032C25.1533 4.10135 24.222 4.10135 23.8126 4.93032L23.2702 6.01514C23.2599 6.05608 23.1678 6.12772 23.1269 6.12772L22.1444 6.29147C21.6941 6.3631 21.3871 6.59849 21.2745 6.92598C21.1722 7.25348 21.295 7.63214 21.6122 7.9494L22.3696 8.71697C22.4105 8.74767 22.4412 8.87048 22.431 8.91142L22.2161 9.85296C22.0523 10.5591 22.3184 10.8764 22.4924 10.9992C22.6664 11.122 23.045 11.2857 23.6693 10.9173L24.5904 10.3749C24.6313 10.3442 24.7644 10.3442 24.8053 10.3749L25.7161 10.9173C26.0027 11.0913 26.2381 11.1425 26.4223 11.1425C26.6372 11.1425 26.7907 11.0606 26.8828 10.9992C27.0568 10.8764 27.3229 10.5591 27.1592 9.85296L26.9443 8.91142C26.934 8.86024 26.9647 8.74767 27.0057 8.71697L27.7732 7.9494Z" fill="url(#paint0_linear_547_58057)"/>
<path d="M20.2189 3.0729C20.4411 2.85074 20.5271 2.58558 20.4554 2.35625C20.3838 2.12693 20.1616 1.9621 19.8463 1.91193L19.1583 1.79727C19.1296 1.79727 19.0651 1.74711 19.0508 1.71844L18.671 0.958798C18.3843 0.378317 17.7322 0.378317 17.4455 0.958798L17.0657 1.71844C17.0585 1.74711 16.994 1.79727 16.9654 1.79727L16.2774 1.91193C15.9621 1.9621 15.7471 2.12693 15.6682 2.35625C15.5966 2.58558 15.6826 2.85074 15.9047 3.0729L16.4351 3.61038C16.4637 3.63188 16.4852 3.71787 16.4781 3.74654L16.3276 4.40585C16.2129 4.90034 16.3992 5.1225 16.5211 5.20849C16.6429 5.29449 16.908 5.40915 17.3452 5.15116L17.9902 4.77134C18.0188 4.74984 18.112 4.74984 18.1407 4.77134L18.7785 5.15116C18.9791 5.27299 19.144 5.30882 19.273 5.30882C19.4235 5.30882 19.531 5.25149 19.5954 5.20849C19.7173 5.1225 19.9036 4.90034 19.7889 4.40585L19.6384 3.74654C19.6313 3.71071 19.6528 3.63188 19.6814 3.61038L20.2189 3.0729Z" fill="url(#paint1_linear_547_58057)"/>
<path d="M9.34238 25.8227L9.33294 25.8579L9.33378 25.8944L9.40977 29.1581C9.29447 29.5208 8.92078 29.7151 8.58392 29.5941C6.30596 28.7762 4.34071 27.2471 2.9869 25.221C1.45822 22.9331 0.813385 20.1676 1.17253 17.4396C1.53168 14.7116 2.87032 12.2071 4.93905 10.3929C7.00778 8.5787 9.66549 7.57841 12.417 7.57841C15.1686 7.57841 17.8263 8.5787 19.895 10.3929C21.9638 12.2071 23.3024 14.7116 23.6615 17.4396C24.0207 20.1676 23.3759 22.9331 21.8472 25.221C20.4934 27.2471 18.5281 28.7762 16.2502 29.5941C15.9133 29.7151 15.5396 29.5208 15.4243 29.1581L15.5003 25.8944L15.5011 25.8579L15.4917 25.8227C15.4481 25.6601 15.3671 25.5073 15.2915 25.3785C15.2556 25.3173 15.2234 25.2653 15.1938 25.2173C15.1534 25.1519 15.1176 25.0941 15.0837 25.0313C15.0572 24.9823 15.0394 24.9434 15.0289 24.9124C15.0249 24.9005 15.0225 24.8913 15.021 24.8843C15.0266 24.8811 15.0342 24.8771 15.0443 24.8726C16.1689 24.3762 17.1366 23.5682 17.8271 22.5348C18.7041 21.2223 19.0741 19.6357 18.868 18.0707C18.662 16.5056 17.894 15.0688 16.7072 14.028C15.5203 12.9872 13.9956 12.4133 12.417 12.4133C10.8385 12.4133 9.31374 12.9872 8.12691 14.028C6.94008 15.0688 6.1721 16.5056 5.96606 18.0707C5.76001 19.6357 6.12996 21.2223 7.00696 22.5348C7.69745 23.5682 8.66519 24.3762 9.78974 24.8726C9.7999 24.8771 9.80752 24.8811 9.81312 24.8843C9.81163 24.8912 9.80918 24.9005 9.80514 24.9124C9.79464 24.9434 9.77692 24.9823 9.75041 25.0313C9.71644 25.0941 9.68072 25.1519 9.64031 25.2173C9.61065 25.2653 9.57847 25.3173 9.5426 25.3785C9.46702 25.5073 9.38594 25.6601 9.34238 25.8227Z" fill="url(#paint2_linear_547_58057)" style="mix-blend-mode:lighten"/>
<path d="M9.34238 25.8227L9.33294 25.8579L9.33378 25.8944L9.40977 29.1581C9.29447 29.5208 8.92078 29.7151 8.58392 29.5941C6.30596 28.7762 4.34071 27.2471 2.9869 25.221C1.45822 22.9331 0.813385 20.1676 1.17253 17.4396C1.53168 14.7116 2.87032 12.2071 4.93905 10.3929C7.00778 8.5787 9.66549 7.57841 12.417 7.57841C15.1686 7.57841 17.8263 8.5787 19.895 10.3929C21.9638 12.2071 23.3024 14.7116 23.6615 17.4396C24.0207 20.1676 23.3759 22.9331 21.8472 25.221C20.4934 27.2471 18.5281 28.7762 16.2502 29.5941C15.9133 29.7151 15.5396 29.5208 15.4243 29.1581L15.5003 25.8944L15.5011 25.8579L15.4917 25.8227C15.4481 25.6601 15.3671 25.5073 15.2915 25.3785C15.2556 25.3173 15.2234 25.2653 15.1938 25.2173C15.1534 25.1519 15.1176 25.0941 15.0837 25.0313C15.0572 24.9823 15.0394 24.9434 15.0289 24.9124C15.0249 24.9005 15.0225 24.8913 15.021 24.8843C15.0266 24.8811 15.0342 24.8771 15.0443 24.8726C16.1689 24.3762 17.1366 23.5682 17.8271 22.5348C18.7041 21.2223 19.0741 19.6357 18.868 18.0707C18.662 16.5056 17.894 15.0688 16.7072 14.028C15.5203 12.9872 13.9956 12.4133 12.417 12.4133C10.8385 12.4133 9.31374 12.9872 8.12691 14.028C6.94008 15.0688 6.1721 16.5056 5.96606 18.0707C5.76001 19.6357 6.12996 21.2223 7.00696 22.5348C7.69745 23.5682 8.66519 24.3762 9.78974 24.8726C9.7999 24.8771 9.80752 24.8811 9.81312 24.8843C9.81163 24.8912 9.80918 24.9005 9.80514 24.9124C9.79464 24.9434 9.77692 24.9823 9.75041 25.0313C9.71644 25.0941 9.68072 25.1519 9.64031 25.2173C9.61065 25.2653 9.57847 25.3173 9.5426 25.3785C9.46702 25.5073 9.38594 25.6601 9.34238 25.8227Z" stroke="url(#paint3_radial_547_58057)" stroke-width="0.508377"/>
<defs>
<linearGradient id="paint0_linear_547_58057" x1="22.7615" y1="6.14841" x2="31.7436" y2="11.6725" gradientUnits="userSpaceOnUse">
<stop stop-color="white"/>
<stop offset="1" stop-color="#9171ED"/>
</linearGradient>
<linearGradient id="paint1_linear_547_58057" x1="16.7095" y1="1.81176" x2="22.9992" y2="5.67999" gradientUnits="userSpaceOnUse">
<stop stop-color="white"/>
<stop offset="1" stop-color="#9171ED"/>
</linearGradient>
<linearGradient id="paint2_linear_547_58057" x1="12.417" y1="7.32422" x2="10.8443" y2="31.9035" gradientUnits="userSpaceOnUse">
<stop stop-color="white"/>
<stop offset="1" stop-color="#59C4FF"/>
</linearGradient>
<radialGradient id="paint3_radial_547_58057" cx="0" cy="0" r="1" gradientUnits="userSpaceOnUse" gradientTransform="translate(16.7081 7.32422) rotate(107.558) scale(30.5442 30.5066)">
<stop stop-color="#E5DDFF"/>
<stop offset="1" stop-color="#3A227D" stop-opacity="0"/>
</radialGradient>
</defs>
</svg>
