<svg width="31" height="32" viewBox="0 0 31 32" fill="none" xmlns="http://www.w3.org/2000/svg">
<path d="M30.1469 6.76259C30.4936 6.41591 30.6278 6.00213 30.516 5.64427C30.4041 5.28641 30.0574 5.0292 29.5654 4.95092L28.4918 4.77199C28.4471 4.77199 28.3464 4.6937 28.3241 4.64897L27.7314 3.46356C27.284 2.55772 26.2664 2.55772 25.819 3.46356L25.2263 4.64897C25.2151 4.6937 25.1145 4.77199 25.0698 4.77199L23.9962 4.95092C23.5041 5.0292 23.1686 5.28641 23.0456 5.64427C22.9338 6.00213 23.068 6.41591 23.4147 6.76259L24.2422 7.60132C24.2869 7.63487 24.3205 7.76907 24.3093 7.8138L24.0745 8.84265C23.8955 9.61429 24.1863 9.96097 24.3764 10.0952C24.5665 10.2294 24.9803 10.4083 25.6625 10.0057L26.6689 9.41299C26.7137 9.37944 26.8591 9.37944 26.9038 9.41299L27.8991 10.0057C28.2122 10.1958 28.4694 10.2517 28.6707 10.2517C28.9056 10.2517 29.0733 10.1623 29.174 10.0952C29.3641 9.96097 29.6549 9.61429 29.4759 8.84265L29.2411 7.8138C29.2299 7.75789 29.2634 7.63487 29.3082 7.60132L30.1469 6.76259Z" fill="url(#paint0_linear_295_19621)"/>
<path d="M20.5012 2.82346C20.744 2.5807 20.8379 2.29095 20.7596 2.04036C20.6813 1.78977 20.4386 1.60966 20.094 1.55484L19.3422 1.42955C19.3109 1.42955 19.2404 1.37473 19.2248 1.34341L18.8097 0.513328C18.4965 -0.120979 17.7839 -0.120979 17.4706 0.513328L17.0556 1.34341C17.0478 1.37473 16.9773 1.42955 16.946 1.42955L16.1942 1.55484C15.8496 1.60966 15.6147 1.78977 15.5286 2.04036C15.4503 2.29095 15.5442 2.5807 15.787 2.82346L16.3665 3.41078C16.3978 3.43427 16.4213 3.52824 16.4135 3.55957L16.249 4.28001C16.1237 4.82035 16.3273 5.06311 16.4604 5.15708C16.5936 5.25105 16.8833 5.37635 17.361 5.09443L18.0658 4.67939C18.0971 4.6559 18.1989 4.6559 18.2302 4.67939L18.9272 5.09443C19.1465 5.22756 19.3266 5.26671 19.4675 5.26671C19.632 5.26671 19.7494 5.20407 19.8199 5.15708C19.9531 5.06311 20.1567 4.82035 20.0314 4.28001L19.8669 3.55957C19.8591 3.52041 19.8826 3.43427 19.9139 3.41078L20.5012 2.82346Z" fill="url(#paint1_linear_295_19621)"/>
<path d="M9.0963 26.9302L9.07773 26.9995L9.0794 27.0712L9.1615 30.5975C9.05974 30.8628 8.78618 30.9819 8.55729 30.8997C6.11274 30.0219 4.00377 28.381 2.55096 26.2067C0.910488 23.7516 0.218496 20.7838 0.603911 17.8562C0.989327 14.9287 2.42586 12.2412 4.64587 10.2943C6.86589 8.34737 9.71797 7.27393 12.6707 7.27393C15.6235 7.27393 18.4756 8.34737 20.6956 10.2943C22.9156 12.2412 24.3522 14.9287 24.7376 17.8563C25.123 20.7838 24.431 23.7516 22.7905 26.2067C21.3377 28.381 19.2287 30.0219 16.7842 30.8997C16.5553 30.9819 16.2817 30.8628 16.18 30.5975L16.2621 27.0712L16.2637 26.9995L16.2452 26.9302C16.1895 26.7226 16.0883 26.5344 16.0034 26.3898C15.9579 26.3122 15.9214 26.2533 15.8893 26.2016C15.8604 26.1551 15.8352 26.1143 15.8102 26.071C17.0012 25.5067 18.026 24.6278 18.7673 23.5184C19.7555 22.0394 20.1724 20.2515 19.9402 18.4878C19.7081 16.7242 18.8426 15.1051 17.5052 13.9322C16.1678 12.7593 14.4496 12.1127 12.6707 12.1127C10.8919 12.1127 9.17369 12.7593 7.83627 13.9322C6.49885 15.1051 5.63343 16.7242 5.40124 18.4878C5.16905 20.2515 5.58593 22.0394 6.57421 23.5184C7.31548 24.6278 8.34027 25.5067 9.53127 26.071C9.50628 26.1143 9.48102 26.1551 9.45216 26.2016C9.4201 26.2534 9.3836 26.3122 9.33808 26.3898C9.25321 26.5344 9.15193 26.7226 9.0963 26.9302Z" fill="url(#paint2_linear_295_19621)" fill-opacity="0.8" style="mix-blend-mode:lighten"/>
<path d="M9.0963 26.9302L9.07773 26.9995L9.0794 27.0712L9.1615 30.5975C9.05974 30.8628 8.78618 30.9819 8.55729 30.8997C6.11274 30.0219 4.00377 28.381 2.55096 26.2067C0.910488 23.7516 0.218496 20.7838 0.603911 17.8562C0.989327 14.9287 2.42586 12.2412 4.64587 10.2943C6.86589 8.34737 9.71797 7.27393 12.6707 7.27393C15.6235 7.27393 18.4756 8.34737 20.6956 10.2943C22.9156 12.2412 24.3522 14.9287 24.7376 17.8563C25.123 20.7838 24.431 23.7516 22.7905 26.2067C21.3377 28.381 19.2287 30.0219 16.7842 30.8997C16.5553 30.9819 16.2817 30.8628 16.18 30.5975L16.2621 27.0712L16.2637 26.9995L16.2452 26.9302C16.1895 26.7226 16.0883 26.5344 16.0034 26.3898C15.9579 26.3122 15.9214 26.2533 15.8893 26.2016C15.8604 26.1551 15.8352 26.1143 15.8102 26.071C17.0012 25.5067 18.026 24.6278 18.7673 23.5184C19.7555 22.0394 20.1724 20.2515 19.9402 18.4878C19.7081 16.7242 18.8426 15.1051 17.5052 13.9322C16.1678 12.7593 14.4496 12.1127 12.6707 12.1127C10.8919 12.1127 9.17369 12.7593 7.83627 13.9322C6.49885 15.1051 5.63343 16.7242 5.40124 18.4878C5.16905 20.2515 5.58593 22.0394 6.57421 23.5184C7.31548 24.6278 8.34027 25.5067 9.53127 26.071C9.50628 26.1143 9.48102 26.1551 9.45216 26.2016C9.4201 26.2534 9.3836 26.3122 9.33808 26.3898C9.25321 26.5344 9.15193 26.7226 9.0963 26.9302Z" stroke="url(#paint3_radial_295_19621)"/>
<defs>
<linearGradient id="paint0_linear_295_19621" x1="24.6705" y1="4.79459" x2="34.4854" y2="10.8309" gradientUnits="userSpaceOnUse">
<stop stop-color="white"/>
<stop offset="1" stop-color="#9171ED"/>
</linearGradient>
<linearGradient id="paint1_linear_295_19621" x1="16.6664" y1="1.44538" x2="23.5393" y2="5.67229" gradientUnits="userSpaceOnUse">
<stop stop-color="white"/>
<stop offset="1" stop-color="#9171ED"/>
</linearGradient>
<linearGradient id="paint2_linear_295_19621" x1="12.6707" y1="6.77393" x2="10.9521" y2="33.6324" gradientUnits="userSpaceOnUse">
<stop stop-color="#9378FF"/>
<stop offset="1" stop-color="#6648DE"/>
</linearGradient>
<radialGradient id="paint3_radial_295_19621" cx="0" cy="0" r="1" gradientUnits="userSpaceOnUse" gradientTransform="translate(17.3597 6.77392) rotate(107.558) scale(33.3765 33.3353)">
<stop stop-color="#E5DDFF"/>
<stop offset="1" stop-color="#3A227D" stop-opacity="0"/>
</radialGradient>
</defs>
</svg>
