<svg width="68" height="68" viewBox="0 0 68 68" fill="none" xmlns="http://www.w3.org/2000/svg">
<path d="M59.4129 17.657C59.9122 17.1578 60.1054 16.5619 59.9444 16.0466C59.7833 15.5312 59.2841 15.1608 58.5755 15.048L57.0294 14.7904C56.965 14.7904 56.82 14.6776 56.7878 14.6132L55.9343 12.9061C55.2901 11.6016 53.8245 11.6016 53.1803 12.9061L52.3268 14.6132C52.3107 14.6776 52.1657 14.7904 52.1013 14.7904L50.5553 15.048C49.8466 15.1608 49.3635 15.5312 49.1863 16.0466C49.0253 16.5619 49.2186 17.1578 49.7178 17.657L50.9096 18.8649C50.974 18.9132 51.0223 19.1065 51.0062 19.1709L50.668 20.6525C50.4103 21.7638 50.829 22.263 51.1028 22.4563C51.3766 22.6495 51.9725 22.9072 52.9549 22.3274L54.4043 21.4739C54.4687 21.4256 54.6781 21.4256 54.7425 21.4739L56.1758 22.3274C56.6268 22.6012 56.9972 22.6817 57.2871 22.6817C57.6253 22.6817 57.8669 22.5529 58.0118 22.4563C58.2856 22.263 58.7043 21.7638 58.4466 20.6525L58.1084 19.1709C58.0923 19.0904 58.1406 18.9132 58.2051 18.8649L59.4129 17.657Z" fill="url(#paint0_linear_544_78913)"/>
<path d="M45.5227 11.9846C45.8723 11.635 46.0076 11.2177 45.8949 10.8568C45.7821 10.496 45.4325 10.2366 44.9363 10.1576L43.8537 9.9772C43.8086 9.9772 43.7071 9.89826 43.6845 9.85315L43.0868 8.65776C42.6357 7.74429 41.6095 7.74429 41.1584 8.65776L40.5607 9.85315C40.5494 9.89826 40.4479 9.9772 40.4028 9.9772L39.3202 10.1576C38.824 10.2366 38.4857 10.496 38.3616 10.8568C38.2488 11.2177 38.3842 11.635 38.7338 11.9846L39.5683 12.8304C39.6134 12.8642 39.6472 12.9995 39.6359 13.0446L39.3991 14.0822C39.2187 14.8603 39.5119 15.2099 39.7036 15.3452C39.8953 15.4805 40.3126 15.661 41.0005 15.255L42.0155 14.6573C42.0606 14.6235 42.2072 14.6235 42.2523 14.6573L43.256 15.255C43.5717 15.4467 43.8311 15.5031 44.0341 15.5031C44.2709 15.5031 44.4401 15.4129 44.5416 15.3452C44.7333 15.2099 45.0265 14.8603 44.8461 14.0822L44.6093 13.0446C44.598 12.9883 44.6318 12.8642 44.6769 12.8304L45.5227 11.9846Z" fill="url(#paint1_linear_544_78913)"/>
<path d="M29.4091 46.7837L29.3942 46.8391L29.3956 46.8965L29.5151 52.0324C29.3337 52.6032 28.7456 52.9089 28.2155 52.7185C24.6309 51.4313 21.5383 49.0251 19.4079 45.8368C17.0023 42.2365 15.9876 37.8846 16.5527 33.5917C17.1179 29.2988 19.2244 25.3578 22.4799 22.5028C25.7353 19.6479 29.9175 18.0738 34.2475 18.0738C38.5774 18.0738 42.7597 19.6479 46.0151 22.5029C49.2705 25.3578 51.377 29.2988 51.9422 33.5917C52.5074 37.8846 51.4927 42.2366 49.0871 45.8368C46.9567 49.0251 43.8641 51.4313 40.2794 52.7185C39.7493 52.9089 39.1612 52.6032 38.9798 52.0324L39.0994 46.8965L39.1007 46.8391L39.0859 46.7837C39.0173 46.5279 38.8897 46.2873 38.7708 46.0846C38.7143 45.9884 38.6637 45.9065 38.617 45.8309C38.5535 45.728 38.4972 45.6371 38.4438 45.5383C38.4021 45.4612 38.3742 45.4 38.3577 45.3513C38.3513 45.3325 38.3474 45.3179 38.3451 45.307C38.3539 45.3019 38.3659 45.2956 38.3819 45.2885C40.1515 44.5075 41.6744 43.236 42.761 41.6098C44.141 39.5443 44.7232 37.0476 44.399 34.5848C44.0747 32.122 42.8662 29.861 40.9986 28.2231C39.1309 26.5852 36.7316 25.6822 34.2475 25.6822C31.7634 25.6822 29.364 26.5852 27.4964 28.2231C25.6287 29.861 24.4202 32.122 24.096 34.5848C23.7717 37.0476 24.3539 39.5443 25.734 41.6098C26.8206 43.236 28.3434 44.5075 30.1131 45.2885C30.1291 45.2956 30.141 45.3019 30.1499 45.307C30.1475 45.3179 30.1437 45.3325 30.1373 45.3513C30.1208 45.4 30.0929 45.4612 30.0512 45.5383C29.9977 45.6371 29.9415 45.728 29.8779 45.8309C29.8312 45.9065 29.7806 45.9884 29.7242 46.0846C29.6052 46.2873 29.4776 46.5279 29.4091 46.7837Z" fill="url(#paint2_linear_544_78913)" fill-opacity="0.8" style="mix-blend-mode:lighten"/>
<path d="M29.4091 46.7837L29.3942 46.8391L29.3956 46.8965L29.5151 52.0324C29.3337 52.6032 28.7456 52.9089 28.2155 52.7185C24.6309 51.4313 21.5383 49.0251 19.4079 45.8368C17.0023 42.2365 15.9876 37.8846 16.5527 33.5917C17.1179 29.2988 19.2244 25.3578 22.4799 22.5028C25.7353 19.6479 29.9175 18.0738 34.2475 18.0738C38.5774 18.0738 42.7597 19.6479 46.0151 22.5029C49.2705 25.3578 51.377 29.2988 51.9422 33.5917C52.5074 37.8846 51.4927 42.2366 49.0871 45.8368C46.9567 49.0251 43.8641 51.4313 40.2794 52.7185C39.7493 52.9089 39.1612 52.6032 38.9798 52.0324L39.0994 46.8965L39.1007 46.8391L39.0859 46.7837C39.0173 46.5279 38.8897 46.2873 38.7708 46.0846C38.7143 45.9884 38.6637 45.9065 38.617 45.8309C38.5535 45.728 38.4972 45.6371 38.4438 45.5383C38.4021 45.4612 38.3742 45.4 38.3577 45.3513C38.3513 45.3325 38.3474 45.3179 38.3451 45.307C38.3539 45.3019 38.3659 45.2956 38.3819 45.2885C40.1515 44.5075 41.6744 43.236 42.761 41.6098C44.141 39.5443 44.7232 37.0476 44.399 34.5848C44.0747 32.122 42.8662 29.861 40.9986 28.2231C39.1309 26.5852 36.7316 25.6822 34.2475 25.6822C31.7634 25.6822 29.364 26.5852 27.4964 28.2231C25.6287 29.861 24.4202 32.122 24.096 34.5848C23.7717 37.0476 24.3539 39.5443 25.734 41.6098C26.8206 43.236 28.3434 44.5075 30.1131 45.2885C30.1291 45.2956 30.141 45.3019 30.1499 45.307C30.1475 45.3179 30.1437 45.3325 30.1373 45.3513C30.1208 45.4 30.0929 45.4612 30.0512 45.5383C29.9977 45.6371 29.9415 45.728 29.8779 45.8309C29.8312 45.9065 29.7806 45.9884 29.7242 46.0846C29.6052 46.2873 29.4776 46.5279 29.4091 46.7837Z" stroke="url(#paint3_radial_544_78913)" stroke-width="0.8"/>
<defs>
<linearGradient id="paint0_linear_544_78913" x1="51.5263" y1="14.8229" x2="65.6608" y2="23.5159" gradientUnits="userSpaceOnUse">
<stop stop-color="white"/>
<stop offset="1" stop-color="#9171ED"/>
</linearGradient>
<linearGradient id="paint1_linear_544_78913" x1="40.0002" y1="10" x2="49.8978" y2="16.0872" gradientUnits="userSpaceOnUse">
<stop stop-color="white"/>
<stop offset="1" stop-color="#9171ED"/>
</linearGradient>
<linearGradient id="paint2_linear_544_78913" x1="34.2475" y1="17.6738" x2="31.7725" y2="56.3527" gradientUnits="userSpaceOnUse">
<stop stop-color="#9378FF"/>
<stop offset="1" stop-color="#6648DE"/>
</linearGradient>
<radialGradient id="paint3_radial_544_78913" cx="0" cy="0" r="1" gradientUnits="userSpaceOnUse" gradientTransform="translate(41 17.6738) rotate(107.558) scale(48.0655 48.0062)">
<stop stop-color="#E5DDFF"/>
<stop offset="1" stop-color="#3A227D" stop-opacity="0"/>
</radialGradient>
</defs>
</svg>
