<svg width="43" height="42" viewBox="0 0 43 42" fill="none" xmlns="http://www.w3.org/2000/svg">
<g clip-path="url(#clip0_1003_105564)">
<path d="M11.8439 34.104L11.8376 34.1102L11.8316 34.1167C11.0858 34.9172 10.4 35.4207 9.80927 35.6757C9.22344 35.9287 8.76115 35.9269 8.4074 35.7745C8.04999 35.6206 7.71054 35.273 7.45552 34.6477C7.19983 34.0207 7.04492 33.1485 7.04492 32.025V12.32C7.04492 8.78612 7.46929 6.77215 8.55942 5.6069C9.63846 4.45352 11.4984 4 14.8049 4H28.0349C31.3416 4 33.2012 4.4536 34.2779 5.60658C35.3657 6.77133 35.7862 8.78482 35.7774 12.3188V12.32V32.0075C35.7774 33.1313 35.6235 34.0038 35.369 34.6309C35.1151 35.2565 34.7771 35.6036 34.4212 35.7572C34.0689 35.9092 33.6073 35.9113 33.0203 35.6581C32.4285 35.4029 31.7404 34.8993 30.9902 34.0985C30.1787 33.2281 29.1324 32.8078 28.0909 32.8645C27.0493 32.9212 26.0548 33.4526 25.3424 34.4025L25.3421 34.403L23.5763 36.7632C23.5759 36.7636 23.5756 36.7641 23.5753 36.7645C22.9469 37.5939 22.1594 37.9694 21.4112 37.9694C20.6629 37.9694 19.8754 37.5939 19.2471 36.7645C19.2467 36.7641 19.2464 36.7636 19.2461 36.7632L17.4804 34.4032C16.052 32.4919 13.5027 32.3507 11.8563 34.0915L11.8439 34.104ZM11.7849 19.25C11.7849 20.4886 12.7963 21.5 14.0349 21.5C15.2736 21.5 16.2849 20.4886 16.2849 19.25C16.2849 18.0114 15.2736 17 14.0349 17C12.7963 17 11.7849 18.0114 11.7849 19.25ZM11.7849 12.25C11.7849 13.4886 12.7963 14.5 14.0349 14.5C15.2736 14.5 16.2849 13.4886 16.2849 12.25C16.2849 11.0114 15.2736 10 14.0349 10C12.7963 10 11.7849 11.0114 11.7849 12.25ZM19.1974 21.0625H28.8224C29.8161 21.0625 30.6349 20.2436 30.6349 19.25C30.6349 18.2564 29.8161 17.4375 28.8224 17.4375H19.1974C18.2038 17.4375 17.3849 18.2564 17.3849 19.25C17.3849 20.2436 18.2038 21.0625 19.1974 21.0625ZM19.1974 14.0625H28.8224C29.8161 14.0625 30.6349 13.2436 30.6349 12.25C30.6349 11.2564 29.8161 10.4375 28.8224 10.4375H19.1974C18.2038 10.4375 17.3849 11.2564 17.3849 12.25C17.3849 13.2436 18.2038 14.0625 19.1974 14.0625Z" fill="url(#paint0_linear_1003_105564)" stroke="url(#paint1_linear_1003_105564)"/>
</g>
<defs>
<linearGradient id="paint0_linear_1003_105564" x1="21.4199" y1="21" x2="40.0048" y2="-15.0908" gradientUnits="userSpaceOnUse">
<stop stop-color="white"/>
<stop offset="1" stop-color="#CB42FB"/>
</linearGradient>
<linearGradient id="paint1_linear_1003_105564" x1="25.8187" y1="0.0414511" x2="11.2234" y2="19.5174" gradientUnits="userSpaceOnUse">
<stop stop-color="white"/>
<stop offset="1" stop-color="white" stop-opacity="0"/>
</linearGradient>
<clipPath id="clip0_1003_105564">
<rect width="42" height="42" fill="white" transform="translate(0.419922)"/>
</clipPath>
</defs>
</svg>
