<svg width="126" height="128" viewBox="0 0 126 128" fill="none" xmlns="http://www.w3.org/2000/svg">
<g filter="url(#filter0_d_2284_26427)">
<path d="M64.6461 41.0525C63.8944 40.3009 62.5928 40.8142 62.5928 41.8592V48.2575C62.5928 50.9342 64.8661 53.1525 67.6344 53.1525C69.3761 53.1709 71.7961 53.1709 73.8678 53.1709C74.9128 53.1709 75.4628 51.9425 74.7294 51.2092C72.0894 48.5509 67.3594 43.7659 64.6461 41.0525Z" fill="#D3C7FF"/>
<path d="M67.6397 52.6526L67.6397 52.6525H67.6344C65.129 52.6525 63.0928 50.645 63.0928 48.2575V41.8592C63.0928 41.2907 63.8338 40.9473 64.2926 41.4061C66.1236 43.2372 68.873 46.0116 71.279 48.4396C72.4374 49.6085 73.5162 50.6971 74.3747 51.5615L74.3759 51.5628C74.7649 51.9518 74.5092 52.6709 73.8678 52.6709C71.7951 52.6709 69.3781 52.6709 67.6397 52.6526ZM73.8678 53.1709C74.9128 53.1709 75.4628 51.9425 74.7294 51.2092C73.8718 50.3456 72.7936 49.2576 71.6356 48.089C69.2291 45.6606 66.478 42.8844 64.6461 41.0525C63.8944 40.3009 62.5928 40.8142 62.5928 41.8592V48.2575C62.5928 50.9342 64.8661 53.1525 67.6344 53.1525C69.376 53.1709 71.7959 53.1709 73.8674 53.1709H73.8678Z" stroke="url(#paint0_linear_2284_26427)"/>
</g>
<g filter="url(#filter1_d_2284_26427)">
<path d="M73.2646 55.683H67.9663C63.6213 55.683 60.083 52.1446 60.083 47.7996V42.5013C60.083 41.493 59.258 40.668 58.2496 40.668H50.4763C44.8296 40.668 40.2646 44.3346 40.2646 50.8796V67.123C40.2646 73.668 44.8296 77.3346 50.4763 77.3346H64.8863C70.533 77.3346 75.098 73.668 75.098 67.123V57.5163C75.098 56.508 74.273 55.683 73.2646 55.683ZM56.7646 69.543H49.4313C48.6796 69.543 48.0563 68.9196 48.0563 68.168C48.0563 67.4163 48.6796 66.793 49.4313 66.793H56.7646C57.5163 66.793 58.1396 67.4163 58.1396 68.168C58.1396 68.9196 57.5163 69.543 56.7646 69.543ZM60.4313 62.2096H49.4313C48.6796 62.2096 48.0563 61.5863 48.0563 60.8346C48.0563 60.083 48.6796 59.4596 49.4313 59.4596H60.4313C61.183 59.4596 61.8063 60.083 61.8063 60.8346C61.8063 61.5863 61.183 62.2096 60.4313 62.2096Z" fill="url(#paint1_linear_2284_26427)"/>
<path d="M67.9663 56.183H73.2646C73.9968 56.183 74.598 56.7841 74.598 57.5163V67.123C74.598 70.2728 73.5031 72.6885 71.7673 74.3187C70.0266 75.9536 67.6025 76.8346 64.8863 76.8346H50.4763C47.7601 76.8346 45.336 75.9536 43.5953 74.3187C41.8595 72.6885 40.7646 70.2728 40.7646 67.123V50.8796C40.7646 47.7298 41.8595 45.3141 43.5953 43.6839C45.336 42.049 47.7601 41.168 50.4763 41.168H58.2496C58.9818 41.168 59.583 41.7691 59.583 42.5013V47.7996C59.583 52.4208 63.3452 56.183 67.9663 56.183ZM49.4313 70.043H56.7646C57.7925 70.043 58.6396 69.1958 58.6396 68.168C58.6396 67.1402 57.7925 66.293 56.7646 66.293H49.4313C48.4035 66.293 47.5563 67.1402 47.5563 68.168C47.5563 69.1958 48.4035 70.043 49.4313 70.043ZM49.4313 62.7096H60.4313C61.4591 62.7096 62.3063 61.8624 62.3063 60.8346C62.3063 59.8068 61.4591 58.9596 60.4313 58.9596H49.4313C48.4035 58.9596 47.5563 59.8068 47.5563 60.8346C47.5563 61.8624 48.4035 62.7096 49.4313 62.7096Z" stroke="url(#paint2_linear_2284_26427)"/>
</g>
<defs>
<filter id="filter0_d_2284_26427" x="22.5928" y="0.695312" width="102.472" height="102.476" filterUnits="userSpaceOnUse" color-interpolation-filters="sRGB">
<feFlood flood-opacity="0" result="BackgroundImageFix"/>
<feColorMatrix in="SourceAlpha" type="matrix" values="0 0 0 0 0 0 0 0 0 0 0 0 0 0 0 0 0 0 127 0" result="hardAlpha"/>
<feOffset dx="5" dy="5"/>
<feGaussianBlur stdDeviation="22.5"/>
<feComposite in2="hardAlpha" operator="out"/>
<feColorMatrix type="matrix" values="0 0 0 0 0.486275 0 0 0 0 0.388235 0 0 0 0 0.890196 0 0 0 0.6 0"/>
<feBlend mode="normal" in2="BackgroundImageFix" result="effect1_dropShadow_2284_26427"/>
<feBlend mode="normal" in="SourceGraphic" in2="effect1_dropShadow_2284_26427" result="shape"/>
</filter>
<filter id="filter1_d_2284_26427" x="0.264648" y="0.667969" width="124.833" height="126.667" filterUnits="userSpaceOnUse" color-interpolation-filters="sRGB">
<feFlood flood-opacity="0" result="BackgroundImageFix"/>
<feColorMatrix in="SourceAlpha" type="matrix" values="0 0 0 0 0 0 0 0 0 0 0 0 0 0 0 0 0 0 127 0" result="hardAlpha"/>
<feOffset dx="5" dy="5"/>
<feGaussianBlur stdDeviation="22.5"/>
<feComposite in2="hardAlpha" operator="out"/>
<feColorMatrix type="matrix" values="0 0 0 0 0.486275 0 0 0 0 0.388235 0 0 0 0 0.890196 0 0 0 0.6 0"/>
<feBlend mode="normal" in2="BackgroundImageFix" result="effect1_dropShadow_2284_26427"/>
<feBlend mode="normal" in="SourceGraphic" in2="effect1_dropShadow_2284_26427" result="shape"/>
</filter>
<linearGradient id="paint0_linear_2284_26427" x1="62.5928" y1="39.8128" x2="72.161" y2="49.3467" gradientUnits="userSpaceOnUse">
<stop stop-color="white"/>
<stop offset="1" stop-color="white" stop-opacity="0"/>
</linearGradient>
<linearGradient id="paint1_linear_2284_26427" x1="42.6875" y1="70.5483" x2="62.534" y2="42.8016" gradientUnits="userSpaceOnUse">
<stop stop-color="white"/>
<stop offset="1" stop-color="#B6A3FF"/>
</linearGradient>
<linearGradient id="paint2_linear_2284_26427" x1="40.2646" y1="38.0742" x2="68.3446" y2="64.6615" gradientUnits="userSpaceOnUse">
<stop stop-color="white"/>
<stop offset="1" stop-color="white" stop-opacity="0"/>
</linearGradient>
</defs>
</svg>
