<svg width="68" height="68" viewBox="0 0 68 68" fill="none" xmlns="http://www.w3.org/2000/svg">
<path d="M31.3035 15.5012C32.737 14.292 34.8334 14.292 36.2668 15.5012L52.3683 29.084C54.0911 30.5374 54.2019 33.1536 52.6081 34.7474L36.5067 50.8488C35.0036 52.3518 32.5667 52.3518 31.0636 50.8488L14.9622 34.7474C13.3684 33.1536 13.4792 30.5374 15.2021 29.084L31.3035 15.5012Z" fill="url(#paint0_linear_544_78890)"/>
<path d="M31.6259 15.8834C32.8731 14.8312 34.6972 14.8312 35.9445 15.8834L52.0459 29.4662C53.5449 30.7307 53.6413 33.0071 52.2545 34.3938L36.1531 50.4952C34.8453 51.803 32.725 51.803 31.4172 50.4952L15.3158 34.3938C13.929 33.0071 14.0254 30.7307 15.5245 29.4662L31.6259 15.8834Z" stroke="url(#paint1_linear_544_78890)" stroke-opacity="0.1"/>
<path d="M31.6259 15.8834C32.8731 14.8312 34.6972 14.8312 35.9445 15.8834L52.0459 29.4662C53.5449 30.7307 53.6413 33.0071 52.2545 34.3938L36.1531 50.4952C34.8453 51.803 32.725 51.803 31.4172 50.4952L15.3158 34.3938C13.929 33.0071 14.0254 30.7307 15.5245 29.4662L31.6259 15.8834Z" stroke="url(#paint2_linear_544_78890)" stroke-opacity="0.1"/>
<rect x="20.8916" y="14.6089" width="25.7889" height="38.4612" rx="4.31102" fill="url(#paint3_linear_544_78890)" stroke="url(#paint4_linear_544_78890)"/>
<rect x="24.6318" y="20.041" width="18.2268" height="3.11662" rx="1.55831" fill="url(#paint5_linear_544_78890)" stroke="url(#paint6_linear_544_78890)" stroke-width="0.5"/>
<rect x="24.6318" y="25.7485" width="18.2268" height="3.11662" rx="1.55831" fill="url(#paint7_linear_544_78890)" stroke="url(#paint8_linear_544_78890)" stroke-width="0.5"/>
<rect x="24.6318" y="31.4561" width="18.2268" height="3.11662" rx="1.55831" fill="url(#paint9_linear_544_78890)" stroke="url(#paint10_linear_544_78890)" stroke-width="0.5"/>
<path d="M13.834 31.7852L33.8 43.3317L53.7659 31.7852V53.2839C53.7659 55.493 51.9751 57.2839 49.7659 57.2839H17.834C15.6248 57.2839 13.834 55.493 13.834 53.2839V31.7852Z" fill="url(#paint11_linear_544_78890)"/>
<path d="M34.0002 43.678L53.3659 32.4786V53.2839C53.3659 55.2721 51.7541 56.8839 49.7659 56.8839H17.834C15.8458 56.8839 14.234 55.2721 14.234 53.2839V32.4786L33.5997 43.678L33.8 43.7938L34.0002 43.678Z" stroke="url(#paint12_linear_544_78890)" stroke-opacity="0.8" stroke-width="0.8"/>
<defs>
<linearGradient id="paint0_linear_544_78890" x1="28.8385" y1="13.4443" x2="48.7984" y2="42.0204" gradientUnits="userSpaceOnUse">
<stop stop-color="#293C5D"/>
<stop offset="1" stop-color="#284661"/>
</linearGradient>
<linearGradient id="paint1_linear_544_78890" x1="17.0507" y1="14.6856" x2="41.9562" y2="39.9295" gradientUnits="userSpaceOnUse">
<stop stop-color="white"/>
<stop offset="1" stop-color="#666666"/>
</linearGradient>
<linearGradient id="paint2_linear_544_78890" x1="35.182" y1="41.6746" x2="63.2262" y2="40.7752" gradientUnits="userSpaceOnUse">
<stop stop-color="white" stop-opacity="0"/>
<stop offset="1" stop-color="white"/>
</linearGradient>
<linearGradient id="paint3_linear_544_78890" x1="20.3916" y1="38.8401" x2="41.3003" y2="19.3962" gradientUnits="userSpaceOnUse">
<stop stop-color="white"/>
<stop offset="1" stop-color="#C8BAFF"/>
</linearGradient>
<linearGradient id="paint4_linear_544_78890" x1="20.3916" y1="11.3174" x2="48.4856" y2="30.3262" gradientUnits="userSpaceOnUse">
<stop stop-color="white"/>
<stop offset="1" stop-color="white" stop-opacity="0"/>
</linearGradient>
<linearGradient id="paint5_linear_544_78890" x1="10.7827" y1="15.8274" x2="15.4617" y2="31.9272" gradientUnits="userSpaceOnUse">
<stop offset="0.14" stop-color="#5775A9"/>
<stop offset="0.83" stop-color="#080412"/>
</linearGradient>
<linearGradient id="paint6_linear_544_78890" x1="44.5" y1="23.4076" x2="36.7006" y2="32.0469" gradientUnits="userSpaceOnUse">
<stop stop-color="#E9E6E2"/>
<stop offset="1" stop-color="white"/>
</linearGradient>
<linearGradient id="paint7_linear_544_78890" x1="10.7827" y1="21.5349" x2="15.4617" y2="37.6347" gradientUnits="userSpaceOnUse">
<stop offset="0.14" stop-color="#5775A9"/>
<stop offset="0.83" stop-color="#080412"/>
</linearGradient>
<linearGradient id="paint8_linear_544_78890" x1="44.5" y1="29.1152" x2="36.7006" y2="37.7544" gradientUnits="userSpaceOnUse">
<stop stop-color="#E9E6E2"/>
<stop offset="1" stop-color="white"/>
</linearGradient>
<linearGradient id="paint9_linear_544_78890" x1="10.7827" y1="27.2424" x2="15.4617" y2="43.3422" gradientUnits="userSpaceOnUse">
<stop offset="0.14" stop-color="#5775A9"/>
<stop offset="0.83" stop-color="#080412"/>
</linearGradient>
<linearGradient id="paint10_linear_544_78890" x1="44.5" y1="34.8227" x2="36.7006" y2="43.4619" gradientUnits="userSpaceOnUse">
<stop stop-color="#E9E6E2"/>
<stop offset="1" stop-color="white"/>
</linearGradient>
<linearGradient id="paint11_linear_544_78890" x1="31.5" y1="34.5" x2="53.9192" y2="59.2624" gradientUnits="userSpaceOnUse">
<stop stop-color="#4C9AE0"/>
<stop offset="1" stop-color="#264BA4"/>
</linearGradient>
<linearGradient id="paint12_linear_544_78890" x1="34" y1="31" x2="60.7283" y2="66.7207" gradientUnits="userSpaceOnUse">
<stop stop-color="white"/>
<stop offset="1" stop-color="#3A227D" stop-opacity="0"/>
</linearGradient>
</defs>
</svg>
