<svg width="1166" height="1054" viewBox="0 0 1166 1054" fill="none" xmlns="http://www.w3.org/2000/svg">
<path opacity="0.4" d="M1163.87 -111V-111.5H1163.37V-111H1163.87ZM1165 -111H1165.5V-111.5H1165V-111ZM1165 1052.77V1053.27H1165.5V1052.77H1165ZM1163.87 1052.77H1163.37V1053.27H1163.87V1052.77ZM1164.77 -111H1165.27C1165.27 -111.133 1165.22 -111.26 1165.13 -111.354C1165.03 -111.447 1164.91 -111.5 1164.77 -111.5V-111ZM1164.77 1052.77V1053.27C1165.05 1053.27 1165.27 1053.05 1165.27 1052.77H1164.77ZM1112.38 -111C1112.38 -111.276 1112.15 -111.5 1111.88 -111.5C1111.6 -111.5 1111.38 -111.276 1111.38 -111H1112.38ZM1111.38 1052.77C1111.38 1053.05 1111.6 1053.27 1111.88 1053.27C1112.15 1053.27 1112.38 1053.05 1112.38 1052.77H1111.38ZM1059.47 -111C1059.47 -111.276 1059.25 -111.5 1058.97 -111.5C1058.7 -111.5 1058.47 -111.276 1058.47 -111H1059.47ZM1058.47 1052.77C1058.47 1053.05 1058.7 1053.27 1058.97 1053.27C1059.25 1053.27 1059.47 1053.05 1059.47 1052.77H1058.47ZM1006.58 -111C1006.58 -111.276 1006.36 -111.5 1006.08 -111.5C1005.81 -111.5 1005.58 -111.276 1005.58 -111H1006.58ZM1005.58 1052.77C1005.58 1053.05 1005.81 1053.27 1006.08 1053.27C1006.36 1053.27 1006.58 1053.05 1006.58 1052.77H1005.58ZM953.681 -111C953.681 -111.276 953.457 -111.5 953.181 -111.5C952.904 -111.5 952.681 -111.276 952.681 -111H953.681ZM952.681 1052.77C952.681 1053.05 952.904 1053.27 953.181 1053.27C953.457 1053.27 953.681 1053.05 953.681 1052.77H952.681ZM900.78 -111C900.78 -111.276 900.556 -111.5 900.28 -111.5C900.004 -111.5 899.78 -111.276 899.78 -111H900.78ZM899.78 1052.77C899.78 1053.05 900.004 1053.27 900.28 1053.27C900.556 1053.27 900.78 1053.05 900.78 1052.77H899.78ZM847.879 -111C847.879 -111.276 847.656 -111.5 847.379 -111.5C847.103 -111.5 846.879 -111.276 846.879 -111H847.879ZM846.879 1052.77C846.879 1053.05 847.103 1053.27 847.379 1053.27C847.656 1053.27 847.879 1053.05 847.879 1052.77H846.879ZM794.986 -111C794.986 -111.276 794.762 -111.5 794.486 -111.5C794.21 -111.5 793.986 -111.276 793.986 -111H794.986ZM793.986 1052.77C793.986 1053.05 794.21 1053.27 794.486 1053.27C794.762 1053.27 794.986 1053.05 794.986 1052.77H793.986ZM742.085 -111C742.085 -111.276 741.861 -111.5 741.585 -111.5C741.309 -111.5 741.085 -111.276 741.085 -111H742.085ZM741.085 1052.77C741.085 1053.05 741.309 1053.27 741.585 1053.27C741.861 1053.27 742.085 1053.05 742.085 1052.77H741.085ZM689.185 -111C689.185 -111.276 688.961 -111.5 688.685 -111.5C688.409 -111.5 688.185 -111.276 688.185 -111H689.185ZM688.185 1052.77C688.185 1053.05 688.409 1053.27 688.685 1053.27C688.961 1053.27 689.185 1053.05 689.185 1052.77H688.185ZM636.286 -111C636.286 -111.276 636.062 -111.5 635.786 -111.5C635.51 -111.5 635.286 -111.276 635.286 -111H636.286ZM635.286 1052.77C635.286 1053.05 635.51 1053.27 635.786 1053.27C636.062 1053.27 636.286 1053.05 636.286 1052.77H635.286ZM583.391 -111C583.391 -111.276 583.167 -111.5 582.891 -111.5C582.614 -111.5 582.391 -111.276 582.391 -111H583.391ZM582.391 1052.77C582.391 1053.05 582.614 1053.27 582.891 1053.27C583.167 1053.27 583.391 1053.05 583.391 1052.77H582.391ZM530.49 -111C530.49 -111.276 530.266 -111.5 529.99 -111.5C529.714 -111.5 529.49 -111.276 529.49 -111H530.49ZM529.49 1052.77C529.49 1053.05 529.714 1053.27 529.99 1053.27C530.266 1053.27 530.49 1053.05 530.49 1052.77H529.49ZM477.591 -111C477.591 -111.276 477.367 -111.5 477.091 -111.5C476.815 -111.5 476.591 -111.276 476.591 -111H477.591ZM476.591 1052.77C476.591 1053.05 476.815 1053.27 477.091 1053.27C477.367 1053.27 477.591 1053.05 477.591 1052.77H476.591ZM424.691 -111C424.691 -111.276 424.467 -111.5 424.191 -111.5C423.914 -111.5 423.691 -111.276 423.691 -111H424.691ZM423.691 1052.77C423.691 1053.05 423.914 1053.27 424.191 1053.27C424.467 1053.27 424.691 1053.05 424.691 1052.77H423.691ZM371.795 -111C371.795 -111.276 371.571 -111.5 371.295 -111.5C371.019 -111.5 370.795 -111.276 370.795 -111H371.795ZM370.795 1052.77C370.795 1053.05 371.019 1053.27 371.295 1053.27C371.571 1053.27 371.795 1053.05 371.795 1052.77H370.795ZM318.895 -111C318.895 -111.276 318.671 -111.5 318.395 -111.5C318.119 -111.5 317.895 -111.276 317.895 -111H318.895ZM317.895 1052.77C317.895 1053.05 318.119 1053.27 318.395 1053.27C318.671 1053.27 318.895 1053.05 318.895 1052.77H317.895ZM265.996 -111C265.996 -111.276 265.772 -111.5 265.496 -111.5C265.22 -111.5 264.996 -111.276 264.996 -111H265.996ZM264.996 1052.77C264.996 1053.05 265.22 1053.27 265.496 1053.27C265.772 1053.27 265.996 1053.05 265.996 1052.77H264.996ZM213.095 -111C213.095 -111.276 212.871 -111.5 212.595 -111.5C212.319 -111.5 212.095 -111.276 212.095 -111H213.095ZM212.095 1052.77C212.095 1053.05 212.319 1053.27 212.595 1053.27C212.871 1053.27 213.095 1053.05 213.095 1052.77H212.095ZM160.195 -111C160.195 -111.276 159.971 -111.5 159.695 -111.5C159.419 -111.5 159.195 -111.276 159.195 -111H160.195ZM159.195 1052.77C159.195 1053.05 159.419 1053.27 159.695 1053.27C159.971 1053.27 160.195 1053.05 160.195 1052.77H159.195ZM107.301 -111C107.301 -111.276 107.077 -111.5 106.801 -111.5C106.525 -111.5 106.301 -111.276 106.301 -111H107.301ZM106.301 1052.77C106.301 1053.05 106.525 1053.27 106.801 1053.27C107.077 1053.27 107.301 1053.05 107.301 1052.77H106.301ZM54.4006 -111C54.4006 -111.276 54.1767 -111.5 53.9006 -111.5C53.6244 -111.5 53.4006 -111.276 53.4006 -111H54.4006ZM53.4006 1052.77C53.4006 1053.05 53.6244 1053.27 53.9006 1053.27C54.1767 1053.27 54.4006 1053.05 54.4006 1052.77H53.4006ZM1 -111L1 -111.5C0.723858 -111.5 0.5 -111.276 0.5 -111H1ZM1 1052.77H0.5C0.5 1052.91 0.552678 1053.03 0.646447 1053.13C0.740215 1053.22 0.867392 1053.27 1 1053.27L1 1052.77ZM1 787.781C0.723858 787.781 0.5 788.004 0.5 788.281C0.5 788.557 0.723858 788.781 1 788.781V787.781ZM1164.78 788.781C1165.05 788.781 1165.28 788.557 1165.28 788.281C1165.28 788.004 1165.05 787.781 1164.78 787.781V788.781ZM1 840.679C0.723858 840.679 0.5 840.903 0.5 841.179C0.5 841.455 0.723858 841.679 1 841.679V840.679ZM1164.78 841.679C1165.05 841.679 1165.28 841.455 1165.28 841.179C1165.28 840.903 1165.05 840.679 1164.78 840.679V841.679ZM1 893.575C0.723858 893.575 0.5 893.798 0.5 894.075C0.5 894.351 0.723858 894.575 1 894.575V893.575ZM1164.78 894.575C1165.05 894.575 1165.28 894.351 1165.28 894.075C1165.28 893.798 1165.05 893.575 1164.78 893.575V894.575ZM1 946.475C0.723858 946.475 0.5 946.699 0.5 946.975C0.5 947.251 0.723858 947.475 1 947.475V946.475ZM1164.78 947.475C1165.05 947.475 1165.28 947.251 1165.28 946.975C1165.28 946.699 1165.05 946.475 1164.78 946.475V947.475ZM1 999.374C0.723858 999.374 0.5 999.598 0.5 999.874C0.5 1000.15 0.723858 1000.37 1 1000.37V999.374ZM1164.78 1000.37C1165.05 1000.37 1165.28 1000.15 1165.28 999.874C1165.28 999.598 1165.05 999.374 1164.78 999.374V1000.37ZM1 1051.87V1051.37H0.5V1051.87H1ZM1164.78 1051.87H1165.28V1051.37H1164.78V1051.87ZM1164.78 1053V1053.5H1165.28V1053H1164.78ZM1 1053H0.5V1053.5H1V1053ZM1 470.384C0.723858 470.384 0.5 470.608 0.5 470.884C0.5 471.16 0.723858 471.384 1 471.384V470.384ZM1164.78 471.384C1165.05 471.384 1165.28 471.16 1165.28 470.884C1165.28 470.608 1165.05 470.384 1164.78 470.384V471.384ZM1 523.285C0.723858 523.285 0.5 523.508 0.5 523.785C0.5 524.061 0.723858 524.285 1 524.285V523.285ZM1164.78 524.285C1165.05 524.285 1165.28 524.061 1165.28 523.785C1165.28 523.508 1165.05 523.285 1164.78 523.285V524.285ZM1 576.185C0.723858 576.185 0.5 576.409 0.5 576.685C0.5 576.961 0.723858 577.185 1 577.185V576.185ZM1164.78 577.185C1165.05 577.185 1165.28 576.961 1165.28 576.685C1165.28 576.409 1165.05 576.185 1164.78 576.185V577.185ZM1 629.086C0.723858 629.086 0.5 629.31 0.5 629.586C0.5 629.862 0.723858 630.086 1 630.086V629.086ZM1164.78 630.086C1165.05 630.086 1165.28 629.862 1165.28 629.586C1165.28 629.31 1165.05 629.086 1164.78 629.086V630.086ZM1 681.979C0.723858 681.979 0.5 682.203 0.5 682.479C0.5 682.755 0.723858 682.979 1 682.979V681.979ZM1164.78 682.979C1165.05 682.979 1165.28 682.755 1165.28 682.479C1165.28 682.203 1165.05 681.979 1164.78 681.979V682.979ZM1 734.88C0.723858 734.88 0.5 735.104 0.5 735.38C0.5 735.656 0.723858 735.88 1 735.88V734.88ZM1164.78 735.88C1165.05 735.88 1165.28 735.656 1165.28 735.38C1165.28 735.104 1165.05 734.88 1164.78 734.88V735.88ZM1 47.1951C0.723858 47.1951 0.5 47.419 0.5 47.6951C0.5 47.9713 0.723858 48.1951 1 48.1951V47.1951ZM1164.78 48.1951C1165.05 48.1951 1165.28 47.9713 1165.28 47.6951C1165.28 47.419 1165.05 47.1951 1164.78 47.1951V48.1951ZM1 100.096C0.723858 100.096 0.5 100.32 0.5 100.596C0.5 100.872 0.723858 101.096 1 101.096V100.096ZM1164.78 101.096C1165.05 101.096 1165.28 100.872 1165.28 100.596C1165.28 100.32 1165.05 100.096 1164.78 100.096V101.096ZM1 152.995C0.723858 152.995 0.5 153.218 0.5 153.495C0.5 153.771 0.723858 153.995 1 153.995V152.995ZM1164.78 153.995C1165.05 153.995 1165.28 153.771 1165.28 153.495C1165.28 153.218 1165.05 152.995 1164.78 152.995V153.995ZM1 205.895C0.723858 205.895 0.5 206.119 0.5 206.395C0.5 206.671 0.723858 206.895 1 206.895V205.895ZM1164.78 206.895C1165.05 206.895 1165.28 206.671 1165.28 206.395C1165.28 206.119 1165.05 205.895 1164.78 205.895V206.895ZM1 258.79C0.723858 258.79 0.5 259.014 0.5 259.29C0.5 259.567 0.723858 259.79 1 259.79V258.79ZM1164.78 259.79C1165.05 259.79 1165.28 259.567 1165.28 259.29C1165.28 259.014 1165.05 258.79 1164.78 258.79V259.79ZM1 311.689C0.723858 311.689 0.5 311.913 0.5 312.189C0.5 312.465 0.723858 312.689 1 312.689V311.689ZM1164.78 312.689C1165.05 312.689 1165.28 312.465 1165.28 312.189C1165.28 311.913 1165.05 311.689 1164.78 311.689V312.689ZM1 364.59C0.723858 364.59 0.5 364.814 0.5 365.09C0.5 365.366 0.723858 365.59 1 365.59V364.59ZM1164.78 365.59C1165.05 365.59 1165.28 365.366 1165.28 365.09C1165.28 364.814 1165.05 364.59 1164.78 364.59V365.59ZM1 417.49C0.723858 417.49 0.5 417.714 0.5 417.99C0.5 418.267 0.723858 418.49 1 418.49V417.49ZM1164.78 418.49C1165.05 418.49 1165.28 418.267 1165.28 417.99C1165.28 417.714 1165.05 417.49 1164.78 417.49V418.49ZM1 -58.599C0.723858 -58.599 0.5 -58.3751 0.5 -58.099C0.5 -57.8229 0.723858 -57.599 1 -57.599V-58.599ZM1164.78 -57.599C1165.05 -57.599 1165.28 -57.8229 1165.28 -58.099C1165.28 -58.3751 1165.05 -58.599 1164.78 -58.599V-57.599ZM1 -5.70016C0.723858 -5.70016 0.5 -5.47631 0.5 -5.20016C0.5 -4.92403 0.723858 -4.70016 1 -4.70016V-5.70016ZM1164.78 -4.70016C1165.05 -4.70016 1165.28 -4.92403 1165.28 -5.20016C1165.28 -5.47631 1165.05 -5.70016 1164.78 -5.70016V-4.70016ZM1163.87 -110.5H1165V-111.5H1163.87V-110.5ZM1164.5 -111V1052.77H1165.5V-111H1164.5ZM1165 1052.27H1163.87V1053.27H1165V1052.27ZM1164.37 1052.77V-111H1163.37V1052.77H1164.37ZM1164.27 -111V1052.77H1165.27V-111H1164.27ZM1111.38 -111V1052.77H1112.38V-111H1111.38ZM1058.47 -111V1052.77H1059.47V-111H1058.47ZM1005.58 -111V1052.77H1006.58V-111H1005.58ZM952.681 -111V1052.77H953.681V-111H952.681ZM899.78 -111V1052.77H900.78V-111H899.78ZM846.879 -111V1052.77H847.879V-111H846.879ZM793.986 -111V1052.77H794.986V-111H793.986ZM741.085 -111V1052.77H742.085V-111H741.085ZM688.185 -111V1052.77H689.185V-111H688.185ZM635.286 -111V1052.77H636.286V-111H635.286ZM582.391 -111V1052.77H583.391V-111H582.391ZM529.49 -111V1052.77H530.49V-111H529.49ZM476.591 -111V1052.77H477.591V-111H476.591ZM423.691 -111V1052.77H424.691V-111H423.691ZM370.795 -111V1052.77H371.795V-111H370.795ZM317.895 -111V1052.77H318.895V-111H317.895ZM264.996 -111V1052.77H265.996V-111H264.996ZM212.095 -111V1052.77H213.095V-111H212.095ZM159.195 -111V1052.77H160.195V-111H159.195ZM106.301 -111V1052.77H107.301V-111H106.301ZM53.4006 -111V1052.77H54.4006V-111H53.4006ZM0.5 -111V1052.77H1.5V-111H0.5ZM1 788.781H1164.78V787.781H1V788.781ZM1 841.679H1164.78V840.679H1V841.679ZM1 894.575H1164.78V893.575H1V894.575ZM1 947.475H1164.78V946.475H1V947.475ZM1 1000.37H1164.78V999.374H1V1000.37ZM1 1052.37H1164.78V1051.37H1V1052.37ZM1164.28 1051.87V1053H1165.28V1051.87H1164.28ZM1164.78 1052.5H1V1053.5H1164.78V1052.5ZM1.5 1053V1051.87H0.5V1053H1.5ZM1 1053.27L1164.77 1053.27V1052.27L1 1052.27L1 1053.27ZM1 471.384H1164.78V470.384H1V471.384ZM1 524.285H1164.78V523.285H1V524.285ZM1 577.185H1164.78V576.185H1V577.185ZM1 630.086H1164.78V629.086H1V630.086ZM1 682.979H1164.78V681.979H1V682.979ZM1 735.88H1164.78V734.88H1V735.88ZM1 48.1951H1164.78V47.1951H1V48.1951ZM1 101.096H1164.78V100.096H1V101.096ZM1 153.995H1164.78V152.995H1V153.995ZM1 206.895H1164.78V205.895H1V206.895ZM1 259.79H1164.78V258.79H1V259.79ZM1 312.689H1164.78V311.689H1V312.689ZM1 365.59H1164.78V364.59H1V365.59ZM1 418.49H1164.78V417.49H1V418.49ZM1 -110.5L1164.77 -110.5V-111.5L1 -111.5L1 -110.5ZM1 -57.599H1164.78V-58.599H1V-57.599ZM1 -4.70016H1164.78V-5.70016H1V-4.70016Z" fill="url(#paint0_radial_747_188152)"/>
<defs>
<radialGradient id="paint0_radial_747_188152" cx="0" cy="0" r="1" gradientUnits="userSpaceOnUse" gradientTransform="translate(583 420) rotate(90) scale(270 797.573)">
<stop stop-opacity="0"/>
<stop offset="0.401674" stop-color="#A98BFF" stop-opacity="0.45"/>
<stop offset="1" stop-opacity="0"/>
</radialGradient>
</defs>
</svg>
