<svg width="1440" height="1437" viewBox="0 0 1440 1437" fill="none" xmlns="http://www.w3.org/2000/svg">
<path opacity="0.4" d="M1300.87 -111V-111.5H1300.37V-111H1300.87ZM1302 -111H1302.5V-111.5H1302V-111ZM1302 1052.77V1053.27H1302.5V1052.77H1302ZM1300.87 1052.77H1300.37V1053.27H1300.87V1052.77ZM1301.77 -111H1302.27C1302.27 -111.133 1302.22 -111.26 1302.13 -111.354C1302.03 -111.447 1301.91 -111.5 1301.77 -111.5V-111ZM1301.77 1052.77V1053.27C1302.05 1053.27 1302.27 1053.05 1302.27 1052.77H1301.77ZM1249.38 -111C1249.38 -111.276 1249.15 -111.5 1248.88 -111.5C1248.6 -111.5 1248.38 -111.276 1248.38 -111H1249.38ZM1248.38 1052.77C1248.38 1053.05 1248.6 1053.27 1248.88 1053.27C1249.15 1053.27 1249.38 1053.05 1249.38 1052.77H1248.38ZM1196.47 -111C1196.47 -111.276 1196.25 -111.5 1195.97 -111.5C1195.7 -111.5 1195.47 -111.276 1195.47 -111H1196.47ZM1195.47 1052.77C1195.47 1053.05 1195.7 1053.27 1195.97 1053.27C1196.25 1053.27 1196.47 1053.05 1196.47 1052.77H1195.47ZM1143.58 -111C1143.58 -111.276 1143.36 -111.5 1143.08 -111.5C1142.81 -111.5 1142.58 -111.276 1142.58 -111H1143.58ZM1142.58 1052.77C1142.58 1053.05 1142.81 1053.27 1143.08 1053.27C1143.36 1053.27 1143.58 1053.05 1143.58 1052.77H1142.58ZM1090.68 -111C1090.68 -111.276 1090.46 -111.5 1090.18 -111.5C1089.9 -111.5 1089.68 -111.276 1089.68 -111H1090.68ZM1089.68 1052.77C1089.68 1053.05 1089.9 1053.27 1090.18 1053.27C1090.46 1053.27 1090.68 1053.05 1090.68 1052.77H1089.68ZM1037.78 -111C1037.78 -111.276 1037.56 -111.5 1037.28 -111.5C1037 -111.5 1036.78 -111.276 1036.78 -111H1037.78ZM1036.78 1052.77C1036.78 1053.05 1037 1053.27 1037.28 1053.27C1037.56 1053.27 1037.78 1053.05 1037.78 1052.77H1036.78ZM984.879 -111C984.879 -111.276 984.656 -111.5 984.379 -111.5C984.103 -111.5 983.879 -111.276 983.879 -111H984.879ZM983.879 1052.77C983.879 1053.05 984.103 1053.27 984.379 1053.27C984.656 1053.27 984.879 1053.05 984.879 1052.77H983.879ZM931.986 -111C931.986 -111.276 931.762 -111.5 931.486 -111.5C931.21 -111.5 930.986 -111.276 930.986 -111H931.986ZM930.986 1052.77C930.986 1053.05 931.21 1053.27 931.486 1053.27C931.762 1053.27 931.986 1053.05 931.986 1052.77H930.986ZM879.085 -111C879.085 -111.276 878.861 -111.5 878.585 -111.5C878.309 -111.5 878.085 -111.276 878.085 -111H879.085ZM878.085 1052.77C878.085 1053.05 878.309 1053.27 878.585 1053.27C878.861 1053.27 879.085 1053.05 879.085 1052.77H878.085ZM826.185 -111C826.185 -111.276 825.961 -111.5 825.685 -111.5C825.409 -111.5 825.185 -111.276 825.185 -111H826.185ZM825.185 1052.77C825.185 1053.05 825.409 1053.27 825.685 1053.27C825.961 1053.27 826.185 1053.05 826.185 1052.77H825.185ZM773.286 -111C773.286 -111.276 773.062 -111.5 772.786 -111.5C772.51 -111.5 772.286 -111.276 772.286 -111H773.286ZM772.286 1052.77C772.286 1053.05 772.51 1053.27 772.786 1053.27C773.062 1053.27 773.286 1053.05 773.286 1052.77H772.286ZM720.391 -111C720.391 -111.276 720.167 -111.5 719.891 -111.5C719.614 -111.5 719.391 -111.276 719.391 -111H720.391ZM719.391 1052.77C719.391 1053.05 719.614 1053.27 719.891 1053.27C720.167 1053.27 720.391 1053.05 720.391 1052.77H719.391ZM667.49 -111C667.49 -111.276 667.266 -111.5 666.99 -111.5C666.714 -111.5 666.49 -111.276 666.49 -111H667.49ZM666.49 1052.77C666.49 1053.05 666.714 1053.27 666.99 1053.27C667.266 1053.27 667.49 1053.05 667.49 1052.77H666.49ZM614.591 -111C614.591 -111.276 614.367 -111.5 614.091 -111.5C613.815 -111.5 613.591 -111.276 613.591 -111H614.591ZM613.591 1052.77C613.591 1053.05 613.815 1053.27 614.091 1053.27C614.367 1053.27 614.591 1053.05 614.591 1052.77H613.591ZM561.691 -111C561.691 -111.276 561.467 -111.5 561.191 -111.5C560.914 -111.5 560.691 -111.276 560.691 -111H561.691ZM560.691 1052.77C560.691 1053.05 560.914 1053.27 561.191 1053.27C561.467 1053.27 561.691 1053.05 561.691 1052.77H560.691ZM508.795 -111C508.795 -111.276 508.571 -111.5 508.295 -111.5C508.019 -111.5 507.795 -111.276 507.795 -111H508.795ZM507.795 1052.77C507.795 1053.05 508.019 1053.27 508.295 1053.27C508.571 1053.27 508.795 1053.05 508.795 1052.77H507.795ZM455.895 -111C455.895 -111.276 455.671 -111.5 455.395 -111.5C455.119 -111.5 454.895 -111.276 454.895 -111H455.895ZM454.895 1052.77C454.895 1053.05 455.119 1053.27 455.395 1053.27C455.671 1053.27 455.895 1053.05 455.895 1052.77H454.895ZM402.996 -111C402.996 -111.276 402.772 -111.5 402.496 -111.5C402.22 -111.5 401.996 -111.276 401.996 -111H402.996ZM401.996 1052.77C401.996 1053.05 402.22 1053.27 402.496 1053.27C402.772 1053.27 402.996 1053.05 402.996 1052.77H401.996ZM350.095 -111C350.095 -111.276 349.871 -111.5 349.595 -111.5C349.319 -111.5 349.095 -111.276 349.095 -111H350.095ZM349.095 1052.77C349.095 1053.05 349.319 1053.27 349.595 1053.27C349.871 1053.27 350.095 1053.05 350.095 1052.77H349.095ZM297.195 -111C297.195 -111.276 296.971 -111.5 296.695 -111.5C296.419 -111.5 296.195 -111.276 296.195 -111H297.195ZM296.195 1052.77C296.195 1053.05 296.419 1053.27 296.695 1053.27C296.971 1053.27 297.195 1053.05 297.195 1052.77H296.195ZM244.301 -111C244.301 -111.276 244.077 -111.5 243.801 -111.5C243.525 -111.5 243.301 -111.276 243.301 -111H244.301ZM243.301 1052.77C243.301 1053.05 243.525 1053.27 243.801 1053.27C244.077 1053.27 244.301 1053.05 244.301 1052.77H243.301ZM191.401 -111C191.401 -111.276 191.177 -111.5 190.901 -111.5C190.624 -111.5 190.401 -111.276 190.401 -111H191.401ZM190.401 1052.77C190.401 1053.05 190.624 1053.27 190.901 1053.27C191.177 1053.27 191.401 1053.05 191.401 1052.77H190.401ZM138 -111L138 -111.5C137.724 -111.5 137.5 -111.276 137.5 -111H138ZM138 1052.77H137.5C137.5 1052.91 137.553 1053.03 137.646 1053.13C137.74 1053.22 137.867 1053.27 138 1053.27L138 1052.77ZM138 787.781C137.724 787.781 137.5 788.004 137.5 788.281C137.5 788.557 137.724 788.781 138 788.781V787.781ZM1301.78 788.781C1302.05 788.781 1302.28 788.557 1302.28 788.281C1302.28 788.004 1302.05 787.781 1301.78 787.781V788.781ZM138 840.679C137.724 840.679 137.5 840.903 137.5 841.179C137.5 841.455 137.724 841.679 138 841.679V840.679ZM1301.78 841.679C1302.05 841.679 1302.28 841.455 1302.28 841.179C1302.28 840.903 1302.05 840.679 1301.78 840.679V841.679ZM138 893.575C137.724 893.575 137.5 893.798 137.5 894.075C137.5 894.351 137.724 894.575 138 894.575V893.575ZM1301.78 894.575C1302.05 894.575 1302.28 894.351 1302.28 894.075C1302.28 893.798 1302.05 893.575 1301.78 893.575V894.575ZM138 946.475C137.724 946.475 137.5 946.699 137.5 946.975C137.5 947.251 137.724 947.475 138 947.475V946.475ZM1301.78 947.475C1302.05 947.475 1302.28 947.251 1302.28 946.975C1302.28 946.699 1302.05 946.475 1301.78 946.475V947.475ZM138 999.374C137.724 999.374 137.5 999.598 137.5 999.874C137.5 1000.15 137.724 1000.37 138 1000.37V999.374ZM1301.78 1000.37C1302.05 1000.37 1302.28 1000.15 1302.28 999.874C1302.28 999.598 1302.05 999.374 1301.78 999.374V1000.37ZM138 1051.87V1051.37H137.5V1051.87H138ZM1301.78 1051.87H1302.28V1051.37H1301.78V1051.87ZM1301.78 1053V1053.5H1302.28V1053H1301.78ZM138 1053H137.5V1053.5H138V1053ZM138 470.384C137.724 470.384 137.5 470.608 137.5 470.884C137.5 471.16 137.724 471.384 138 471.384V470.384ZM1301.78 471.384C1302.05 471.384 1302.28 471.16 1302.28 470.884C1302.28 470.608 1302.05 470.384 1301.78 470.384V471.384ZM138 523.285C137.724 523.285 137.5 523.508 137.5 523.785C137.5 524.061 137.724 524.285 138 524.285V523.285ZM1301.78 524.285C1302.05 524.285 1302.28 524.061 1302.28 523.785C1302.28 523.508 1302.05 523.285 1301.78 523.285V524.285ZM138 576.185C137.724 576.185 137.5 576.409 137.5 576.685C137.5 576.961 137.724 577.185 138 577.185V576.185ZM1301.78 577.185C1302.05 577.185 1302.28 576.961 1302.28 576.685C1302.28 576.409 1302.05 576.185 1301.78 576.185V577.185ZM138 629.086C137.724 629.086 137.5 629.31 137.5 629.586C137.5 629.862 137.724 630.086 138 630.086V629.086ZM1301.78 630.086C1302.05 630.086 1302.28 629.862 1302.28 629.586C1302.28 629.31 1302.05 629.086 1301.78 629.086V630.086ZM138 681.979C137.724 681.979 137.5 682.203 137.5 682.479C137.5 682.755 137.724 682.979 138 682.979V681.979ZM1301.78 682.979C1302.05 682.979 1302.28 682.755 1302.28 682.479C1302.28 682.203 1302.05 681.979 1301.78 681.979V682.979ZM138 734.88C137.724 734.88 137.5 735.104 137.5 735.38C137.5 735.656 137.724 735.88 138 735.88V734.88ZM1301.78 735.88C1302.05 735.88 1302.28 735.656 1302.28 735.38C1302.28 735.104 1302.05 734.88 1301.78 734.88V735.88ZM138 47.1951C137.724 47.1951 137.5 47.419 137.5 47.6951C137.5 47.9713 137.724 48.1951 138 48.1951V47.1951ZM1301.78 48.1951C1302.05 48.1951 1302.28 47.9713 1302.28 47.6951C1302.28 47.419 1302.05 47.1951 1301.78 47.1951V48.1951ZM138 100.096C137.724 100.096 137.5 100.32 137.5 100.596C137.5 100.872 137.724 101.096 138 101.096V100.096ZM1301.78 101.096C1302.05 101.096 1302.28 100.872 1302.28 100.596C1302.28 100.32 1302.05 100.096 1301.78 100.096V101.096ZM138 152.995C137.724 152.995 137.5 153.218 137.5 153.495C137.5 153.771 137.724 153.995 138 153.995V152.995ZM1301.78 153.995C1302.05 153.995 1302.28 153.771 1302.28 153.495C1302.28 153.218 1302.05 152.995 1301.78 152.995V153.995ZM138 205.895C137.724 205.895 137.5 206.119 137.5 206.395C137.5 206.671 137.724 206.895 138 206.895V205.895ZM1301.78 206.895C1302.05 206.895 1302.28 206.671 1302.28 206.395C1302.28 206.119 1302.05 205.895 1301.78 205.895V206.895ZM138 258.79C137.724 258.79 137.5 259.014 137.5 259.29C137.5 259.567 137.724 259.79 138 259.79V258.79ZM1301.78 259.79C1302.05 259.79 1302.28 259.567 1302.28 259.29C1302.28 259.014 1302.05 258.79 1301.78 258.79V259.79ZM138 311.689C137.724 311.689 137.5 311.913 137.5 312.189C137.5 312.465 137.724 312.689 138 312.689V311.689ZM1301.78 312.689C1302.05 312.689 1302.28 312.465 1302.28 312.189C1302.28 311.913 1302.05 311.689 1301.78 311.689V312.689ZM138 364.59C137.724 364.59 137.5 364.814 137.5 365.09C137.5 365.366 137.724 365.59 138 365.59V364.59ZM1301.78 365.59C1302.05 365.59 1302.28 365.366 1302.28 365.09C1302.28 364.814 1302.05 364.59 1301.78 364.59V365.59ZM138 417.49C137.724 417.49 137.5 417.714 137.5 417.99C137.5 418.267 137.724 418.49 138 418.49V417.49ZM1301.78 418.49C1302.05 418.49 1302.28 418.267 1302.28 417.99C1302.28 417.714 1302.05 417.49 1301.78 417.49V418.49ZM138 -58.599C137.724 -58.599 137.5 -58.3751 137.5 -58.099C137.5 -57.8229 137.724 -57.599 138 -57.599V-58.599ZM1301.78 -57.599C1302.05 -57.599 1302.28 -57.8229 1302.28 -58.099C1302.28 -58.3751 1302.05 -58.599 1301.78 -58.599V-57.599ZM138 -5.70016C137.724 -5.70016 137.5 -5.47631 137.5 -5.20016C137.5 -4.92403 137.724 -4.70016 138 -4.70016V-5.70016ZM1301.78 -4.70016C1302.05 -4.70016 1302.28 -4.92403 1302.28 -5.20016C1302.28 -5.47631 1302.05 -5.70016 1301.78 -5.70016V-4.70016ZM1300.87 -110.5H1302V-111.5H1300.87V-110.5ZM1301.5 -111V1052.77H1302.5V-111H1301.5ZM1302 1052.27H1300.87V1053.27H1302V1052.27ZM1301.37 1052.77V-111H1300.37V1052.77H1301.37ZM1301.27 -111V1052.77H1302.27V-111H1301.27ZM1248.38 -111V1052.77H1249.38V-111H1248.38ZM1195.47 -111V1052.77H1196.47V-111H1195.47ZM1142.58 -111V1052.77H1143.58V-111H1142.58ZM1089.68 -111V1052.77H1090.68V-111H1089.68ZM1036.78 -111V1052.77H1037.78V-111H1036.78ZM983.879 -111V1052.77H984.879V-111H983.879ZM930.986 -111V1052.77H931.986V-111H930.986ZM878.085 -111V1052.77H879.085V-111H878.085ZM825.185 -111V1052.77H826.185V-111H825.185ZM772.286 -111V1052.77H773.286V-111H772.286ZM719.391 -111V1052.77H720.391V-111H719.391ZM666.49 -111V1052.77H667.49V-111H666.49ZM613.591 -111V1052.77H614.591V-111H613.591ZM560.691 -111V1052.77H561.691V-111H560.691ZM507.795 -111V1052.77H508.795V-111H507.795ZM454.895 -111V1052.77H455.895V-111H454.895ZM401.996 -111V1052.77H402.996V-111H401.996ZM349.095 -111V1052.77H350.095V-111H349.095ZM296.195 -111V1052.77H297.195V-111H296.195ZM243.301 -111V1052.77H244.301V-111H243.301ZM190.401 -111V1052.77H191.401V-111H190.401ZM137.5 -111V1052.77H138.5V-111H137.5ZM138 788.781H1301.78V787.781H138V788.781ZM138 841.679H1301.78V840.679H138V841.679ZM138 894.575H1301.78V893.575H138V894.575ZM138 947.475H1301.78V946.475H138V947.475ZM138 1000.37H1301.78V999.374H138V1000.37ZM138 1052.37H1301.78V1051.37H138V1052.37ZM1301.28 1051.87V1053H1302.28V1051.87H1301.28ZM1301.78 1052.5H138V1053.5H1301.78V1052.5ZM138.5 1053V1051.87H137.5V1053H138.5ZM138 1053.27L1301.77 1053.27V1052.27L138 1052.27L138 1053.27ZM138 471.384H1301.78V470.384H138V471.384ZM138 524.285H1301.78V523.285H138V524.285ZM138 577.185H1301.78V576.185H138V577.185ZM138 630.086H1301.78V629.086H138V630.086ZM138 682.979H1301.78V681.979H138V682.979ZM138 735.88H1301.78V734.88H138V735.88ZM138 48.1951H1301.78V47.1951H138V48.1951ZM138 101.096H1301.78V100.096H138V101.096ZM138 153.995H1301.78V152.995H138V153.995ZM138 206.895H1301.78V205.895H138V206.895ZM138 259.79H1301.78V258.79H138V259.79ZM138 312.689H1301.78V311.689H138V312.689ZM138 365.59H1301.78V364.59H138V365.59ZM138 418.49H1301.78V417.49H138V418.49ZM138 -110.5L1301.77 -110.5V-111.5L138 -111.5L138 -110.5ZM138 -57.599H1301.78V-58.599H138V-57.599ZM138 -4.70016H1301.78V-5.70016H138V-4.70016Z" fill="url(#paint0_radial_51_31)"/>
<g opacity="0.8">
<g style="mix-blend-mode:plus-lighter" opacity="0.7" filter="url(#filter0_f_51_31)">
<circle cx="720.5" cy="390.5" r="324.5" fill="url(#paint1_linear_51_31)"/>
</g>
<g style="mix-blend-mode:lighten" opacity="0.5" filter="url(#filter1_f_51_31)">
<ellipse cx="720" cy="381" rx="325" ry="123" fill="#1400FF"/>
</g>
<g style="mix-blend-mode:lighten" opacity="0.5" filter="url(#filter2_f_51_31)">
<ellipse cx="720" cy="381" rx="248" ry="94" fill="#0A49EC"/>
</g>
</g>
<defs>
<filter id="filter0_f_51_31" x="-204" y="-534" width="1849" height="1849" filterUnits="userSpaceOnUse" color-interpolation-filters="sRGB">
<feFlood flood-opacity="0" result="BackgroundImageFix"/>
<feBlend mode="normal" in="SourceGraphic" in2="BackgroundImageFix" result="shape"/>
<feGaussianBlur stdDeviation="300" result="effect1_foregroundBlur_51_31"/>
</filter>
<filter id="filter1_f_51_31" x="-537.084" y="-674.084" width="2514.17" height="2110.17" filterUnits="userSpaceOnUse" color-interpolation-filters="sRGB">
<feFlood flood-opacity="0" result="BackgroundImageFix"/>
<feBlend mode="normal" in="SourceGraphic" in2="BackgroundImageFix" result="shape"/>
<feGaussianBlur stdDeviation="466.042" result="effect1_foregroundBlur_51_31"/>
</filter>
<filter id="filter2_f_51_31" x="-87.2507" y="-272.251" width="1614.5" height="1306.5" filterUnits="userSpaceOnUse" color-interpolation-filters="sRGB">
<feFlood flood-opacity="0" result="BackgroundImageFix"/>
<feBlend mode="normal" in="SourceGraphic" in2="BackgroundImageFix" result="shape"/>
<feGaussianBlur stdDeviation="279.625" result="effect1_foregroundBlur_51_31"/>
</filter>
<radialGradient id="paint0_radial_51_31" cx="0" cy="0" r="1" gradientUnits="userSpaceOnUse" gradientTransform="translate(720 420) rotate(90) scale(270 797.573)">
<stop stop-opacity="0"/>
<stop offset="0.401674" stop-color="#A98BFF" stop-opacity="0.45"/>
<stop offset="1" stop-opacity="0"/>
</radialGradient>
<linearGradient id="paint1_linear_51_31" x1="683.12" y1="135.099" x2="784.436" y2="462.237" gradientUnits="userSpaceOnUse">
<stop stop-color="#4C9AE0"/>
<stop offset="1" stop-color="#6200C4"/>
</linearGradient>
</defs>
</svg>
