<svg width="375" height="700" viewBox="0 0 375 700" fill="none" xmlns="http://www.w3.org/2000/svg">
<g clip-path="url(#clip0_2419_78557)">
<path opacity="0.4" d="M531.747 15.2285V14.7285H531.247V15.2285H531.747ZM532.415 15.2285H532.915V14.7285H532.415V15.2285ZM532.415 705.923V706.423H532.915V705.923H532.415ZM531.747 705.923H531.247V706.423H531.747V705.923ZM532.281 15.2285H532.781C532.781 15.0959 532.729 14.9687 532.635 14.875C532.541 14.7812 532.414 14.7285 532.281 14.7285V15.2285ZM532.281 705.923V706.423C532.558 706.423 532.781 706.2 532.781 705.923H532.281ZM501.386 15.2286C501.386 14.9525 501.162 14.7286 500.886 14.7286C500.61 14.7286 500.386 14.9525 500.386 15.2286H501.386ZM500.386 705.924C500.386 706.2 500.61 706.424 500.886 706.424C501.162 706.424 501.386 706.2 501.386 705.924H500.386ZM469.99 15.2286C469.99 14.9525 469.766 14.7286 469.49 14.7286C469.214 14.7286 468.99 14.9525 468.99 15.2286H469.99ZM468.99 705.924C468.99 706.2 469.214 706.424 469.49 706.424C469.766 706.424 469.99 706.2 469.99 705.924H468.99ZM438.598 15.2286C438.598 14.9525 438.374 14.7286 438.098 14.7286C437.821 14.7286 437.598 14.9525 437.598 15.2286H438.598ZM437.598 705.924C437.598 706.2 437.821 706.424 438.098 706.424C438.374 706.424 438.598 706.2 438.598 705.924H437.598ZM407.201 15.2286C407.201 14.9525 406.977 14.7286 406.701 14.7286C406.425 14.7286 406.201 14.9525 406.201 15.2286H407.201ZM406.201 705.924C406.201 706.2 406.425 706.424 406.701 706.424C406.977 706.424 407.201 706.2 407.201 705.924H406.201ZM375.805 15.2286C375.805 14.9525 375.581 14.7286 375.305 14.7286C375.029 14.7286 374.805 14.9525 374.805 15.2286H375.805ZM374.805 705.924C374.805 706.2 375.029 706.424 375.305 706.424C375.581 706.424 375.805 706.2 375.805 705.924H374.805ZM344.409 15.2286C344.409 14.9525 344.185 14.7286 343.909 14.7286C343.633 14.7286 343.409 14.9525 343.409 15.2286H344.409ZM343.409 705.924C343.409 706.2 343.633 706.424 343.909 706.424C344.185 706.424 344.409 706.2 344.409 705.924H343.409ZM313.017 15.2286C313.017 14.9525 312.793 14.7286 312.517 14.7286C312.24 14.7286 312.017 14.9525 312.017 15.2286H313.017ZM312.017 705.924C312.017 706.2 312.24 706.424 312.517 706.424C312.793 706.424 313.017 706.2 313.017 705.924H312.017ZM281.62 15.2286C281.62 14.9525 281.396 14.7286 281.12 14.7286C280.844 14.7286 280.62 14.9525 280.62 15.2286H281.62ZM280.62 705.924C280.62 706.2 280.844 706.424 281.12 706.424C281.396 706.424 281.62 706.2 281.62 705.924H280.62ZM250.224 15.2286C250.224 14.9525 250 14.7286 249.724 14.7286C249.448 14.7286 249.224 14.9525 249.224 15.2286H250.224ZM249.224 705.924C249.224 706.2 249.448 706.424 249.724 706.424C250 706.424 250.224 706.2 250.224 705.924H249.224ZM218.829 15.2286C218.829 14.9525 218.605 14.7286 218.329 14.7286C218.053 14.7286 217.829 14.9525 217.829 15.2286H218.829ZM217.829 705.924C217.829 706.2 218.053 706.424 218.329 706.424C218.605 706.424 218.829 706.2 218.829 705.924H217.829ZM187.436 15.2286C187.436 14.9525 187.212 14.7286 186.936 14.7286C186.659 14.7286 186.436 14.9525 186.436 15.2286H187.436ZM186.436 705.924C186.436 706.2 186.659 706.424 186.936 706.424C187.212 706.424 187.436 706.2 187.436 705.924H186.436ZM156.039 15.2286C156.039 14.9525 155.815 14.7286 155.539 14.7286C155.263 14.7286 155.039 14.9525 155.039 15.2286H156.039ZM155.039 705.924C155.039 706.2 155.263 706.424 155.539 706.424C155.815 706.424 156.039 706.2 156.039 705.924H155.039ZM124.644 15.2286C124.644 14.9525 124.42 14.7286 124.144 14.7286C123.868 14.7286 123.644 14.9525 123.644 15.2286H124.644ZM123.644 705.924C123.644 706.2 123.868 706.424 124.144 706.424C124.42 706.424 124.644 706.2 124.644 705.924H123.644ZM93.2478 15.2286C93.2478 14.9525 93.024 14.7286 92.7478 14.7286C92.4717 14.7286 92.2478 14.9525 92.2478 15.2286H93.2478ZM92.2478 705.924C92.2478 706.2 92.4717 706.424 92.7478 706.424C93.024 706.424 93.2478 706.2 93.2478 705.924H92.2478ZM61.8547 15.2286C61.8547 14.9525 61.6308 14.7286 61.3547 14.7286C61.0785 14.7286 60.8547 14.9525 60.8547 15.2286H61.8547ZM60.8547 705.924C60.8547 706.2 61.0785 706.424 61.3547 706.424C61.6308 706.424 61.8547 706.2 61.8547 705.924H60.8547ZM30.4584 15.2286C30.4584 14.9525 30.2345 14.7286 29.9584 14.7286C29.6823 14.7286 29.4584 14.9525 29.4584 15.2286H30.4584ZM29.4584 705.924C29.4584 706.2 29.6823 706.424 29.9584 706.424C30.2345 706.424 30.4584 706.2 30.4584 705.924H29.4584ZM-0.936844 15.2286C-0.936844 14.9525 -1.16071 14.7286 -1.43684 14.7286C-1.71298 14.7286 -1.93684 14.9525 -1.93684 15.2286H-0.936844ZM-1.93684 705.924C-1.93684 706.2 -1.71298 706.424 -1.43684 706.424C-1.16071 706.424 -0.936844 706.2 -0.936844 705.924H-1.93684ZM-32.3331 15.2286C-32.3331 14.9525 -32.557 14.7286 -32.8331 14.7286C-33.1093 14.7286 -33.3331 14.9525 -33.3331 15.2286H-32.3331ZM-33.3331 705.924C-33.3331 706.2 -33.1093 706.424 -32.8331 706.424C-32.557 706.424 -32.3331 706.2 -32.3331 705.924H-33.3331ZM-63.7294 15.2286C-63.7294 14.9525 -63.9533 14.7286 -64.2294 14.7286C-64.5056 14.7286 -64.7294 14.9525 -64.7294 15.2286H-63.7294ZM-64.7294 705.924C-64.7294 706.2 -64.5056 706.424 -64.2294 706.424C-63.9533 706.424 -63.7294 706.2 -63.7294 705.924H-64.7294ZM-95.1215 15.2286C-95.1215 14.9525 -95.3454 14.7286 -95.6215 14.7286C-95.8977 14.7286 -96.1215 14.9525 -96.1215 15.2286H-95.1215ZM-96.1215 705.924C-96.1215 706.2 -95.8977 706.424 -95.6215 706.424C-95.3454 706.424 -95.1215 706.2 -95.1215 705.924H-96.1215ZM-126.518 15.2286C-126.518 14.9525 -126.742 14.7286 -127.018 14.7286C-127.294 14.7286 -127.518 14.9525 -127.518 15.2286H-126.518ZM-127.518 705.924C-127.518 706.2 -127.294 706.424 -127.018 706.424C-126.742 706.424 -126.518 706.2 -126.518 705.924H-127.518ZM-158.414 15.2288L-158.414 14.7288C-158.69 14.7288 -158.914 14.9526 -158.914 15.2288H-158.414ZM-158.414 705.924H-158.914C-158.914 706.056 -158.861 706.183 -158.768 706.277C-158.674 706.371 -158.547 706.424 -158.414 706.424L-158.414 705.924ZM-158.414 548.448C-158.69 548.448 -158.914 548.672 -158.914 548.948C-158.914 549.224 -158.69 549.448 -158.414 549.448V548.448ZM532.282 549.448C532.558 549.448 532.782 549.224 532.782 548.948C532.782 548.672 532.558 548.448 532.282 548.448V549.448ZM-158.414 579.843C-158.69 579.843 -158.914 580.067 -158.914 580.343C-158.914 580.619 -158.69 580.843 -158.414 580.843V579.843ZM532.282 580.843C532.558 580.843 532.782 580.619 532.782 580.343C532.782 580.067 532.558 579.843 532.282 579.843V580.843ZM-158.414 611.236C-158.69 611.236 -158.914 611.46 -158.914 611.736C-158.914 612.012 -158.69 612.236 -158.414 612.236V611.236ZM532.282 612.236C532.558 612.236 532.782 612.012 532.782 611.736C532.782 611.46 532.558 611.236 532.282 611.236V612.236ZM-158.414 642.633C-158.69 642.633 -158.914 642.856 -158.914 643.133C-158.914 643.409 -158.69 643.633 -158.414 643.633V642.633ZM532.282 643.633C532.558 643.633 532.782 643.409 532.782 643.133C532.782 642.856 532.558 642.633 532.282 642.633V643.633ZM-158.414 674.028C-158.69 674.028 -158.914 674.252 -158.914 674.528C-158.914 674.804 -158.69 675.028 -158.414 675.028V674.028ZM532.282 675.028C532.558 675.028 532.782 674.804 532.782 674.528C532.782 674.252 532.558 674.028 532.282 674.028V675.028ZM-158.414 705.389V704.889H-158.914V705.389H-158.414ZM532.282 705.389H532.782V704.889H532.282V705.389ZM532.282 706.058V706.558H532.782V706.058H532.282ZM-158.414 706.058H-158.914V706.558H-158.414V706.058ZM-158.414 360.074C-158.69 360.074 -158.914 360.298 -158.914 360.574C-158.914 360.85 -158.69 361.074 -158.414 361.074V360.074ZM532.282 361.074C532.558 361.074 532.782 360.85 532.782 360.574C532.782 360.298 532.558 360.074 532.282 360.074V361.074ZM-158.414 391.471C-158.69 391.471 -158.914 391.694 -158.914 391.971C-158.914 392.247 -158.69 392.471 -158.414 392.471V391.471ZM532.282 392.471C532.558 392.471 532.782 392.247 532.782 391.971C532.782 391.694 532.558 391.471 532.282 391.471V392.471ZM-158.414 422.867C-158.69 422.867 -158.914 423.091 -158.914 423.367C-158.914 423.643 -158.69 423.867 -158.414 423.867V422.867ZM532.282 423.867C532.558 423.867 532.782 423.643 532.782 423.367C532.782 423.091 532.558 422.867 532.282 422.867V423.867ZM-158.414 454.263C-158.69 454.263 -158.914 454.487 -158.914 454.763C-158.914 455.039 -158.69 455.263 -158.414 455.263V454.263ZM532.282 455.263C532.558 455.263 532.782 455.039 532.782 454.763C532.782 454.487 532.558 454.263 532.282 454.263V455.263ZM-158.414 485.655C-158.69 485.655 -158.914 485.879 -158.914 486.155C-158.914 486.431 -158.69 486.655 -158.414 486.655V485.655ZM532.282 486.655C532.558 486.655 532.782 486.431 532.782 486.155C532.782 485.879 532.558 485.655 532.282 485.655V486.655ZM-158.414 517.052C-158.69 517.052 -158.914 517.275 -158.914 517.552C-158.914 517.828 -158.69 518.052 -158.414 518.052V517.052ZM532.282 518.052C532.558 518.052 532.782 517.828 532.782 517.552C532.782 517.275 532.558 517.052 532.282 517.052V518.052ZM-158.414 108.913C-158.69 108.913 -158.914 109.137 -158.914 109.413C-158.914 109.69 -158.69 109.913 -158.414 109.913V108.913ZM532.282 109.913C532.558 109.913 532.782 109.69 532.782 109.413C532.782 109.137 532.558 108.913 532.282 108.913V109.913ZM-158.414 140.31C-158.69 140.31 -158.914 140.534 -158.914 140.81C-158.914 141.086 -158.69 141.31 -158.414 141.31V140.31ZM532.282 141.31C532.558 141.31 532.782 141.086 532.782 140.81C532.782 140.534 532.558 140.31 532.282 140.31V141.31ZM-158.414 171.705C-158.69 171.705 -158.914 171.929 -158.914 172.205C-158.914 172.481 -158.69 172.705 -158.414 172.705V171.705ZM532.282 172.705C532.558 172.705 532.782 172.481 532.782 172.205C532.782 171.929 532.558 171.705 532.282 171.705V172.705ZM-158.414 203.101C-158.69 203.101 -158.914 203.325 -158.914 203.601C-158.914 203.877 -158.69 204.101 -158.414 204.101V203.101ZM532.282 204.101C532.558 204.101 532.782 203.877 532.782 203.601C532.782 203.325 532.558 203.101 532.282 203.101V204.101ZM-158.414 234.494C-158.69 234.494 -158.914 234.718 -158.914 234.994C-158.914 235.271 -158.69 235.494 -158.414 235.494V234.494ZM532.282 235.494C532.558 235.494 532.782 235.271 532.782 234.994C532.782 234.718 532.558 234.494 532.282 234.494V235.494ZM-158.414 265.89C-158.69 265.89 -158.914 266.113 -158.914 266.39C-158.914 266.666 -158.69 266.89 -158.414 266.89V265.89ZM532.282 266.89C532.558 266.89 532.782 266.666 532.782 266.39C532.782 266.113 532.558 265.89 532.282 265.89V266.89ZM-158.414 297.286C-158.69 297.286 -158.914 297.51 -158.914 297.786C-158.914 298.062 -158.69 298.286 -158.414 298.286V297.286ZM532.282 298.286C532.558 298.286 532.782 298.062 532.782 297.786C532.782 297.51 532.558 297.286 532.282 297.286V298.286ZM-158.414 328.682C-158.69 328.682 -158.914 328.906 -158.914 329.182C-158.914 329.458 -158.69 329.682 -158.414 329.682V328.682ZM532.282 329.682C532.558 329.682 532.782 329.458 532.782 329.182C532.782 328.906 532.558 328.682 532.282 328.682V329.682ZM-158.414 46.125C-158.69 46.125 -158.914 46.3489 -158.914 46.625C-158.914 46.9012 -158.69 47.125 -158.414 47.125V46.125ZM532.282 47.125C532.558 47.125 532.782 46.9012 532.782 46.625C532.782 46.3489 532.558 46.125 532.282 46.125V47.125ZM-158.414 77.5203C-158.69 77.5203 -158.914 77.7441 -158.914 78.0203C-158.914 78.2964 -158.69 78.5203 -158.414 78.5203V77.5203ZM532.282 78.5203C532.558 78.5203 532.782 78.2964 532.782 78.0203C532.782 77.7441 532.558 77.5203 532.282 77.5203V78.5203ZM531.747 15.7285H532.415V14.7285H531.747V15.7285ZM531.915 15.2285V705.923H532.915V15.2285H531.915ZM532.415 705.423H531.747V706.423H532.415V705.423ZM532.247 705.923V15.2285H531.247V705.923H532.247ZM531.781 15.2285V705.923H532.781V15.2285H531.781ZM500.386 15.2286V705.924H501.386V15.2286H500.386ZM468.99 15.2286V705.924H469.99V15.2286H468.99ZM437.598 15.2286V705.924H438.598V15.2286H437.598ZM406.201 15.2286V705.924H407.201V15.2286H406.201ZM374.805 15.2286V705.924H375.805V15.2286H374.805ZM343.409 15.2286V705.924H344.409V15.2286H343.409ZM312.017 15.2286V705.924H313.017V15.2286H312.017ZM280.62 15.2286V705.924H281.62V15.2286H280.62ZM249.224 15.2286V705.924H250.224V15.2286H249.224ZM217.829 15.2286V705.924H218.829V15.2286H217.829ZM186.436 15.2286V705.924H187.436V15.2286H186.436ZM155.039 15.2286V705.924H156.039V15.2286H155.039ZM123.644 15.2286V705.924H124.644V15.2286H123.644ZM92.2478 15.2286V705.924H93.2478V15.2286H92.2478ZM60.8547 15.2286V705.924H61.8547V15.2286H60.8547ZM29.4584 15.2286V705.924H30.4584V15.2286H29.4584ZM-1.93684 15.2286V705.924H-0.936844V15.2286H-1.93684ZM-33.3331 15.2286V705.924H-32.3331V15.2286H-33.3331ZM-64.7294 15.2286V705.924H-63.7294V15.2286H-64.7294ZM-96.1215 15.2286V705.924H-95.1215V15.2286H-96.1215ZM-127.518 15.2286V705.924H-126.518V15.2286H-127.518ZM-158.914 15.2288V705.924H-157.914V15.2288H-158.914ZM-158.414 549.448H532.282V548.448H-158.414V549.448ZM-158.414 580.843H532.282V579.843H-158.414V580.843ZM-158.414 612.236H532.282V611.236H-158.414V612.236ZM-158.414 643.633H532.282V642.633H-158.414V643.633ZM-158.414 675.028H532.282V674.028H-158.414V675.028ZM-158.414 705.889H532.282V704.889H-158.414V705.889ZM531.782 705.389V706.058H532.782V705.389H531.782ZM532.282 705.558H-158.414V706.558H532.282V705.558ZM-157.914 706.058V705.389H-158.914V706.058H-157.914ZM-158.414 706.424L532.281 706.423V705.423L-158.414 705.424L-158.414 706.424ZM-158.414 361.074H532.282V360.074H-158.414V361.074ZM-158.414 392.471H532.282V391.471H-158.414V392.471ZM-158.414 423.867H532.282V422.867H-158.414V423.867ZM-158.414 455.263H532.282V454.263H-158.414V455.263ZM-158.414 486.655H532.282V485.655H-158.414V486.655ZM-158.414 518.052H532.282V517.052H-158.414V518.052ZM-158.414 109.913H532.282V108.913H-158.414V109.913ZM-158.414 141.31H532.282V140.31H-158.414V141.31ZM-158.414 172.705H532.282V171.705H-158.414V172.705ZM-158.414 204.101H532.282V203.101H-158.414V204.101ZM-158.414 235.494H532.282V234.494H-158.414V235.494ZM-158.414 266.89H532.282V265.89H-158.414V266.89ZM-158.414 298.286H532.282V297.286H-158.414V298.286ZM-158.414 329.682H532.282V328.682H-158.414V329.682ZM-158.414 15.7288L532.281 15.7285V14.7285L-158.414 14.7288L-158.414 15.7288ZM-158.414 47.125H532.282V46.125H-158.414V47.125ZM-158.414 78.5203H532.282V77.5203H-158.414V78.5203Z" fill="url(#paint0_radial_2419_78557)"/>
<g opacity="0.8">
<g opacity="0.7" filter="url(#filter0_f_2419_78557)">
<ellipse cx="186.79" cy="312.865" rx="187.212" ry="192.589" fill="url(#paint1_linear_2419_78557)"/>
</g>
<g opacity="0.5" filter="url(#filter1_f_2419_78557)">
<ellipse cx="186.5" cy="307.227" rx="187.5" ry="73" fill="#1400FF"/>
</g>
<g opacity="0.5" filter="url(#filter2_f_2419_78557)">
<ellipse cx="186.499" cy="307.226" rx="143.077" ry="55.7886" fill="#0A49EC"/>
</g>
</g>
</g>
<defs>
<filter id="filter0_f_2419_78557" x="-356.519" y="-235.822" width="1086.62" height="1097.37" filterUnits="userSpaceOnUse" color-interpolation-filters="sRGB">
<feFlood flood-opacity="0" result="BackgroundImageFix"/>
<feBlend mode="normal" in="SourceGraphic" in2="BackgroundImageFix" result="shape"/>
<feGaussianBlur stdDeviation="178.049" result="effect1_foregroundBlur_2419_78557"/>
</filter>
<filter id="filter1_f_2419_78557" x="-554.188" y="-318.962" width="1481.38" height="1252.38" filterUnits="userSpaceOnUse" color-interpolation-filters="sRGB">
<feFlood flood-opacity="0" result="BackgroundImageFix"/>
<feBlend mode="normal" in="SourceGraphic" in2="BackgroundImageFix" result="shape"/>
<feGaussianBlur stdDeviation="276.594" result="effect1_foregroundBlur_2419_78557"/>
</filter>
<filter id="filter2_f_2419_78557" x="-288.491" y="-80.4755" width="949.98" height="775.404" filterUnits="userSpaceOnUse" color-interpolation-filters="sRGB">
<feFlood flood-opacity="0" result="BackgroundImageFix"/>
<feBlend mode="normal" in="SourceGraphic" in2="BackgroundImageFix" result="shape"/>
<feGaussianBlur stdDeviation="165.957" result="effect1_foregroundBlur_2419_78557"/>
</filter>
<radialGradient id="paint0_radial_2419_78557" cx="0" cy="0" r="1" gradientUnits="userSpaceOnUse" gradientTransform="translate(187.001 306) rotate(90) scale(145 209)">
<stop stop-opacity="0"/>
<stop offset="0.698837" stop-color="#A98BFF" stop-opacity="0.45"/>
<stop offset="1" stop-opacity="0"/>
</radialGradient>
<linearGradient id="paint1_linear_2419_78557" x1="165.224" y1="161.285" x2="226.768" y2="354.455" gradientUnits="userSpaceOnUse">
<stop stop-color="#4C9AE0"/>
<stop offset="1" stop-color="#6200C4"/>
</linearGradient>
<clipPath id="clip0_2419_78557">
<rect width="375" height="700" fill="white"/>
</clipPath>
</defs>
</svg>
