<svg width="42" height="42" viewBox="0 0 42 42" fill="none" xmlns="http://www.w3.org/2000/svg">
<mask id="path-1-inside-1_1155_77591" fill="white">
<path d="M14.722 3.16113C10.4019 3.16113 6.88977 6.67328 6.88977 10.9934C6.88977 15.1724 10.113 18.5657 14.3454 18.8011C14.4639 18.8077 14.5833 18.7982 14.702 18.7969C14.7378 18.7965 14.7725 18.7974 14.8051 18.7997C14.8598 18.8036 14.9145 18.8092 14.9694 18.8092V18.8092C14.9859 18.8092 14.9859 18.8092 15.0023 18.8092C19.2235 18.6608 22.5378 15.2311 22.5543 10.9934C22.5543 6.67328 19.0421 3.16113 14.722 3.16113Z"/>
</mask>
<path d="M14.722 3.16113C10.4019 3.16113 6.88977 6.67328 6.88977 10.9934C6.88977 15.1724 10.113 18.5657 14.3454 18.8011C14.4639 18.8077 14.5833 18.7982 14.702 18.7969C14.7378 18.7965 14.7725 18.7974 14.8051 18.7997C14.8598 18.8036 14.9145 18.8092 14.9694 18.8092V18.8092C14.9859 18.8092 14.9859 18.8092 15.0023 18.8092C19.2235 18.6608 22.5378 15.2311 22.5543 10.9934C22.5543 6.67328 19.0421 3.16113 14.722 3.16113Z" fill="url(#paint0_linear_1155_77591)" stroke="url(#paint1_linear_1155_77591)" stroke-width="2" mask="url(#path-1-inside-1_1155_77591)"/>
<mask id="path-2-inside-2_1155_77591" fill="white">
<path d="M24.4025 23.8784C19.0852 20.3335 10.4137 20.3335 5.05832 23.8784C2.63791 25.4983 1.30383 27.69 1.30383 30.0342C1.30383 32.3784 2.63791 34.551 5.03926 36.1519C7.70742 37.9434 11.2141 38.8391 14.7209 38.8391C18.2276 38.8391 21.7343 37.9434 24.4025 36.1519C26.8038 34.5319 28.1379 32.3593 28.1379 29.9961C28.1188 27.6519 26.8038 25.4793 24.4025 23.8784Z"/>
</mask>
<path d="M24.4025 23.8784C19.0852 20.3335 10.4137 20.3335 5.05832 23.8784C2.63791 25.4983 1.30383 27.69 1.30383 30.0342C1.30383 32.3784 2.63791 34.551 5.03926 36.1519C7.70742 37.9434 11.2141 38.8391 14.7209 38.8391C18.2276 38.8391 21.7343 37.9434 24.4025 36.1519C26.8038 34.5319 28.1379 32.3593 28.1379 29.9961C28.1188 27.6519 26.8038 25.4793 24.4025 23.8784Z" fill="url(#paint2_linear_1155_77591)" stroke="url(#paint3_linear_1155_77591)" stroke-width="2" mask="url(#path-2-inside-2_1155_77591)"/>
<mask id="path-3-inside-3_1155_77591" fill="white">
<path d="M27.8978 18.9702C31.5379 18.5318 34.1679 15.2919 33.863 11.5946C33.539 7.82108 30.2038 5.03857 26.4684 5.36257C26.0022 5.404 25.5417 5.49049 25.1021 5.61896C24.5247 5.78768 24.3475 6.47057 24.6165 7.00854C25.0991 7.97357 25.4168 9.04245 25.5155 10.1843C25.7109 12.6271 24.9183 14.9029 23.4587 16.6074C23.0643 17.0681 23.0677 17.783 23.5912 18.0893C24.7141 18.7463 26.0508 19.0819 27.4785 19.0083C27.5738 18.9702 27.6881 18.9702 27.8025 18.9702H27.8978Z"/>
<path d="M37.3592 33.1344C39.3413 32.0481 40.5229 30.4472 40.6753 28.5985C40.8469 26.7689 39.9511 24.9965 38.1978 23.5862C35.6811 21.5552 29.9485 20.6039 26.439 20.8376C25.4741 20.9018 25.3631 22.1624 26.1962 22.6534C26.7648 22.9884 27.305 23.3565 27.8121 23.7577C30.061 25.5682 31.1854 27.8362 30.9949 30.1994C30.9148 31.0595 30.6564 31.8933 30.2306 32.6705C29.7963 33.4634 30.2775 34.6031 31.1725 34.4755C32.6827 34.2603 36.1249 33.8133 37.3592 33.1344Z"/>
</mask>
<path d="M27.8978 18.9702C31.5379 18.5318 34.1679 15.2919 33.863 11.5946C33.539 7.82108 30.2038 5.03857 26.4684 5.36257C26.0022 5.404 25.5417 5.49049 25.1021 5.61896C24.5247 5.78768 24.3475 6.47057 24.6165 7.00854C25.0991 7.97357 25.4168 9.04245 25.5155 10.1843C25.7109 12.6271 24.9183 14.9029 23.4587 16.6074C23.0643 17.0681 23.0677 17.783 23.5912 18.0893C24.7141 18.7463 26.0508 19.0819 27.4785 19.0083C27.5738 18.9702 27.6881 18.9702 27.8025 18.9702H27.8978Z" fill="url(#paint4_linear_1155_77591)"/>
<path d="M37.3592 33.1344C39.3413 32.0481 40.5229 30.4472 40.6753 28.5985C40.8469 26.7689 39.9511 24.9965 38.1978 23.5862C35.6811 21.5552 29.9485 20.6039 26.439 20.8376C25.4741 20.9018 25.3631 22.1624 26.1962 22.6534C26.7648 22.9884 27.305 23.3565 27.8121 23.7577C30.061 25.5682 31.1854 27.8362 30.9949 30.1994C30.9148 31.0595 30.6564 31.8933 30.2306 32.6705C29.7963 33.4634 30.2775 34.6031 31.1725 34.4755C32.6827 34.2603 36.1249 33.8133 37.3592 33.1344Z" fill="url(#paint5_linear_1155_77591)"/>
<path d="M27.8978 18.9702C31.5379 18.5318 34.1679 15.2919 33.863 11.5946C33.539 7.82108 30.2038 5.03857 26.4684 5.36257C26.0022 5.404 25.5417 5.49049 25.1021 5.61896C24.5247 5.78768 24.3475 6.47057 24.6165 7.00854C25.0991 7.97357 25.4168 9.04245 25.5155 10.1843C25.7109 12.6271 24.9183 14.9029 23.4587 16.6074C23.0643 17.0681 23.0677 17.783 23.5912 18.0893C24.7141 18.7463 26.0508 19.0819 27.4785 19.0083C27.5738 18.9702 27.6881 18.9702 27.8025 18.9702H27.8978Z" stroke="url(#paint6_linear_1155_77591)" stroke-opacity="0.8" stroke-width="2" mask="url(#path-3-inside-3_1155_77591)"/>
<path d="M37.3592 33.1344C39.3413 32.0481 40.5229 30.4472 40.6753 28.5985C40.8469 26.7689 39.9511 24.9965 38.1978 23.5862C35.6811 21.5552 29.9485 20.6039 26.439 20.8376C25.4741 20.9018 25.3631 22.1624 26.1962 22.6534C26.7648 22.9884 27.305 23.3565 27.8121 23.7577C30.061 25.5682 31.1854 27.8362 30.9949 30.1994C30.9148 31.0595 30.6564 31.8933 30.2306 32.6705C29.7963 33.4634 30.2775 34.6031 31.1725 34.4755C32.6827 34.2603 36.1249 33.8133 37.3592 33.1344Z" stroke="url(#paint7_linear_1155_77591)" stroke-opacity="0.8" stroke-width="2" mask="url(#path-3-inside-3_1155_77591)"/>
<defs>
<linearGradient id="paint0_linear_1155_77591" x1="14.0252" y1="10.4982" x2="23.6507" y2="-3.85501" gradientUnits="userSpaceOnUse">
<stop stop-color="white"/>
<stop offset="1" stop-color="#4A42FB"/>
</linearGradient>
<linearGradient id="paint1_linear_1155_77591" x1="6.88977" y1="2.05421" x2="18.8911" y2="14.0283" gradientUnits="userSpaceOnUse">
<stop stop-color="white"/>
<stop offset="1" stop-color="white" stop-opacity="0"/>
</linearGradient>
<linearGradient id="paint2_linear_1155_77591" x1="13.5272" y1="29.4811" x2="22.1747" y2="9.86318" gradientUnits="userSpaceOnUse">
<stop stop-color="white"/>
<stop offset="1" stop-color="#4A42FB"/>
</linearGradient>
<linearGradient id="paint3_linear_1155_77591" x1="1.30383" y1="19.9734" x2="13.7201" y2="38.8203" gradientUnits="userSpaceOnUse">
<stop stop-color="white"/>
<stop offset="1" stop-color="white" stop-opacity="0"/>
</linearGradient>
<linearGradient id="paint4_linear_1155_77591" x1="30.9285" y1="8.44035" x2="49.4364" y2="16.2851" gradientUnits="userSpaceOnUse">
<stop stop-color="#9378FF"/>
<stop offset="1" stop-color="#4B2CCA"/>
</linearGradient>
<linearGradient id="paint5_linear_1155_77591" x1="30.9285" y1="8.44035" x2="49.4364" y2="16.2851" gradientUnits="userSpaceOnUse">
<stop stop-color="#9378FF"/>
<stop offset="1" stop-color="#4B2CCA"/>
</linearGradient>
<linearGradient id="paint6_linear_1155_77591" x1="32.0252" y1="4.43937" x2="57.8893" y2="17.704" gradientUnits="userSpaceOnUse">
<stop stop-color="white"/>
<stop offset="1" stop-color="#3A227D" stop-opacity="0"/>
</linearGradient>
<linearGradient id="paint7_linear_1155_77591" x1="32.0252" y1="4.43937" x2="57.8893" y2="17.704" gradientUnits="userSpaceOnUse">
<stop stop-color="white"/>
<stop offset="1" stop-color="#3A227D" stop-opacity="0"/>
</linearGradient>
</defs>
</svg>
