<svg width="1920" height="1100" viewBox="0 0 1920 1100" fill="none" xmlns="http://www.w3.org/2000/svg">
<g clip-path="url(#clip0_2419_78563)">
<path opacity="0.4" d="M1540.87 -111V-111.5H1540.37V-111H1540.87ZM1542 -111H1542.5V-111.5H1542V-111ZM1542 1052.77V1053.27H1542.5V1052.77H1542ZM1540.87 1052.77H1540.37V1053.27H1540.87V1052.77ZM1541.77 -111H1542.27C1542.27 -111.133 1542.22 -111.26 1542.13 -111.354C1542.03 -111.447 1541.91 -111.5 1541.77 -111.5V-111ZM1541.77 1052.77V1053.27C1542.05 1053.27 1542.27 1053.05 1542.27 1052.77H1541.77ZM1489.38 -111C1489.38 -111.276 1489.15 -111.5 1488.88 -111.5C1488.6 -111.5 1488.38 -111.276 1488.38 -111H1489.38ZM1488.38 1052.77C1488.38 1053.05 1488.6 1053.27 1488.88 1053.27C1489.15 1053.27 1489.38 1053.05 1489.38 1052.77H1488.38ZM1436.47 -111C1436.47 -111.276 1436.25 -111.5 1435.97 -111.5C1435.7 -111.5 1435.47 -111.276 1435.47 -111H1436.47ZM1435.47 1052.77C1435.47 1053.05 1435.7 1053.27 1435.97 1053.27C1436.25 1053.27 1436.47 1053.05 1436.47 1052.77H1435.47ZM1383.58 -111C1383.58 -111.276 1383.36 -111.5 1383.08 -111.5C1382.81 -111.5 1382.58 -111.276 1382.58 -111H1383.58ZM1382.58 1052.77C1382.58 1053.05 1382.81 1053.27 1383.08 1053.27C1383.36 1053.27 1383.58 1053.05 1383.58 1052.77H1382.58ZM1330.68 -111C1330.68 -111.276 1330.46 -111.5 1330.18 -111.5C1329.9 -111.5 1329.68 -111.276 1329.68 -111H1330.68ZM1329.68 1052.77C1329.68 1053.05 1329.9 1053.27 1330.18 1053.27C1330.46 1053.27 1330.68 1053.05 1330.68 1052.77H1329.68ZM1277.78 -111C1277.78 -111.276 1277.56 -111.5 1277.28 -111.5C1277 -111.5 1276.78 -111.276 1276.78 -111H1277.78ZM1276.78 1052.77C1276.78 1053.05 1277 1053.27 1277.28 1053.27C1277.56 1053.27 1277.78 1053.05 1277.78 1052.77H1276.78ZM1224.88 -111C1224.88 -111.276 1224.66 -111.5 1224.38 -111.5C1224.1 -111.5 1223.88 -111.276 1223.88 -111H1224.88ZM1223.88 1052.77C1223.88 1053.05 1224.1 1053.27 1224.38 1053.27C1224.66 1053.27 1224.88 1053.05 1224.88 1052.77H1223.88ZM1171.99 -111C1171.99 -111.276 1171.76 -111.5 1171.49 -111.5C1171.21 -111.5 1170.99 -111.276 1170.99 -111H1171.99ZM1170.99 1052.77C1170.99 1053.05 1171.21 1053.27 1171.49 1053.27C1171.76 1053.27 1171.99 1053.05 1171.99 1052.77H1170.99ZM1119.09 -111C1119.09 -111.276 1118.86 -111.5 1118.59 -111.5C1118.31 -111.5 1118.09 -111.276 1118.09 -111H1119.09ZM1118.09 1052.77C1118.09 1053.05 1118.31 1053.27 1118.59 1053.27C1118.86 1053.27 1119.09 1053.05 1119.09 1052.77H1118.09ZM1066.18 -111C1066.18 -111.276 1065.96 -111.5 1065.68 -111.5C1065.41 -111.5 1065.18 -111.276 1065.18 -111H1066.18ZM1065.18 1052.77C1065.18 1053.05 1065.41 1053.27 1065.68 1053.27C1065.96 1053.27 1066.18 1053.05 1066.18 1052.77H1065.18ZM1013.29 -111C1013.29 -111.276 1013.06 -111.5 1012.79 -111.5C1012.51 -111.5 1012.29 -111.276 1012.29 -111H1013.29ZM1012.29 1052.77C1012.29 1053.05 1012.51 1053.27 1012.79 1053.27C1013.06 1053.27 1013.29 1053.05 1013.29 1052.77H1012.29ZM960.391 -111C960.391 -111.276 960.167 -111.5 959.891 -111.5C959.614 -111.5 959.391 -111.276 959.391 -111H960.391ZM959.391 1052.77C959.391 1053.05 959.614 1053.27 959.891 1053.27C960.167 1053.27 960.391 1053.05 960.391 1052.77H959.391ZM907.49 -111C907.49 -111.276 907.266 -111.5 906.99 -111.5C906.714 -111.5 906.49 -111.276 906.49 -111H907.49ZM906.49 1052.77C906.49 1053.05 906.714 1053.27 906.99 1053.27C907.266 1053.27 907.49 1053.05 907.49 1052.77H906.49ZM854.591 -111C854.591 -111.276 854.367 -111.5 854.091 -111.5C853.815 -111.5 853.591 -111.276 853.591 -111H854.591ZM853.591 1052.77C853.591 1053.05 853.815 1053.27 854.091 1053.27C854.367 1053.27 854.591 1053.05 854.591 1052.77H853.591ZM801.691 -111C801.691 -111.276 801.467 -111.5 801.191 -111.5C800.914 -111.5 800.691 -111.276 800.691 -111H801.691ZM800.691 1052.77C800.691 1053.05 800.914 1053.27 801.191 1053.27C801.467 1053.27 801.691 1053.05 801.691 1052.77H800.691ZM748.795 -111C748.795 -111.276 748.571 -111.5 748.295 -111.5C748.019 -111.5 747.795 -111.276 747.795 -111H748.795ZM747.795 1052.77C747.795 1053.05 748.019 1053.27 748.295 1053.27C748.571 1053.27 748.795 1053.05 748.795 1052.77H747.795ZM695.895 -111C695.895 -111.276 695.671 -111.5 695.395 -111.5C695.119 -111.5 694.895 -111.276 694.895 -111H695.895ZM694.895 1052.77C694.895 1053.05 695.119 1053.27 695.395 1053.27C695.671 1053.27 695.895 1053.05 695.895 1052.77H694.895ZM642.996 -111C642.996 -111.276 642.772 -111.5 642.496 -111.5C642.22 -111.5 641.996 -111.276 641.996 -111H642.996ZM641.996 1052.77C641.996 1053.05 642.22 1053.27 642.496 1053.27C642.772 1053.27 642.996 1053.05 642.996 1052.77H641.996ZM590.095 -111C590.095 -111.276 589.871 -111.5 589.595 -111.5C589.319 -111.5 589.095 -111.276 589.095 -111H590.095ZM589.095 1052.77C589.095 1053.05 589.319 1053.27 589.595 1053.27C589.871 1053.27 590.095 1053.05 590.095 1052.77H589.095ZM537.195 -111C537.195 -111.276 536.971 -111.5 536.695 -111.5C536.419 -111.5 536.195 -111.276 536.195 -111H537.195ZM536.195 1052.77C536.195 1053.05 536.419 1053.27 536.695 1053.27C536.971 1053.27 537.195 1053.05 537.195 1052.77H536.195ZM484.301 -111C484.301 -111.276 484.077 -111.5 483.801 -111.5C483.525 -111.5 483.301 -111.276 483.301 -111H484.301ZM483.301 1052.77C483.301 1053.05 483.525 1053.27 483.801 1053.27C484.077 1053.27 484.301 1053.05 484.301 1052.77H483.301ZM431.401 -111C431.401 -111.276 431.177 -111.5 430.901 -111.5C430.624 -111.5 430.401 -111.276 430.401 -111H431.401ZM430.401 1052.77C430.401 1053.05 430.624 1053.27 430.901 1053.27C431.177 1053.27 431.401 1053.05 431.401 1052.77H430.401ZM378 -111L378 -111.5C377.724 -111.5 377.5 -111.276 377.5 -111H378ZM378 1052.77H377.5C377.5 1052.91 377.553 1053.03 377.646 1053.13C377.74 1053.22 377.867 1053.27 378 1053.27L378 1052.77ZM378 787.781C377.724 787.781 377.5 788.004 377.5 788.281C377.5 788.557 377.724 788.781 378 788.781V787.781ZM1541.78 788.781C1542.05 788.781 1542.28 788.557 1542.28 788.281C1542.28 788.004 1542.05 787.781 1541.78 787.781V788.781ZM378 840.679C377.724 840.679 377.5 840.903 377.5 841.179C377.5 841.455 377.724 841.679 378 841.679V840.679ZM1541.78 841.679C1542.05 841.679 1542.28 841.455 1542.28 841.179C1542.28 840.903 1542.05 840.679 1541.78 840.679V841.679ZM378 893.575C377.724 893.575 377.5 893.798 377.5 894.075C377.5 894.351 377.724 894.575 378 894.575V893.575ZM1541.78 894.575C1542.05 894.575 1542.28 894.351 1542.28 894.075C1542.28 893.798 1542.05 893.575 1541.78 893.575V894.575ZM378 946.475C377.724 946.475 377.5 946.699 377.5 946.975C377.5 947.251 377.724 947.475 378 947.475V946.475ZM1541.78 947.475C1542.05 947.475 1542.28 947.251 1542.28 946.975C1542.28 946.699 1542.05 946.475 1541.78 946.475V947.475ZM378 999.374C377.724 999.374 377.5 999.598 377.5 999.874C377.5 1000.15 377.724 1000.37 378 1000.37V999.374ZM1541.78 1000.37C1542.05 1000.37 1542.28 1000.15 1542.28 999.874C1542.28 999.598 1542.05 999.374 1541.78 999.374V1000.37ZM378 1051.87V1051.37H377.5V1051.87H378ZM1541.78 1051.87H1542.28V1051.37H1541.78V1051.87ZM1541.78 1053V1053.5H1542.28V1053H1541.78ZM378 1053H377.5V1053.5H378V1053ZM378 470.384C377.724 470.384 377.5 470.608 377.5 470.884C377.5 471.16 377.724 471.384 378 471.384V470.384ZM1541.78 471.384C1542.05 471.384 1542.28 471.16 1542.28 470.884C1542.28 470.608 1542.05 470.384 1541.78 470.384V471.384ZM378 523.285C377.724 523.285 377.5 523.508 377.5 523.785C377.5 524.061 377.724 524.285 378 524.285V523.285ZM1541.78 524.285C1542.05 524.285 1542.28 524.061 1542.28 523.785C1542.28 523.508 1542.05 523.285 1541.78 523.285V524.285ZM378 576.185C377.724 576.185 377.5 576.409 377.5 576.685C377.5 576.961 377.724 577.185 378 577.185V576.185ZM1541.78 577.185C1542.05 577.185 1542.28 576.961 1542.28 576.685C1542.28 576.409 1542.05 576.185 1541.78 576.185V577.185ZM378 629.086C377.724 629.086 377.5 629.31 377.5 629.586C377.5 629.862 377.724 630.086 378 630.086V629.086ZM1541.78 630.086C1542.05 630.086 1542.28 629.862 1542.28 629.586C1542.28 629.31 1542.05 629.086 1541.78 629.086V630.086ZM378 681.979C377.724 681.979 377.5 682.203 377.5 682.479C377.5 682.755 377.724 682.979 378 682.979V681.979ZM1541.78 682.979C1542.05 682.979 1542.28 682.755 1542.28 682.479C1542.28 682.203 1542.05 681.979 1541.78 681.979V682.979ZM378 734.88C377.724 734.88 377.5 735.104 377.5 735.38C377.5 735.656 377.724 735.88 378 735.88V734.88ZM1541.78 735.88C1542.05 735.88 1542.28 735.656 1542.28 735.38C1542.28 735.104 1542.05 734.88 1541.78 734.88V735.88ZM378 47.1951C377.724 47.1951 377.5 47.419 377.5 47.6951C377.5 47.9713 377.724 48.1951 378 48.1951V47.1951ZM1541.78 48.1951C1542.05 48.1951 1542.28 47.9713 1542.28 47.6951C1542.28 47.419 1542.05 47.1951 1541.78 47.1951V48.1951ZM378 100.096C377.724 100.096 377.5 100.32 377.5 100.596C377.5 100.872 377.724 101.096 378 101.096V100.096ZM1541.78 101.096C1542.05 101.096 1542.28 100.872 1542.28 100.596C1542.28 100.32 1542.05 100.096 1541.78 100.096V101.096ZM378 152.995C377.724 152.995 377.5 153.218 377.5 153.495C377.5 153.771 377.724 153.995 378 153.995V152.995ZM1541.78 153.995C1542.05 153.995 1542.28 153.771 1542.28 153.495C1542.28 153.218 1542.05 152.995 1541.78 152.995V153.995ZM378 205.895C377.724 205.895 377.5 206.119 377.5 206.395C377.5 206.671 377.724 206.895 378 206.895V205.895ZM1541.78 206.895C1542.05 206.895 1542.28 206.671 1542.28 206.395C1542.28 206.119 1542.05 205.895 1541.78 205.895V206.895ZM378 258.79C377.724 258.79 377.5 259.014 377.5 259.29C377.5 259.567 377.724 259.79 378 259.79V258.79ZM1541.78 259.79C1542.05 259.79 1542.28 259.567 1542.28 259.29C1542.28 259.014 1542.05 258.79 1541.78 258.79V259.79ZM378 311.689C377.724 311.689 377.5 311.913 377.5 312.189C377.5 312.465 377.724 312.689 378 312.689V311.689ZM1541.78 312.689C1542.05 312.689 1542.28 312.465 1542.28 312.189C1542.28 311.913 1542.05 311.689 1541.78 311.689V312.689ZM378 364.59C377.724 364.59 377.5 364.814 377.5 365.09C377.5 365.366 377.724 365.59 378 365.59V364.59ZM1541.78 365.59C1542.05 365.59 1542.28 365.366 1542.28 365.09C1542.28 364.814 1542.05 364.59 1541.78 364.59V365.59ZM378 417.49C377.724 417.49 377.5 417.714 377.5 417.99C377.5 418.267 377.724 418.49 378 418.49V417.49ZM1541.78 418.49C1542.05 418.49 1542.28 418.267 1542.28 417.99C1542.28 417.714 1542.05 417.49 1541.78 417.49V418.49ZM378 -58.599C377.724 -58.599 377.5 -58.3751 377.5 -58.099C377.5 -57.8229 377.724 -57.599 378 -57.599V-58.599ZM1541.78 -57.599C1542.05 -57.599 1542.28 -57.8229 1542.28 -58.099C1542.28 -58.3751 1542.05 -58.599 1541.78 -58.599V-57.599ZM378 -5.70016C377.724 -5.70016 377.5 -5.47631 377.5 -5.20016C377.5 -4.92403 377.724 -4.70016 378 -4.70016V-5.70016ZM1541.78 -4.70016C1542.05 -4.70016 1542.28 -4.92403 1542.28 -5.20016C1542.28 -5.47631 1542.05 -5.70016 1541.78 -5.70016V-4.70016ZM1540.87 -110.5H1542V-111.5H1540.87V-110.5ZM1541.5 -111V1052.77H1542.5V-111H1541.5ZM1542 1052.27H1540.87V1053.27H1542V1052.27ZM1541.37 1052.77V-111H1540.37V1052.77H1541.37ZM1541.27 -111V1052.77H1542.27V-111H1541.27ZM1488.38 -111V1052.77H1489.38V-111H1488.38ZM1435.47 -111V1052.77H1436.47V-111H1435.47ZM1382.58 -111V1052.77H1383.58V-111H1382.58ZM1329.68 -111V1052.77H1330.68V-111H1329.68ZM1276.78 -111V1052.77H1277.78V-111H1276.78ZM1223.88 -111V1052.77H1224.88V-111H1223.88ZM1170.99 -111V1052.77H1171.99V-111H1170.99ZM1118.09 -111V1052.77H1119.09V-111H1118.09ZM1065.18 -111V1052.77H1066.18V-111H1065.18ZM1012.29 -111V1052.77H1013.29V-111H1012.29ZM959.391 -111V1052.77H960.391V-111H959.391ZM906.49 -111V1052.77H907.49V-111H906.49ZM853.591 -111V1052.77H854.591V-111H853.591ZM800.691 -111V1052.77H801.691V-111H800.691ZM747.795 -111V1052.77H748.795V-111H747.795ZM694.895 -111V1052.77H695.895V-111H694.895ZM641.996 -111V1052.77H642.996V-111H641.996ZM589.095 -111V1052.77H590.095V-111H589.095ZM536.195 -111V1052.77H537.195V-111H536.195ZM483.301 -111V1052.77H484.301V-111H483.301ZM430.401 -111V1052.77H431.401V-111H430.401ZM377.5 -111V1052.77H378.5V-111H377.5ZM378 788.781H1541.78V787.781H378V788.781ZM378 841.679H1541.78V840.679H378V841.679ZM378 894.575H1541.78V893.575H378V894.575ZM378 947.475H1541.78V946.475H378V947.475ZM378 1000.37H1541.78V999.374H378V1000.37ZM378 1052.37H1541.78V1051.37H378V1052.37ZM1541.28 1051.87V1053H1542.28V1051.87H1541.28ZM1541.78 1052.5H378V1053.5H1541.78V1052.5ZM378.5 1053V1051.87H377.5V1053H378.5ZM378 1053.27L1541.77 1053.27V1052.27L378 1052.27L378 1053.27ZM378 471.384H1541.78V470.384H378V471.384ZM378 524.285H1541.78V523.285H378V524.285ZM378 577.185H1541.78V576.185H378V577.185ZM378 630.086H1541.78V629.086H378V630.086ZM378 682.979H1541.78V681.979H378V682.979ZM378 735.88H1541.78V734.88H378V735.88ZM378 48.1951H1541.78V47.1951H378V48.1951ZM378 101.096H1541.78V100.096H378V101.096ZM378 153.995H1541.78V152.995H378V153.995ZM378 206.895H1541.78V205.895H378V206.895ZM378 259.79H1541.78V258.79H378V259.79ZM378 312.689H1541.78V311.689H378V312.689ZM378 365.59H1541.78V364.59H378V365.59ZM378 418.49H1541.78V417.49H378V418.49ZM378 -110.5L1541.77 -110.5V-111.5L378 -111.5L378 -110.5ZM378 -57.599H1541.78V-58.599H378V-57.599ZM378 -4.70016H1541.78V-5.70016H378V-4.70016Z" fill="url(#paint0_radial_2419_78563)"/>
<g opacity="0.8">
<g opacity="0.7" filter="url(#filter0_f_2419_78563)">
<circle cx="960.5" cy="390.5" r="324.5" fill="url(#paint1_linear_2419_78563)"/>
</g>
<g opacity="0.5" filter="url(#filter1_f_2419_78563)">
<ellipse cx="960" cy="381" rx="325" ry="123" fill="#1400FF"/>
</g>
<g opacity="0.5" filter="url(#filter2_f_2419_78563)">
<ellipse cx="960" cy="381" rx="248" ry="94" fill="#0A49EC"/>
</g>
</g>
</g>
<defs>
<filter id="filter0_f_2419_78563" x="36" y="-534" width="1849" height="1849" filterUnits="userSpaceOnUse" color-interpolation-filters="sRGB">
<feFlood flood-opacity="0" result="BackgroundImageFix"/>
<feBlend mode="normal" in="SourceGraphic" in2="BackgroundImageFix" result="shape"/>
<feGaussianBlur stdDeviation="300" result="effect1_foregroundBlur_2419_78563"/>
</filter>
<filter id="filter1_f_2419_78563" x="-297.084" y="-674.084" width="2514.17" height="2110.17" filterUnits="userSpaceOnUse" color-interpolation-filters="sRGB">
<feFlood flood-opacity="0" result="BackgroundImageFix"/>
<feBlend mode="normal" in="SourceGraphic" in2="BackgroundImageFix" result="shape"/>
<feGaussianBlur stdDeviation="466.042" result="effect1_foregroundBlur_2419_78563"/>
</filter>
<filter id="filter2_f_2419_78563" x="152.749" y="-272.251" width="1614.5" height="1306.5" filterUnits="userSpaceOnUse" color-interpolation-filters="sRGB">
<feFlood flood-opacity="0" result="BackgroundImageFix"/>
<feBlend mode="normal" in="SourceGraphic" in2="BackgroundImageFix" result="shape"/>
<feGaussianBlur stdDeviation="279.625" result="effect1_foregroundBlur_2419_78563"/>
</filter>
<radialGradient id="paint0_radial_2419_78563" cx="0" cy="0" r="1" gradientUnits="userSpaceOnUse" gradientTransform="translate(960 420) rotate(90) scale(270 797.573)">
<stop stop-opacity="0"/>
<stop offset="0.401674" stop-color="#A98BFF" stop-opacity="0.45"/>
<stop offset="1" stop-opacity="0"/>
</radialGradient>
<linearGradient id="paint1_linear_2419_78563" x1="923.12" y1="135.099" x2="1024.44" y2="462.237" gradientUnits="userSpaceOnUse">
<stop stop-color="#4C9AE0"/>
<stop offset="1" stop-color="#6200C4"/>
</linearGradient>
<clipPath id="clip0_2419_78563">
<rect width="1920" height="1100" fill="white"/>
</clipPath>
</defs>
</svg>
