<svg width="60" height="80" viewBox="0 0 60 80" fill="none" xmlns="http://www.w3.org/2000/svg">
<g style="mix-blend-mode:lighten">
<mask id="path-1-inside-1_2066_49599" fill="white">
<path fill-rule="evenodd" clip-rule="evenodd" d="M37.3539 2.01295C32.8033 -0.614345 27.1967 -0.614342 22.6461 2.01296L7.35391 10.8419C2.80329 13.4692 0 18.3247 0 23.5792V41.2371C0 46.4917 2.8033 51.3472 7.35391 53.9745L22.6461 62.8034C27.1967 65.4307 32.8033 65.4307 37.3539 62.8034L52.6461 53.9745C57.1967 51.3472 60 46.4917 60 41.2371V23.5792C60 18.3246 57.1967 13.4692 52.6461 10.8419L37.3539 2.01295ZM30.0006 47.4413C38.3031 47.4413 45.0335 40.7109 45.0335 32.4084C45.0335 24.106 38.3031 17.3756 30.0006 17.3756C21.6982 17.3756 14.9677 24.106 14.9677 32.4084C14.9677 40.7109 21.6982 47.4413 30.0006 47.4413Z"/>
</mask>
<path fill-rule="evenodd" clip-rule="evenodd" d="M37.3539 2.01295C32.8033 -0.614345 27.1967 -0.614342 22.6461 2.01296L7.35391 10.8419C2.80329 13.4692 0 18.3247 0 23.5792V41.2371C0 46.4917 2.8033 51.3472 7.35391 53.9745L22.6461 62.8034C27.1967 65.4307 32.8033 65.4307 37.3539 62.8034L52.6461 53.9745C57.1967 51.3472 60 46.4917 60 41.2371V23.5792C60 18.3246 57.1967 13.4692 52.6461 10.8419L37.3539 2.01295ZM30.0006 47.4413C38.3031 47.4413 45.0335 40.7109 45.0335 32.4084C45.0335 24.106 38.3031 17.3756 30.0006 17.3756C21.6982 17.3756 14.9677 24.106 14.9677 32.4084C14.9677 40.7109 21.6982 47.4413 30.0006 47.4413Z" fill="url(#paint0_linear_2066_49599)" style="mix-blend-mode:lighten"/>
<path d="M22.6461 2.01296L23.1461 2.87898L22.6461 2.01296ZM37.3539 2.01295L37.8539 1.14693L37.3539 2.01295ZM7.35391 10.8419L6.85391 9.97588L7.35391 10.8419ZM7.35391 53.9745L7.85391 53.1085L7.35391 53.9745ZM22.6461 62.8034L22.1461 63.6695L22.6461 62.8034ZM37.3539 62.8034L36.8539 61.9374L37.3539 62.8034ZM52.6461 53.9745L52.1461 53.1085L52.6461 53.9745ZM52.6461 10.8419L52.1461 11.7079L52.6461 10.8419ZM23.1461 2.87898C27.3873 0.430316 32.6127 0.430313 36.8539 2.87898L37.8539 1.14693C32.9939 -1.659 27.0061 -1.659 22.1461 1.14693L23.1461 2.87898ZM7.85391 11.7079L23.1461 2.87898L22.1461 1.14693L6.85391 9.97588L7.85391 11.7079ZM1 23.5792C1 18.6819 3.61269 14.1566 7.85391 11.7079L6.85391 9.97588C1.99389 12.7818 -1 17.9674 -1 23.5792H1ZM1 41.2371V23.5792H-1V41.2371H1ZM7.85391 53.1085C3.6127 50.6598 1 46.1345 1 41.2371H-1C-1 46.849 1.9939 52.0346 6.85391 54.8405L7.85391 53.1085ZM23.1461 61.9374L7.85391 53.1085L6.85391 54.8405L22.1461 63.6695L23.1461 61.9374ZM36.8539 61.9374C32.6127 64.3861 27.3873 64.3861 23.1461 61.9374L22.1461 63.6695C27.0061 66.4754 32.9939 66.4754 37.8539 63.6695L36.8539 61.9374ZM52.1461 53.1085L36.8539 61.9374L37.8539 63.6695L53.1461 54.8405L52.1461 53.1085ZM59 41.2371C59 46.1345 56.3873 50.6598 52.1461 53.1085L53.1461 54.8405C58.0061 52.0346 61 46.849 61 41.2371H59ZM59 23.5792V41.2371H61V23.5792H59ZM52.1461 11.7079C56.3873 14.1566 59 18.6819 59 23.5792H61C61 17.9674 58.0061 12.7818 53.1461 9.97588L52.1461 11.7079ZM36.8539 2.87898L52.1461 11.7079L53.1461 9.97588L37.8539 1.14693L36.8539 2.87898ZM44.0335 32.4084C44.0335 40.1586 37.7508 46.4413 30.0006 46.4413V48.4413C38.8553 48.4413 46.0335 41.2632 46.0335 32.4084H44.0335ZM30.0006 18.3756C37.7508 18.3756 44.0335 24.6583 44.0335 32.4084H46.0335C46.0335 23.5537 38.8553 16.3756 30.0006 16.3756V18.3756ZM15.9677 32.4084C15.9677 24.6583 22.2505 18.3756 30.0006 18.3756V16.3756C21.1459 16.3756 13.9677 23.5537 13.9677 32.4084H15.9677ZM30.0006 46.4413C22.2505 46.4413 15.9677 40.1586 15.9677 32.4084H13.9677C13.9677 41.2632 21.1459 48.4413 30.0006 48.4413V46.4413Z" fill="url(#paint1_linear_2066_49599)" mask="url(#path-1-inside-1_2066_49599)"/>
</g>
<defs>
<linearGradient id="paint0_linear_2066_49599" x1="45" y1="0.0424813" x2="25" y2="70.5" gradientUnits="userSpaceOnUse">
<stop stop-color="white"/>
<stop offset="1" stop-color="#B0B2ED"/>
</linearGradient>
<linearGradient id="paint1_linear_2066_49599" x1="49" y1="0.0424813" x2="17.5" y2="68.9999" gradientUnits="userSpaceOnUse">
<stop stop-color="white"/>
<stop offset="1" stop-color="white" stop-opacity="0"/>
</linearGradient>
</defs>
</svg>
