<svg width="60" height="80" viewBox="0 0 60 80" fill="none" xmlns="http://www.w3.org/2000/svg">
<g style="mix-blend-mode:lighten">
<path d="M30.7547 0.43284C30.4166 -0.14428 29.5834 -0.14428 29.2453 0.43284L0.105862 50.2803C0.0512237 50.3691 0.0170746 50.4647 0 50.5603C5.01309 48.4772 10.2857 46.8995 15.7598 45.8939C19.1577 45.2689 22.6306 44.8643 26.1685 44.6935C26.5748 29.6098 28.1355 18.3748 30 18.3748C31.8645 18.3748 33.4252 29.6098 33.8315 44.6935C43.0655 45.1374 51.8759 47.183 60 50.5603C59.9898 50.4989 59.9727 50.4374 59.9454 50.3776L59.8941 50.2803L30.7547 0.43284Z" fill="url(#paint0_linear_2066_49653)"/>
<path d="M31.8031 49.2063C32.1377 47.9855 32.4519 46.4488 32.7388 44.6406C31.8031 44.615 30.864 44.6013 29.9215 44.6013C28.9789 44.6013 28.0364 44.615 27.1007 44.6406C27.8828 49.5529 28.8594 52.4693 29.9215 52.4693C30.5908 52.4693 31.226 51.3031 31.8031 49.2063Z" fill="url(#paint1_linear_2066_49653)"/>
</g>
<defs>
<linearGradient id="paint0_linear_2066_49653" x1="30" y1="0" x2="30" y2="52.4693" gradientUnits="userSpaceOnUse">
<stop stop-color="#5682FF"/>
<stop offset="1" stop-color="#1344CC"/>
</linearGradient>
<linearGradient id="paint1_linear_2066_49653" x1="30" y1="0" x2="30" y2="52.4693" gradientUnits="userSpaceOnUse">
<stop stop-color="#5682FF"/>
<stop offset="1" stop-color="#1344CC"/>
</linearGradient>
</defs>
</svg>
