<svg width="60" height="80" viewBox="0 0 60 80" fill="none" xmlns="http://www.w3.org/2000/svg">
<path fill-rule="evenodd" clip-rule="evenodd" d="M46.2 24.0483C46.2 25.6614 44.2416 26.4601 43.1133 25.3071L20.0169 1.7011C23.1399 0.599379 26.5 0 30 0C35.9673 0 41.5275 1.7422 46.2 4.7457V24.0483ZM54.6 12.8245V24.0483C54.6 33.1893 43.5021 37.7154 37.1094 31.1817L12.2716 5.79615C4.83066 11.2556 0 20.0637 0 30C0 36.3882 1.99668 42.3099 5.4 47.1753V36.0117C5.4 26.8708 16.498 22.3446 22.8908 28.8784L47.6943 54.2289C55.1544 48.7713 60 39.9516 60 30C60 23.6118 58.0032 17.69 54.6 12.8245ZM16.8866 34.7529L39.9396 58.3143C36.8289 59.4063 33.4836 60 30 60C24.0328 60 18.4725 58.2579 13.8 55.2543V36.0117C13.8 34.3986 15.7585 33.6 16.8866 34.7529Z" fill="url(#paint0_radial_2066_49614)" style="mix-blend-mode:lighten"/>
<path fill-rule="evenodd" clip-rule="evenodd" d="M46.2 24.0483C46.2 25.6614 44.2416 26.4601 43.1133 25.3071L20.0169 1.7011C23.1399 0.599379 26.5 0 30 0C35.9673 0 41.5275 1.7422 46.2 4.7457V24.0483ZM54.6 12.8245V24.0483C54.6 33.1893 43.5021 37.7154 37.1094 31.1817L12.2716 5.79615C4.83066 11.2556 0 20.0637 0 30C0 36.3882 1.99668 42.3099 5.4 47.1753V36.0117C5.4 26.8708 16.498 22.3446 22.8908 28.8784L47.6943 54.2289C55.1544 48.7713 60 39.9516 60 30C60 23.6118 58.0032 17.69 54.6 12.8245ZM16.8866 34.7529L39.9396 58.3143C36.8289 59.4063 33.4836 60 30 60C24.0328 60 18.4725 58.2579 13.8 55.2543V36.0117C13.8 34.3986 15.7585 33.6 16.8866 34.7529Z" fill="url(#paint1_radial_2066_49614)"/>
<defs>
<radialGradient id="paint0_radial_2066_49614" cx="0" cy="0" r="1" gradientUnits="userSpaceOnUse" gradientTransform="translate(27 36) rotate(-67.1263) scale(34.7311 86.1476)">
<stop stop-color="#FF1834"/>
<stop offset="0.825" stop-color="#FF26C2"/>
<stop offset="1" stop-color="#FF2EDA"/>
</radialGradient>
<radialGradient id="paint1_radial_2066_49614" cx="0" cy="0" r="1" gradientUnits="userSpaceOnUse" gradientTransform="translate(42.5 2.50001) rotate(114.775) scale(35.7946 168.553)">
<stop stop-color="#FFD707"/>
<stop offset="1" stop-color="#EC1AA3" stop-opacity="0"/>
</radialGradient>
</defs>
</svg>
