<svg width="32" height="32" viewBox="0 0 32 32" fill="none" xmlns="http://www.w3.org/2000/svg">
<path d="M20.8625 24.3224L20.86 24.331L20.8578 24.3397C20.3478 26.3658 18.6815 27.6522 16.2934 27.6522H13.163C12.3669 27.6522 11.5886 27.8876 10.926 28.3286L7.15313 30.8397L7.15309 30.8396L7.14651 30.8442C6.79617 31.0855 6.30884 30.8379 6.30884 30.3912C6.30884 28.85 5.02958 27.778 3.80108 27.294C3.24131 27.0735 2.7587 26.7575 2.36386 26.3627C1.54339 25.5422 1.05884 24.363 1.05884 22.9022V16.6177C1.05884 15.2561 1.4801 14.1405 2.19442 13.339C2.90732 12.5392 3.94208 12.0183 5.2337 11.8968C5.43494 11.8813 5.61604 11.8677 5.80884 11.8677H16.2934C17.7548 11.8677 18.9337 12.3526 19.7461 13.165C20.5585 13.9773 21.0434 15.1563 21.0434 16.6177V22.9022C21.0434 23.4223 20.9855 23.8988 20.8625 24.3224Z" fill="url(#paint0_linear_295_19621)" stroke="url(#paint1_linear_295_19621)"/>
<rect x="3.73125" y="16.6414" width="14.6385" height="2.15291" rx="1.07646" fill="url(#paint2_linear_295_19621)" stroke="url(#paint3_linear_295_19621)" stroke-width="0.4"/>
<rect x="3.73125" y="20.6702" width="14.6385" height="2.15291" rx="1.07646" fill="url(#paint4_linear_295_19621)" stroke="url(#paint5_linear_295_19621)" stroke-width="0.4"/>
<path d="M24.8787 21.5591C26.8397 21.5591 28.4919 20.9106 29.6345 19.7525C30.7926 18.6098 31.4412 16.9576 31.4412 14.9966V7.12158C31.4412 3.49291 28.5073 0.559082 24.8787 0.559082H11.7537C8.12499 0.559082 5.19116 3.49291 5.19116 7.12158V8.27967C5.19116 8.71202 5.53087 9.05173 5.96322 9.05173H16.2934C20.4779 9.05173 23.8595 12.4333 23.8595 16.6179V20.787C23.8595 21.2194 24.1993 21.5591 24.6316 21.5591H24.8787Z" fill="url(#paint6_linear_295_19621)"/>
<path d="M29.2834 19.3965L29.2833 19.3965L29.2786 19.4013C28.2447 20.4492 26.7285 21.0591 24.8787 21.0591H24.6316C24.4754 21.0591 24.3595 20.9432 24.3595 20.787V16.6179C24.3595 12.1572 20.7541 8.55173 16.2934 8.55173H5.96322C5.80701 8.55173 5.69116 8.43588 5.69116 8.27967V7.12158C5.69116 3.76905 8.40113 1.05908 11.7537 1.05908H24.8787C28.2312 1.05908 30.9412 3.76905 30.9412 7.12158V14.9966C30.9412 16.8464 30.3313 18.3626 29.2834 19.3965Z" stroke="url(#paint7_linear_295_19621)" stroke-opacity="0.8"/>
<defs>
<linearGradient id="paint0_linear_295_19621" x1="10.1177" y1="20.7795" x2="22.2539" y2="1.88051" gradientUnits="userSpaceOnUse">
<stop stop-color="white"/>
<stop offset="1" stop-color="#4A42FB"/>
</linearGradient>
<linearGradient id="paint1_linear_295_19621" x1="14.1618" y1="9.38242" x2="6.40339" y2="22.1116" gradientUnits="userSpaceOnUse">
<stop stop-color="white"/>
<stop offset="1" stop-color="white" stop-opacity="0"/>
</linearGradient>
<linearGradient id="paint2_linear_295_19621" x1="29.9706" y1="1.30954" x2="15.0326" y2="-5.29386" gradientUnits="userSpaceOnUse">
<stop stop-color="#4F158A"/>
<stop offset="1" stop-color="#02002C"/>
</linearGradient>
<linearGradient id="paint3_linear_295_19621" x1="19.6871" y1="18.9943" x2="14.2975" y2="25.786" gradientUnits="userSpaceOnUse">
<stop stop-color="white"/>
<stop offset="1" stop-color="white"/>
</linearGradient>
<linearGradient id="paint4_linear_295_19621" x1="29.9706" y1="5.33834" x2="15.0326" y2="-1.26505" gradientUnits="userSpaceOnUse">
<stop stop-color="#4F158A"/>
<stop offset="1" stop-color="#02002C"/>
</linearGradient>
<linearGradient id="paint5_linear_295_19621" x1="19.6871" y1="23.0231" x2="14.2975" y2="29.8148" gradientUnits="userSpaceOnUse">
<stop stop-color="white"/>
<stop offset="1" stop-color="white"/>
</linearGradient>
<linearGradient id="paint6_linear_295_19621" x1="16.8042" y1="2.79495" x2="35.213" y2="19.0245" gradientUnits="userSpaceOnUse">
<stop stop-color="#9378FF"/>
<stop offset="1" stop-color="#4B2CCA"/>
</linearGradient>
<linearGradient id="paint7_linear_295_19621" x1="18.4477" y1="-0.087551" x2="41.3447" y2="24.3375" gradientUnits="userSpaceOnUse">
<stop stop-color="white"/>
<stop offset="1" stop-color="#3A227D" stop-opacity="0"/>
</linearGradient>
</defs>
</svg>
