<svg width="88" height="80" viewBox="0 0 88 80" fill="none" xmlns="http://www.w3.org/2000/svg">
<g style="mix-blend-mode:lighten">
<path d="M0 30L30 -2.1763e-06L39.9166 9.91662L20.593 29.2402L40.6764 49.3236L30 60L0 30Z" fill="url(#paint0_linear_2066_49627)"/>
<path d="M87.6853 11.0688C84.0163 7.39978 79.3416 4.90114 74.2525 3.88886C69.1635 2.87658 63.8885 3.39612 59.0947 5.38178C54.3009 7.36745 50.2035 10.73 47.3208 15.0444C44.4381 19.3587 42.8994 24.4309 42.8994 29.6197C42.8994 34.8085 44.4381 39.8808 47.3208 44.1951C50.2035 48.5094 54.3009 51.872 59.0947 53.8577C63.8885 55.8433 69.1635 56.3629 74.2526 55.3506C79.3416 54.3383 84.0163 51.8396 87.6853 48.1706L77.1245 37.6098C75.5442 39.1901 73.5308 40.2663 71.3388 40.7023C69.1469 41.1383 66.8749 40.9145 64.8102 40.0593C62.7454 39.204 60.9806 37.7557 59.739 35.8975C58.4974 34.0393 57.8347 31.8546 57.8347 29.6197C57.8347 27.3848 58.4974 25.2002 59.739 23.3419C60.9806 21.4837 62.7454 20.0354 64.8102 19.1801C66.8749 18.3249 69.1469 18.1011 71.3388 18.5371C73.5308 18.9731 75.5442 20.0493 77.1245 21.6296L87.6853 11.0688Z" fill="url(#paint1_linear_2066_49627)"/>
</g>
<defs>
<linearGradient id="paint0_linear_2066_49627" x1="26" y1="9.49988" x2="36" y2="56.9999" gradientUnits="userSpaceOnUse">
<stop stop-color="#1C53F3"/>
<stop offset="1" stop-color="#2329AE"/>
</linearGradient>
<linearGradient id="paint1_linear_2066_49627" x1="69.1344" y1="3.38477" x2="69.1344" y2="55.8547" gradientUnits="userSpaceOnUse">
<stop stop-color="#FF36C3"/>
<stop offset="1" stop-color="#A420B9"/>
</linearGradient>
</defs>
</svg>
