<svg width="43" height="42" viewBox="0 0 43 42" fill="none" xmlns="http://www.w3.org/2000/svg">
<g clip-path="url(#clip0_1003_105570)">
<path d="M36.0498 22.2743C35.4023 22.2743 34.8598 21.7843 34.7898 21.1368C34.3698 17.2868 32.3048 13.8218 29.1198 11.6168C28.5423 11.2143 28.4023 10.4268 28.8048 9.84933C29.2073 9.27183 29.9948 9.13183 30.5723 9.53433C34.3698 12.1768 36.8198 16.3068 37.3273 20.8743C37.3973 21.5743 36.8898 22.2043 36.1898 22.2743C36.1373 22.2743 36.1023 22.2743 36.0498 22.2743Z" fill="white"/>
<path d="M6.96469 22.3632C6.92969 22.3632 6.87719 22.3632 6.84219 22.3632C6.14219 22.2932 5.63469 21.6632 5.70469 20.9632C6.17719 16.3957 8.59219 12.2657 12.3547 9.60565C12.9147 9.20315 13.7197 9.34316 14.1222 9.90316C14.5247 10.4807 14.3847 11.2682 13.8247 11.6707C10.6747 13.9107 8.62719 17.3757 8.24219 21.2082C8.17219 21.8732 7.61219 22.3632 6.96469 22.3632Z" fill="white"/>
<path d="M28.403 36.9236C26.2505 37.9561 23.9405 38.4811 21.5255 38.4811C19.0055 38.4811 16.608 37.9211 14.368 36.7836C13.738 36.4861 13.493 35.7161 13.808 35.0861C14.1055 34.4561 14.8755 34.2111 15.5055 34.5086C16.608 35.0686 17.7805 35.4536 18.9705 35.6811C20.5805 35.9961 22.2255 36.0136 23.8355 35.7336C25.0255 35.5236 26.198 35.1561 27.283 34.6311C27.9305 34.3336 28.7005 34.5786 28.9805 35.2261C29.2955 35.8561 29.0505 36.6261 28.403 36.9236Z" fill="white"/>
<path d="M21.5073 3.51562C18.7948 3.51562 16.5723 5.72062 16.5723 8.45062C16.5723 11.1806 18.7773 13.3856 21.5073 13.3856C24.2373 13.3856 26.4423 11.1806 26.4423 8.45062C26.4423 5.72062 24.2373 3.51562 21.5073 3.51562Z" fill="url(#paint0_linear_1003_105570)"/>
<path d="M17.0723 8.45062C17.0723 5.99792 19.0698 4.01562 21.5073 4.01562C23.9611 4.01562 25.9423 5.99677 25.9423 8.45062C25.9423 10.9045 23.9611 12.8856 21.5073 12.8856C19.0534 12.8856 17.0723 10.9045 17.0723 8.45062Z" stroke="url(#paint1_linear_1003_105570)" stroke-opacity="0.8"/>
<path d="M9.25727 24.2734C6.54477 24.2734 4.32227 26.4784 4.32227 29.2084C4.32227 31.9384 6.52727 34.1434 9.25727 34.1434C11.9873 34.1434 14.1923 31.9384 14.1923 29.2084C14.1923 26.4784 11.9698 24.2734 9.25727 24.2734Z" fill="url(#paint2_linear_1003_105570)"/>
<path d="M4.82227 29.2084C4.82227 26.7557 6.81975 24.7734 9.25727 24.7734C11.6948 24.7734 13.6923 26.7557 13.6923 29.2084C13.6923 31.6623 11.7111 33.6434 9.25727 33.6434C6.80341 33.6434 4.82227 31.6623 4.82227 29.2084Z" stroke="url(#paint3_linear_1003_105570)" stroke-opacity="0.8"/>
<path d="M33.5825 24.2734C30.87 24.2734 28.6475 26.4784 28.6475 29.2084C28.6475 31.9384 30.8525 34.1434 33.5825 34.1434C36.3125 34.1434 38.5175 31.9384 38.5175 29.2084C38.5175 26.4784 36.3125 24.2734 33.5825 24.2734Z" fill="url(#paint4_linear_1003_105570)"/>
<path d="M29.1475 29.2084C29.1475 26.7557 31.145 24.7734 33.5825 24.7734C36.0363 24.7734 38.0175 26.7546 38.0175 29.2084C38.0175 31.6623 36.0363 33.6434 33.5825 33.6434C31.1286 33.6434 29.1475 31.6623 29.1475 29.2084Z" stroke="url(#paint5_linear_1003_105570)" stroke-opacity="0.8"/>
</g>
<defs>
<linearGradient id="paint0_linear_1003_105570" x1="19.6699" y1="3.04297" x2="29.5038" y2="9.48102" gradientUnits="userSpaceOnUse">
<stop stop-color="#769AFF"/>
<stop offset="1" stop-color="#0054E8"/>
</linearGradient>
<linearGradient id="paint1_linear_1003_105570" x1="21.5567" y1="3.21171" x2="32.2067" y2="12.3002" gradientUnits="userSpaceOnUse">
<stop stop-color="white"/>
<stop offset="1" stop-color="#3A227D" stop-opacity="0"/>
</linearGradient>
<linearGradient id="paint2_linear_1003_105570" x1="7.41992" y1="23.8008" x2="17.2538" y2="30.2388" gradientUnits="userSpaceOnUse">
<stop stop-color="#769AFF"/>
<stop offset="1" stop-color="#0054E8"/>
</linearGradient>
<linearGradient id="paint3_linear_1003_105570" x1="9.30671" y1="23.9695" x2="19.9567" y2="33.0581" gradientUnits="userSpaceOnUse">
<stop stop-color="white"/>
<stop offset="1" stop-color="#3A227D" stop-opacity="0"/>
</linearGradient>
<linearGradient id="paint4_linear_1003_105570" x1="31.7451" y1="23.8008" x2="41.579" y2="30.2388" gradientUnits="userSpaceOnUse">
<stop stop-color="#769AFF"/>
<stop offset="1" stop-color="#0054E8"/>
</linearGradient>
<linearGradient id="paint5_linear_1003_105570" x1="33.6319" y1="23.9695" x2="44.2819" y2="33.0581" gradientUnits="userSpaceOnUse">
<stop stop-color="white"/>
<stop offset="1" stop-opacity="0"/>
</linearGradient>
<clipPath id="clip0_1003_105570">
<rect width="42" height="42" fill="white" transform="translate(0.419922)"/>
</clipPath>
</defs>
</svg>
