<svg width="40" height="35" viewBox="0 0 40 35" fill="none" xmlns="http://www.w3.org/2000/svg">
<path d="M34.3754 10.3333C37.0218 10.3333 39.1671 8.18803 39.1671 5.54167C39.1671 2.8953 37.0218 0.75 34.3754 0.75C31.729 0.75 29.5837 2.8953 29.5837 5.54167C29.5837 8.18803 31.729 10.3333 34.3754 10.3333Z" fill="white"/>
<path d="M34.3754 10.3333C37.0218 10.3333 39.1671 8.18803 39.1671 5.54167C39.1671 2.8953 37.0218 0.75 34.3754 0.75C31.729 0.75 29.5837 2.8953 29.5837 5.54167C29.5837 8.18803 31.729 10.3333 34.3754 10.3333Z" fill="url(#paint0_linear_3587_89755)"/>
<path d="M38.6671 5.54167C38.6671 7.91189 36.7456 9.83333 34.3754 9.83333C32.0052 9.83333 30.0837 7.91189 30.0837 5.54167C30.0837 3.17144 32.0052 1.25 34.3754 1.25C36.7456 1.25 38.6671 3.17144 38.6671 5.54167Z" stroke="url(#paint1_linear_3587_89755)" stroke-opacity="0.8"/>
<path d="M36.8637 13.3218L36.8637 13.3219L36.8696 13.3199C37.7516 13.0305 38.6671 13.7181 38.6671 14.6657V24.709C38.6671 27.9679 37.7385 30.2133 36.1914 31.6499C34.6377 33.0927 32.3821 33.7923 29.5837 33.7923H10.4171C7.61872 33.7923 5.36314 33.0927 3.80938 31.6499C2.26233 30.2133 1.33374 27.9679 1.33374 24.709V11.2923C1.33374 8.03345 2.26233 5.78797 3.80938 4.35142C5.36314 2.90865 7.61872 2.20898 10.4171 2.20898H25.0029C25.8808 2.20898 26.5458 3.03649 26.3529 3.98612L26.3529 3.98611L26.3517 3.99248C26.1273 5.17565 26.1479 6.48001 26.5144 7.80326C27.2713 10.544 29.4963 12.7279 32.2366 13.4436L32.2365 13.4436L32.2416 13.4449C33.8665 13.8511 35.4361 13.7705 36.8637 13.3218ZM27.0586 16.7626L27.0586 16.7626L27.0624 16.7595C27.8875 16.0891 28.018 14.859 27.3513 14.0311C26.6951 13.1729 25.4558 13.0528 24.6321 13.7201C24.6315 13.7207 24.6308 13.7212 24.6301 13.7218L22.3722 15.5204L22.3708 15.5216C21.7471 16.0221 20.8815 16.2884 19.9908 16.2884C19.1001 16.2884 18.2345 16.0221 17.6109 15.5216L17.61 15.5208L11.614 10.7318C11.6135 10.7313 11.6129 10.7308 11.6123 10.7303C10.774 10.0508 9.56133 10.2183 8.89818 11.0345L8.89811 11.0345L8.89223 11.042C8.2469 11.868 8.37423 13.0978 9.20094 13.7695L9.2042 13.7722L15.1994 18.5607C15.2001 18.5612 15.2007 18.5617 15.2014 18.5623C16.5489 19.6602 18.2937 20.1873 20.0004 20.1873C21.7098 20.1873 23.4336 19.6587 24.7976 18.5637C24.7979 18.5635 24.7982 18.5632 24.7985 18.563L27.0586 16.7626Z" fill="url(#paint2_linear_3587_89755)" stroke="url(#paint3_linear_3587_89755)"/>
<defs>
<linearGradient id="paint0_linear_3587_89755" x1="33.8234" y1="1.77034" x2="41.7999" y2="7.39612" gradientUnits="userSpaceOnUse">
<stop stop-color="#FF11F5"/>
<stop offset="1" stop-color="#7D06B5"/>
</linearGradient>
<linearGradient id="paint1_linear_3587_89755" x1="34.4234" y1="0.45491" x2="44.7641" y2="9.27947" gradientUnits="userSpaceOnUse">
<stop stop-color="white"/>
<stop offset="1" stop-color="#3A227D" stop-opacity="0"/>
</linearGradient>
<linearGradient id="paint2_linear_3587_89755" x1="3.5" y1="28.2617" x2="19.6423" y2="0.313768" gradientUnits="userSpaceOnUse">
<stop stop-color="white"/>
<stop offset="1" stop-color="#B6A3FF"/>
</linearGradient>
<linearGradient id="paint3_linear_3587_89755" x1="0.83374" y1="-0.595923" x2="25.5105" y2="28.3391" gradientUnits="userSpaceOnUse">
<stop stop-color="white"/>
<stop offset="1" stop-color="white" stop-opacity="0"/>
</linearGradient>
</defs>
</svg>
