<svg width="42" height="42" viewBox="0 0 42 42" fill="none" xmlns="http://www.w3.org/2000/svg">
<g clip-path="url(#clip0_1003_105558)">
<path d="M8.10735 10.6705L8.10771 10.6703L18.4829 4.66912C18.4833 4.66892 18.4836 4.66872 18.484 4.66851C20.0459 3.77651 21.9557 3.77798 23.4974 4.66802L33.8891 10.6686C33.8896 10.6689 33.8901 10.6692 33.8907 10.6695C35.436 11.5783 36.3907 13.2179 36.4074 15.0173V26.985C36.4074 28.7849 35.4518 30.4393 33.9099 31.3295L33.9098 31.3295L23.5168 37.3309C23.5165 37.3311 23.5162 37.3312 23.5159 37.3314C21.954 38.2235 20.0441 38.222 18.5024 37.332C18.5024 37.332 18.5024 37.332 18.5024 37.332L8.11068 31.3314C8.11018 31.3311 8.10968 31.3308 8.10919 31.3305C6.56372 30.4217 5.60986 28.7652 5.60986 26.985V15.015C5.60986 13.2151 6.56544 11.5607 8.10735 10.6705ZM14.4426 26.1283L14.4423 26.1287C13.4358 27.6273 14.4849 29.655 16.3099 29.655H25.6899C27.4914 29.655 28.5686 27.6135 27.5562 26.127C26.2596 24.2022 23.7825 22.95 20.9999 22.95C18.2166 22.95 15.739 24.2027 14.4426 26.1283ZM25.5774 16.9225C25.5774 14.3889 23.5335 12.345 20.9999 12.345C18.4648 12.345 16.4224 14.4078 16.4224 16.9225C16.4224 19.4561 18.4662 21.5 20.9999 21.5C23.5335 21.5 25.5774 19.4561 25.5774 16.9225Z" fill="url(#paint0_linear_1003_105558)" stroke="url(#paint1_linear_1003_105558)"/>
</g>
<defs>
<linearGradient id="paint0_linear_1003_105558" x1="15.628" y1="28.8133" x2="29.4864" y2="-6.14095" gradientUnits="userSpaceOnUse">
<stop stop-color="white"/>
<stop offset="1" stop-color="#4F7CF0"/>
</linearGradient>
<linearGradient id="paint1_linear_1003_105558" x1="26.4667" y1="-4.0805" x2="6.18484" y2="29.5637" gradientUnits="userSpaceOnUse">
<stop stop-color="white"/>
<stop offset="1" stop-color="white" stop-opacity="0"/>
</linearGradient>
<clipPath id="clip0_1003_105558">
<rect width="42" height="42" fill="white"/>
</clipPath>
</defs>
</svg>
