<svg width="43" height="42" viewBox="0 0 43 42" fill="none" xmlns="http://www.w3.org/2000/svg">
<g clip-path="url(#clip0_1003_105545)">
<path d="M38.4024 13.6661V13.6675V28.3325C38.4024 31.4181 37.4846 33.8207 35.8539 35.4515C34.2231 37.0822 31.8205 38 28.7349 38H14.0874C11.0019 38 8.59938 37.0822 6.9687 35.4495C5.33794 33.8167 4.41992 31.4097 4.41992 28.315V13.6675C4.41992 10.5819 5.33773 8.1793 6.96848 6.54855C8.59923 4.9178 11.0019 4 14.0874 4H28.7524C31.8381 4 34.2405 4.91785 35.869 6.54833C37.4973 8.17871 38.4109 10.5809 38.4024 13.6661ZM10.6974 22.1888L10.6973 22.1888L10.6991 22.1954C10.9137 23.0062 11.6344 23.565 12.4599 23.565C12.4648 23.565 12.4699 23.565 12.4753 23.565C12.5691 23.5652 12.7356 23.5656 12.9116 23.5112C18.8496 22.028 24.1952 19.0483 28.5674 14.8512V15.3475C28.5674 16.3411 29.3863 17.16 30.3799 17.16C31.2005 17.16 31.9018 16.6016 32.1213 15.8475H32.2099V15.3475V10.22C32.2099 10.1761 32.2044 10.1378 32.1976 10.1066C32.1944 10.092 32.1909 10.0787 32.1873 10.0666C32.1808 10.0024 32.1692 9.94756 32.1591 9.90513C32.1478 9.85754 32.1426 9.83878 32.139 9.82606C32.1358 9.81455 32.1339 9.80798 32.1302 9.78944C32.1283 9.77965 32.1264 9.76844 32.1237 9.75038C32.1233 9.74798 32.1229 9.7452 32.1224 9.7421C32.1201 9.72638 32.1166 9.7026 32.1126 9.6803C32.1039 9.63107 32.089 9.5612 32.0561 9.48316C32.0243 9.38933 31.9787 9.31862 31.9462 9.27313C31.9271 9.24642 31.9079 9.22219 31.8955 9.20657L31.8913 9.20133C31.8794 9.1863 31.8722 9.17719 31.8649 9.1675L31.8601 9.16102C31.8095 9.09352 31.7389 8.99933 31.6435 8.90395L31.6095 8.86996C31.6092 8.86962 31.6088 8.86929 31.6085 8.86895L31.5735 8.83394L31.497 8.7575H31.4503C31.4312 8.74718 31.415 8.73914 31.404 8.73362L31.3998 8.73154C31.3812 8.72224 31.3747 8.71875 31.3734 8.71803L31.3649 8.71238L31.3547 8.70625C31.3493 8.703 31.3406 8.69743 31.3292 8.69014C31.2731 8.65412 31.1519 8.57629 31.0381 8.53076C30.9415 8.49212 30.8536 8.47645 30.7953 8.46772C30.7577 8.46207 30.7383 8.45966 30.725 8.458C30.7108 8.45622 30.7034 8.4553 30.688 8.45221L30.6394 8.4425H30.625C30.594 8.43344 30.5044 8.4075 30.3974 8.4075H25.2699C24.2763 8.4075 23.4574 9.22636 23.4574 10.22C23.4574 11.2136 24.2763 12.0325 25.2699 12.0325H26.2609C22.3029 15.8944 17.4414 18.6393 12.0252 19.9896C11.0354 20.2317 10.4561 21.2239 10.6974 22.1888ZM12.4599 33.575C13.4536 33.575 14.2724 32.7561 14.2724 31.7625V28.14C14.2724 27.1464 13.4536 26.3275 12.4599 26.3275C11.4663 26.3275 10.6474 27.1464 10.6474 28.14V31.7625C10.6474 32.7561 11.4663 33.575 12.4599 33.575ZM21.4199 33.575C22.4136 33.575 23.2324 32.7561 23.2324 31.7625V24.5C23.2324 23.5064 22.4136 22.6875 21.4199 22.6875C20.4263 22.6875 19.6074 23.5064 19.6074 24.5V31.7625C19.6074 32.7561 20.4263 33.575 21.4199 33.575ZM30.3799 33.575C31.3736 33.575 32.1924 32.7561 32.1924 31.7625V20.8775C32.1924 19.8839 31.3736 19.065 30.3799 19.065C29.3863 19.065 28.5674 19.8839 28.5674 20.8775V31.7625C28.5674 32.7561 29.3863 33.575 30.3799 33.575Z" fill="url(#paint0_linear_1003_105545)" stroke="url(#paint1_linear_1003_105545)"/>
</g>
<defs>
<linearGradient id="paint0_linear_1003_105545" x1="6.35312" y1="32.0221" x2="24.2113" y2="-3.20332" gradientUnits="userSpaceOnUse">
<stop stop-color="white"/>
<stop offset="1" stop-color="#68A4FF"/>
</linearGradient>
<linearGradient id="paint1_linear_1003_105545" x1="3.91992" y1="1.02414" x2="30.7633" y2="27.765" gradientUnits="userSpaceOnUse">
<stop stop-color="white"/>
<stop offset="1" stop-color="white" stop-opacity="0"/>
</linearGradient>
<clipPath id="clip0_1003_105545">
<rect width="42" height="42" fill="white" transform="translate(0.419922)"/>
</clipPath>
</defs>
</svg>
